<svg xmlns="http://www.w3.org/2000/svg" width="24" height="24" viewBox="0 0 24 24"><path d="M12,0A12,12,0,1,0,24,12,12.035,12.035,0,0,0,12,0Zm9.9,11.4a24.292,24.292,0,0,0-7.1-.1A13.018,13.018,0,0,0,14,9.6a13.73,13.73,0,0,0,5.5-4.1A9.972,9.972,0,0,1,21.9,11.4ZM18,4.2a11.935,11.935,0,0,1-5,3.7A45.339,45.339,0,0,0,9.6,2.4,9.863,9.863,0,0,1,12,2.1,9.5,9.5,0,0,1,18,4.2ZM7.5,3.2A38.354,38.354,0,0,1,11,8.6,35.282,35.282,0,0,1,2.4,9.7,9.915,9.915,0,0,1,7.5,3.2ZM2.1,12v-.3A32.117,32.117,0,0,0,12,10.4c.2.5.5,1,.7,1.4a15.089,15.089,0,0,0-8.3,6.5A9.929,9.929,0,0,1,2.1,12Zm3.8,7.8a13.41,13.41,0,0,1,7.6-6,37.662,37.662,0,0,1,2,7.5A10.014,10.014,0,0,1,5.9,19.8Zm11.6.4a38.993,38.993,0,0,0-1.9-6.9,18.758,18.758,0,0,1,6.2.2A9.944,9.944,0,0,1,17.5,20.2Z" fill="#fff"/></svg>