<svg xmlns="http://www.w3.org/2000/svg" width="200" height="200" viewBox="0 0 200 200"><g transform="translate(-512 -108)"><rect width="200" height="200" transform="translate(512 108)" opacity="0"/><g transform="translate(492.554 -176.118)"><g transform="translate(101.686 354.118)"><g transform="translate(0 13.201)"><path d="M90.744,374.017a29.068,29.068,0,0,1,3.656.416,5.692,5.692,0,0,1,2.354,1.031,8.227,8.227,0,0,1,1.94,2.282q.93,1.524,2.354,4.171a5.087,5.087,0,0,0,1.744,1.889,4.256,4.256,0,0,0,2.527.663v.1a16.644,16.644,0,0,1-3.584,1.351,13.687,13.687,0,0,1-3.237.465,5.941,5.941,0,0,1-3.241-.761,5.735,5.735,0,0,1-1.84-1.865,8.786,8.786,0,0,1-.98-2.356c-.214-.834-.4-1.561-.564-2.184a9.527,9.527,0,0,0-1.84-3.705,5.347,5.347,0,0,0-2.822-1.791v-.1a14.444,14.444,0,0,0,2.92,0,4.309,4.309,0,0,0,2.11-.785,3.88,3.88,0,0,0,1.3-1.84,9.045,9.045,0,0,0,.442-3.067,8.774,8.774,0,0,0-.442-3.092,3.978,3.978,0,0,0-1.1-1.669,3.042,3.042,0,0,0-1.448-.662,9.768,9.768,0,0,0-1.472-.123,3.113,3.113,0,0,0-1.718.417c-.427.28-.687.991-.787,2.135q-.2,1.965-.219,4.466t-.025,4.662q0,2.258.074,4.27t.27,3.607a11.777,11.777,0,0,0,.564,2.6,2.214,2.214,0,0,0,.957,1.3v.047H77.493v-.047a2.227,2.227,0,0,0,.957-1.3,12.064,12.064,0,0,0,.564-2.6q.2-1.592.27-3.607t.074-4.27q0-2.257-.074-4.268t-.27-3.609a12.116,12.116,0,0,0-.564-2.6,2.217,2.217,0,0,0-.957-1.3v-.049q1.57.049,3.239.074t2.9.025q2.108,0,3.607-.072t3.067-.075a27.594,27.594,0,0,1,5.521.466,11.655,11.655,0,0,1,3.583,1.278,4.637,4.637,0,0,1,2.477,4.2,4.753,4.753,0,0,1-2.8,4.366q-2.795,1.524-8.341,1.472Z" transform="translate(-77.493 -362.188)" fill="#fff"/></g><g transform="translate(29.544)"><path d="M105.318,354.118a14.861,14.861,0,0,1,5.4.932,12.051,12.051,0,0,1,4.1,2.577,11,11,0,0,1,2.576,3.853,12.672,12.672,0,0,1,.883,4.76A13.916,13.916,0,0,1,117,372.276a15.156,15.156,0,0,1,1.327,6.38,14.869,14.869,0,0,1-.811,4.932,12.669,12.669,0,0,1-2.307,4.1,10.959,10.959,0,0,1-3.607,2.8,10.706,10.706,0,0,1-4.76,1.031,11.783,11.783,0,0,1-4.638-.883,10.516,10.516,0,0,1-3.558-2.429,11.013,11.013,0,0,1-2.28-3.607,11.97,11.97,0,0,1-.81-4.417,12.317,12.317,0,0,1,2.06-7.067,2.484,2.484,0,0,1-.049-.491v-.489a5.687,5.687,0,0,1,.589-2.529,6.6,6.6,0,0,1,1.644-2.109,8.655,8.655,0,0,1,5.668-2.038,12.8,12.8,0,0,1,7.165,1.84,11.842,11.842,0,0,1,4.221,4.738,14.056,14.056,0,0,0,1.227-5.793,12.231,12.231,0,0,0-.98-5.006,11.023,11.023,0,0,0-2.7-3.754,11.729,11.729,0,0,0-4.047-2.354,15.2,15.2,0,0,0-5.032-.811Zm1.521,14.234a2.711,2.711,0,0,0-1.471.636,4.249,4.249,0,0,0-1.1,1.718,13.735,13.735,0,0,0-.736,3.116,40.3,40.3,0,0,0-.321,4.787,10.178,10.178,0,0,0,2.161.244,13.683,13.683,0,0,0,5.1-.883q-.15-5.938-1.5-8.932a4.759,4.759,0,0,0-4.688-2.994,6.21,6.21,0,0,0-2.673.566,6.947,6.947,0,0,0-2.061,1.446,6.481,6.481,0,0,0-1.327,1.965,5.29,5.29,0,0,0-.466,2.11l.051.735a10.588,10.588,0,0,1,3.777-3.264,12.119,12.119,0,0,1,5.251-1.3Zm.787,22.868a1.66,1.66,0,0,0,1.227-.564,4.447,4.447,0,0,0,.906-1.84,19.024,19.024,0,0,0,.566-3.411q.194-2.135.195-5.227l-.047-2.061a10.5,10.5,0,0,1-2.431.712,15.953,15.953,0,0,1-2.673.222c-.394,0-.761-.018-1.1-.051s-.7-.082-1.057-.147v.883a23.51,23.51,0,0,0,1.2,8.539Q105.611,391.22,107.626,391.22Z" transform="translate(-95.553 -354.118)" fill="#fff"/></g><g transform="translate(55.553 12.367)"><path d="M111.8,376.5a34.638,34.638,0,0,0,3.558,7.141q1.791,2.577,3.951,2.577a3.047,3.047,0,0,0,2.086-.712,3.246,3.246,0,0,0,.81-2.528,5.09,5.09,0,0,0-.785-2.92,8.029,8.029,0,0,0-1.988-2.012,22.717,22.717,0,0,0-2.6-1.595,16.52,16.52,0,0,1-2.6-1.693,8.148,8.148,0,0,1-1.988-2.307,6.7,6.7,0,0,1-.785-3.411,7.274,7.274,0,0,1,.663-3.19,6.616,6.616,0,0,1,1.816-2.3,7.773,7.773,0,0,1,2.724-1.4,12.02,12.02,0,0,1,3.435-.468,9.454,9.454,0,0,1,1.816.147q.736.147,1.35.294c.409.1.792.2,1.153.3a4.964,4.964,0,0,0,1.276.146,6.8,6.8,0,0,0,1.472-.172,3.9,3.9,0,0,0,1.423-.613h.049l-.245,9.521h-.049a31.145,31.145,0,0,0-3.215-6.846,4.7,4.7,0,0,0-3.9-2.429,2.873,2.873,0,0,0-2.233.785,2.958,2.958,0,0,0-.712,2.063,4.1,4.1,0,0,0,.859,2.673,8.994,8.994,0,0,0,2.159,1.891q1.3.832,2.822,1.618a17.5,17.5,0,0,1,2.822,1.816,8.753,8.753,0,0,1,2.159,2.527,7.348,7.348,0,0,1,.859,3.705,7.587,7.587,0,0,1-.687,3.337,6.748,6.748,0,0,1-1.889,2.38,8.025,8.025,0,0,1-2.822,1.425,12.429,12.429,0,0,1-3.435.465,9.037,9.037,0,0,1-1.939-.172q-.761-.172-1.448-.344c-.458-.115-.932-.227-1.423-.344a8.413,8.413,0,0,0-1.865-.172A5.14,5.14,0,0,0,113,385.9a3.548,3.548,0,0,0-1.2.563h-.049V376.5Z" transform="translate(-111.452 -361.678)" fill="#fff"/></g><g transform="translate(76.754 12.367)"><path d="M133.246,373.115a6.652,6.652,0,0,0,2.061.391,3.328,3.328,0,0,0,2.48-1.031,4.9,4.9,0,0,0,1-3.483,12.184,12.184,0,0,0-.857-5.375q-.861-1.592-1.988-1.6-1.72,0-2.676,2.994a29.021,29.021,0,0,0-.957,8.443q0,5.693,2.037,8.464a6.221,6.221,0,0,0,5.228,2.773,7.292,7.292,0,0,0,3.386-.712,7.5,7.5,0,0,0,2.4-1.988l.049.051a6.766,6.766,0,0,1-1.13,1.642,8.079,8.079,0,0,1-1.889,1.5,10.529,10.529,0,0,1-2.724,1.1,14.213,14.213,0,0,1-3.632.417,11.7,11.7,0,0,1-4.564-.883,10.947,10.947,0,0,1-3.681-2.5,11.8,11.8,0,0,1-2.477-3.877,13.123,13.123,0,0,1-.91-4.957,16.26,16.26,0,0,1,.687-4.662,11.169,11.169,0,0,1,2.21-4.1,11.6,11.6,0,0,1,3.851-2.92,12.922,12.922,0,0,1,5.67-1.129,14.346,14.346,0,0,1,3.311.368,8.335,8.335,0,0,1,2.724,1.155,5.833,5.833,0,0,1,1.865,1.986,5.7,5.7,0,0,1,.689,2.871,6.314,6.314,0,0,1-.54,2.65A5.813,5.813,0,0,1,143.4,372.7a6.327,6.327,0,0,1-2.184,1.227,8.511,8.511,0,0,1-2.724.419,12.8,12.8,0,0,1-2.773-.321,9.9,9.9,0,0,1-2.478-.859Z" transform="translate(-124.412 -361.678)" fill="#fff"/></g></g><g transform="translate(101.392 400.752)"><path d="M77.313,385.555a2.9,2.9,0,0,1,3.038-2.93,2.834,2.834,0,0,1,2.179.892l-.533.517a2.119,2.119,0,0,0-1.613-.681,2.2,2.2,0,1,0,0,4.405A2.126,2.126,0,0,0,82,387.07l.533.515a2.841,2.841,0,0,1-2.187.9A2.9,2.9,0,0,1,77.313,385.555Z" transform="translate(-77.313 -382.625)" fill="#fff"/><g transform="translate(6.791 0.065)"><path d="M86.391,382.665v5.73h-.818v-2.554h-3.29V388.4h-.82v-5.73h.82v2.464h3.29v-2.464Z" transform="translate(-81.464 -382.665)" fill="#fff"/></g><g transform="translate(13.839 0.065)"><path d="M85.773,382.665h.82v5.73h-.82Z" transform="translate(-85.773 -382.665)" fill="#fff"/></g><g transform="translate(16.784 0.065)"><path d="M91.406,388.4l-1.237-1.76c-.115.008-.237.016-.362.016H88.393V388.4h-.82v-5.73h2.235c1.49,0,2.392.752,2.392,2a1.809,1.809,0,0,1-1.26,1.809L92.3,388.4Zm-.026-3.733c0-.82-.548-1.286-1.595-1.286H88.393v2.58h1.392C90.832,385.956,91.38,385.48,91.38,384.662Z" transform="translate(-87.573 -382.665)" fill="#fff"/></g><g transform="translate(22.675)"><path d="M91.174,385.555a3.047,3.047,0,1,1,3.054,2.931A2.912,2.912,0,0,1,91.174,385.555Zm5.271,0a2.227,2.227,0,1,0-2.217,2.2A2.151,2.151,0,0,0,96.445,385.555Z" transform="translate(-91.174 -382.625)" fill="#fff"/></g><g transform="translate(30.419 0.065)"><path d="M100.534,384.662c0,1.245-.9,2-2.392,2H96.728V388.4h-.82v-5.73h2.235C99.633,382.665,100.534,383.418,100.534,384.662Zm-.82,0c0-.82-.548-1.286-1.595-1.286H96.728v2.572H98.12C99.167,385.948,99.715,385.48,99.715,384.662Z" transform="translate(-95.908 -382.665)" fill="#fff"/></g><g transform="translate(36.653 0.065)"><path d="M103.55,388.4l-1.235-1.76c-.116.008-.239.016-.362.016h-1.415V388.4h-.82v-5.73h2.235c1.49,0,2.392.752,2.392,2a1.808,1.808,0,0,1-1.263,1.809l1.359,1.924Zm-.025-3.733c0-.82-.548-1.286-1.6-1.286h-1.39v2.58h1.39C102.978,385.956,103.526,385.48,103.526,384.662Z" transform="translate(-99.719 -382.665)" fill="#fff"/></g><g transform="translate(42.14 0.065)"><path d="M107.593,386.962h-3.046l-.63,1.433h-.844l2.6-5.73h.81l2.6,5.73h-.86Zm-.288-.654L106.07,383.5l-1.237,2.809Z" transform="translate(-103.073 -382.665)" fill="#fff"/></g><g transform="translate(48.857)"><path d="M107.179,385.555a2.9,2.9,0,0,1,3.036-2.93,2.834,2.834,0,0,1,2.179.892l-.533.517a2.117,2.117,0,0,0-1.611-.681,2.2,2.2,0,1,0,0,4.405,2.125,2.125,0,0,0,1.611-.689l.533.515a2.841,2.841,0,0,1-2.187.9A2.9,2.9,0,0,1,107.179,385.555Z" transform="translate(-107.179 -382.625)" fill="#fff"/></g><g transform="translate(54.753 0.065)"><path d="M112.748,383.377h-1.965v-.712h4.741v.712h-1.966V388.4h-.81Z" transform="translate(-110.783 -382.665)" fill="#fff"/></g><g transform="translate(60.791 0.065)"><path d="M114.474,382.665h.82v5.73h-.82Z" transform="translate(-114.474 -382.665)" fill="#fff"/></g><g transform="translate(63.267)"><path d="M115.988,385.555a2.9,2.9,0,0,1,3.038-2.93,2.837,2.837,0,0,1,2.179.892l-.533.517a2.121,2.121,0,0,0-1.613-.681,2.2,2.2,0,1,0,0,4.405,2.128,2.128,0,0,0,1.613-.689l.533.515a2.843,2.843,0,0,1-2.187.9A2.9,2.9,0,0,1,115.988,385.555Z" transform="translate(-115.988 -382.625)" fill="#fff"/></g><g transform="translate(72.199)"><path d="M121.448,385.555a2.9,2.9,0,0,1,3.038-2.93,2.837,2.837,0,0,1,2.179.892l-.535.517a2.113,2.113,0,0,0-1.611-.681,2.2,2.2,0,1,0,0,4.405,2.12,2.12,0,0,0,1.611-.689l.535.515a2.843,2.843,0,0,1-2.187.9A2.9,2.9,0,0,1,121.448,385.555Z" transform="translate(-121.448 -382.625)" fill="#fff"/></g><g transform="translate(77.982 0.065)"><path d="M129.5,386.962h-3.046l-.63,1.433h-.844l2.6-5.73h.81l2.6,5.73h-.86Zm-.288-.654L127.98,383.5l-1.237,2.809Z" transform="translate(-124.983 -382.665)" fill="#fff"/></g><g transform="translate(85.245 0.065)"><path d="M133.256,388.4l-1.237-1.76c-.116.008-.239.016-.362.016h-1.415V388.4h-.82v-5.73h2.235c1.49,0,2.392.752,2.392,2a1.808,1.808,0,0,1-1.261,1.809l1.358,1.924Zm-.026-3.733c0-.82-.548-1.286-1.6-1.286h-1.391v2.58h1.391C132.682,385.956,133.23,385.48,133.23,384.662Z" transform="translate(-129.423 -382.665)" fill="#fff"/></g><g transform="translate(91.601 0.065)"><path d="M137.468,387.684v.712h-4.16v-5.73h4.046v.712h-3.226v1.76H137v.7h-2.874v1.85Z" transform="translate(-133.308 -382.665)" fill="#fff"/></g></g><g transform="translate(39.446 364.563)"><path d="M101.626,406.782a15.7,15.7,0,0,1-4.957,2.773A20.03,20.03,0,0,1,89.9,410.61a20.578,20.578,0,0,1-5.325-.687,15.9,15.9,0,0,1-5.006-2.38,23.191,23.191,0,0,1-4.711-4.515,37.685,37.685,0,0,1-4.392-7.141l-5.693-11.729h-2.7L68.45,397.6q.636,1.374,1.52,2.994t1.916,3.165a22.721,22.721,0,0,0,2.208,2.822,10.474,10.474,0,0,0,2.454,2.012l-.1.2a10.431,10.431,0,0,1-2.478-2.061,26.055,26.055,0,0,1-2.258-2.871,36.865,36.865,0,0,1-1.939-3.165q-.883-1.62-1.521-2.994l-6.429-13.545H55.739a17.658,17.658,0,0,0-1.031,4.589A10.74,10.74,0,0,0,55,392.4a5.789,5.789,0,0,0,1.374,2.528,4.426,4.426,0,0,0,2.258,1.251v.049h-10.8v-.049a14.465,14.465,0,0,0,3.311-3.951,58.423,58.423,0,0,0,4.247-8.073h-4.76v-.147h4.808l.64-1.472,2.356-5.546-2.454-5.153a19.108,19.108,0,0,0-3.484-5.251,22.879,22.879,0,0,0-4.221-3.533,9.368,9.368,0,0,0-3.435.613,8.653,8.653,0,0,0-2.724,1.669,7.947,7.947,0,0,0-1.816,2.429,6.585,6.585,0,0,0-.663,2.9A8.522,8.522,0,0,0,40.3,374.1a7.5,7.5,0,0,0,1.816,2.577,7.984,7.984,0,0,0,2.724,1.619,9.946,9.946,0,0,0,3.386.564v.2a9.968,9.968,0,0,1-3.681-.638,7.789,7.789,0,0,1-2.748-1.791,8.132,8.132,0,0,1-1.742-2.675,8.709,8.709,0,0,1-.613-3.288,6.949,6.949,0,0,1,2.282-5.374,11.094,11.094,0,0,1,5.814-2.675,15.627,15.627,0,0,0-3.286-1.448,9.963,9.963,0,0,0-2.8-.466v-.2a9.914,9.914,0,0,1,2.92.515,16.769,16.769,0,0,1,3.411,1.546,16.689,16.689,0,0,1,2.258-.147,24.636,24.636,0,0,1,6.306.736,15.317,15.317,0,0,1,5.128,2.454,20.07,20.07,0,0,1,4.368,4.491,45.849,45.849,0,0,1,3.975,6.8l9.617,19.876a39.005,39.005,0,0,0,3.363,5.914,20.784,20.784,0,0,0,3.435,3.852,11,11,0,0,0,7.337,2.748,12.583,12.583,0,0,0,4.515-.785,16.455,16.455,0,0,0,3.484-1.767Zm-41.96-32.734q-1.57-2.846-2.922-4.907a22.1,22.1,0,0,0-2.648-3.386,10.02,10.02,0,0,0-2.626-1.988,6.874,6.874,0,0,0-2.9-.711,21.708,21.708,0,0,1,4.2,3.583,20.9,20.9,0,0,1,3.411,5.1l2.356,4.957Zm-1.129,3.19-2.208,5.349c-.1.262-.2.507-.294.736a5.776,5.776,0,0,0-.247.687h5.989Zm2.994.294-1.719-3.239-1.127,2.7,3.337,7.018h2.65Z" transform="translate(-39.446 -360.503)" fill="#fff"/></g><g transform="translate(84.325 384.218)"><path d="M70.973,380.544a4.133,4.133,0,0,1-1.515-.29,4.021,4.021,0,0,1-1.305-.823,4.265,4.265,0,0,1-.919-1.273,3.85,3.85,0,0,1-.353-1.677,3.7,3.7,0,0,1,.353-1.611,4.055,4.055,0,0,1,.919-1.256,4.244,4.244,0,0,1,2.82-1.1,3.814,3.814,0,0,1,1.451.29,4.09,4.09,0,0,1,1.256.806,3.97,3.97,0,0,1,.887,1.256,3.834,3.834,0,0,1,.339,1.611,3.992,3.992,0,0,1-.339,1.677,4.176,4.176,0,0,1-.887,1.273,3.964,3.964,0,0,1-1.256.823A3.816,3.816,0,0,1,70.973,380.544Z" transform="translate(-66.88 -372.518)" fill="#fff"/></g><g transform="translate(41.331 364.344)"><path d="M75.877,409.167c-4.438-1.9-10.146-14.469-15.183-25.557-2.46-5.416-4.785-10.533-6.6-13.558a21.368,21.368,0,0,0-6.741-6.854,16.306,16.306,0,0,0-6.753-2.339l.034-.489a16.464,16.464,0,0,1,6.985,2.415,21.884,21.884,0,0,1,6.9,7.015c1.832,3.051,4.162,8.179,6.629,13.609,5,11.006,10.666,23.481,14.931,25.31Z" transform="translate(-40.598 -360.369)" fill="#fff"/></g></g></g></svg>