<svg xmlns="http://www.w3.org/2000/svg" width="200" height="200" viewBox="0 0 200 200"><g transform="translate(-1180 -328)"><rect width="200" height="200" transform="translate(1180 328)" fill="#070707" opacity="0"/><g transform="translate(1125.827 231.643)"><g transform="translate(93.173 227.807)"><path d="M17.238,236.866H14.173v-7H16.9a3.9,3.9,0,0,1,1.226.171,1.674,1.674,0,0,1,.766.46,1.789,1.789,0,0,1,.48,1.222,1.443,1.443,0,0,1-.52,1.222,2.309,2.309,0,0,1-.261.175c-.047.024-.13.062-.25.115a1.836,1.836,0,0,1,1.037.587,1.632,1.632,0,0,1,.386,1.106,1.882,1.882,0,0,1-.5,1.292A2.635,2.635,0,0,1,17.238,236.866Zm-1.883-4.1h1.5q1.282,0,1.282-.871a.82.82,0,0,0-.311-.721,1.674,1.674,0,0,0-.961-.22H15.355Zm0,3h1.852a1.972,1.972,0,0,0,1-.205.826.826,0,0,0,.345-.776q0-.931-1.492-.931h-1.7Z" transform="translate(-14.173 -229.696)" fill="#fff"/><path d="M34.573,229.866v1.111H30.838v1.853h3.355v1.052H30.838v1.873h3.855v1.111H29.656v-7Z" transform="translate(-20.483 -229.696)" fill="#fff"/><path d="M44.583,235.274l-.7,1.592H42.62l3.084-7h1.263l3.084,7H48.788l-.7-1.592Zm3.024-1.092L46.335,231.3l-1.271,2.884Z" transform="translate(-25.766 -229.696)" fill="#fff"/><path d="M61.572,235.264a1.792,1.792,0,0,0,2.6,0,2.262,2.262,0,0,0,.48-1.523v-3.875h1.182v3.926a3.114,3.114,0,0,1-.832,2.328,3.193,3.193,0,0,1-4.265,0,3.114,3.114,0,0,1-.832-2.328v-3.926h1.182v3.875A2.262,2.262,0,0,0,61.572,235.264Z" transform="translate(-32.812 -229.696)" fill="#fff"/><path d="M78.782,230.948v5.918H77.6v-5.918H75.477v-1.082H80.9v1.082Z" transform="translate(-39.156 -229.696)" fill="#fff"/><path d="M92.381,236.866h-1.2V234.1l-2.6-4.236h1.292l1.912,3.185,1.913-3.185h1.292l-2.6,4.236Z" transform="translate(-44.494 -229.696)" fill="#fff"/><path d="M114.353,230.67a1.551,1.551,0,0,0-.845.21.7.7,0,0,0-.331.636.74.74,0,0,0,.331.652,5,5,0,0,0,1.407.485,3.861,3.861,0,0,1,1.623.731,1.733,1.733,0,0,1,.545,1.387,1.839,1.839,0,0,1-.69,1.487,2.758,2.758,0,0,1-1.813.571,4.258,4.258,0,0,1-2.914-1.132l.742-.891a3.335,3.335,0,0,0,2.2.921,1.5,1.5,0,0,0,.906-.245.769.769,0,0,0,.335-.651.731.731,0,0,0-.316-.631,3.326,3.326,0,0,0-1.087-.411,9.5,9.5,0,0,1-1.171-.341,2.629,2.629,0,0,1-.711-.405,1.692,1.692,0,0,1-.621-1.442,1.755,1.755,0,0,1,.706-1.5,2.839,2.839,0,0,1,1.747-.526,4.206,4.206,0,0,1,1.332.22,3.5,3.5,0,0,1,1.142.621l-.631.892a2.408,2.408,0,0,0-.841-.461A3.255,3.255,0,0,0,114.353,230.67Z" transform="translate(-53.904 -229.579)" fill="#fff"/><path d="M128.335,235.264a1.792,1.792,0,0,0,2.6,0,2.259,2.259,0,0,0,.481-1.523v-3.875H132.6v3.926a3.114,3.114,0,0,1-.832,2.328,3.193,3.193,0,0,1-4.265,0,3.114,3.114,0,0,1-.832-2.328v-3.926h1.182v3.875A2.262,2.262,0,0,0,128.335,235.264Z" transform="translate(-60.02 -229.696)" fill="#fff"/><path d="M148.083,230.477a2.315,2.315,0,0,1,.731,1.883,2.231,2.231,0,0,1-.746,1.863,3.66,3.66,0,0,1-2.287.591h-1.242v2.053h-1.182v-7h2.4A3.6,3.6,0,0,1,148.083,230.477Zm-.837,2.889a1.544,1.544,0,0,0,.356-1.1,1.14,1.14,0,0,0-.451-1.026,2.6,2.6,0,0,0-1.412-.3h-1.2v2.8h1.371A1.827,1.827,0,0,0,147.246,233.366Z" transform="translate(-66.819 -229.696)" fill="#fff"/><path d="M163.193,230.477a2.315,2.315,0,0,1,.731,1.883,2.231,2.231,0,0,1-.746,1.863,3.66,3.66,0,0,1-2.288.591h-1.242v2.053h-1.182v-7h2.4A3.6,3.6,0,0,1,163.193,230.477Zm-.837,2.889a1.544,1.544,0,0,0,.356-1.1,1.139,1.139,0,0,0-.452-1.026,2.593,2.593,0,0,0-1.411-.3h-1.2v2.8h1.371A1.827,1.827,0,0,0,162.356,233.366Z" transform="translate(-72.977 -229.696)" fill="#fff"/><path d="M173.576,236.866v-7h1.182v5.878h3.194v1.122Z" transform="translate(-79.135 -229.696)" fill="#fff"/><path d="M186.692,229.866h1.182v7h-1.182Z" transform="translate(-84.48 -229.696)" fill="#fff"/><path d="M200.432,229.866v1.111H196.7v1.853h3.355v1.052H196.7v1.873h3.855v1.111h-5.037v-7Z" transform="translate(-88.076 -229.696)" fill="#fff"/><path d="M215.707,232.14a2.032,2.032,0,0,1-1.513,2.183l1.833,2.543h-1.5l-1.673-2.353H211.3v2.353h-1.182v-7h2.6a3.773,3.773,0,0,1,2.293.54A2.066,2.066,0,0,1,215.707,232.14Zm-1.572.991a1.249,1.249,0,0,0,.36-1,1.065,1.065,0,0,0-.37-.941,2.466,2.466,0,0,0-1.322-.255h-1.5v2.5h1.472A2.164,2.164,0,0,0,214.134,233.13Z" transform="translate(-94.027 -229.696)" fill="#fff"/></g><g transform="translate(93.173 157.357)"><g transform="translate(0 0)"><path d="M26.111,179.225c-2.573.111-3.073.5-3.073,3.257v19.249c0,2.369.389,2.7,2.388,2.7h1.85c3.5,0,6.163-3.406,6.9-8.459h.87c-.074.87-.111,2.036-.111,3.332,0,1.185.037,3.628.259,6-2.573-.111-6.127-.111-8.68-.111-2.536,0-8.218,0-12.346.111v-.759c2.406-.11,2.832-.5,2.832-3.257v-18.8c0-2.757-.444-3.146-2.832-3.257v-.758c1.277.074,3.554.111,5.978.111,2.2,0,4.553-.037,5.96-.111Z" transform="translate(-14.173 -178.393)" fill="#fff"/><path d="M81.486,202.084c.7,1.814,1.666,2.388,2.388,2.424v.759c-1.5-.074-3.683-.111-5.757-.111-2.35,0-4.516.037-5.774.111v-.759c1.814-.074,2.665-.351,2.665-1.387a5.3,5.3,0,0,0-.444-1.8l-2.277-6.218H64.051l-1.018,2.628a12.281,12.281,0,0,0-1.037,4.2c0,2,1.3,2.517,3.369,2.572v.759c-1.721-.074-3.146-.111-4.72-.111-1.11,0-2.147.037-2.906.111v-.759c1.11-.2,2.221-1.185,3.294-3.979l8.625-22.173c.407.037.851.056,1.314.056.444,0,.907-.019,1.314-.056ZM68.253,184.149l-3.924,10.2H72.01Z" transform="translate(-28.499 -178.357)" fill="#fff"/><path d="M135.366,191.589c0,8.255-5.553,13.715-15.085,13.715-1.185,0-3.831-.111-5.534-.111-2.24,0-4.553.037-5.83.111v-.759c2.406-.11,2.832-.5,2.832-3.257v-18.8c0-2.757-.444-3.146-2.832-3.257v-.758c1.036.056,2.795.13,4.571.13.389,0,.8-.019,1.185-.019,1.814-.037,4.443-.111,5.96-.111C130.609,178.467,135.366,183.131,135.366,191.589Zm-17.583-9.18v18.953c0,2.647.5,3.258,2.851,3.258,6.386,0,8.44-4.627,8.44-12.882,0-8.5-2.369-12.586-8.477-12.586C118.283,179.152,117.783,179.8,117.783,182.409Z" transform="translate(-45.327 -178.393)" fill="#fff"/><path d="M184.363,178.44v.758c-1.092.426-2.24,1.629-3.628,4.368l-4.479,8.884v8.829c0,2.758.444,3.147,2.832,3.257v.759c-1.351-.074-3.72-.111-5.831-.111-2.332,0-4.646.037-5.886.111v-.759c2.424-.11,2.851-.5,2.851-3.257v-6.441l-7.292-13.492c-.926-1.685-1.666-2.11-2.2-2.11v-.8c1.332.11,2.739.185,4.479.185,2.222,0,4.961-.074,7.126-.185v.8c-1.518,0-2.869.148-2.869,1.13a1.928,1.928,0,0,0,.24.832l5.775,11.068,2.943-5.886a11.286,11.286,0,0,0,1.5-4.664c0-1.795-1.24-2.461-3.165-2.517v-.758c1.721.074,3.146.11,4.72.11C182.587,178.55,183.6,178.514,184.363,178.44Z" transform="translate(-62.364 -178.384)" fill="#fff"/></g></g><g transform="translate(93.314 193.441)"><g transform="translate(27.16)"><path d="M288.148,201.271c.679,1.752,1.608,2.3,2.306,2.341v.733c-1.448-.071-3.557-.107-5.559-.107-2.27,0-4.361.036-5.577.107v-.733c1.752-.071,2.574-.34,2.574-1.341a5.122,5.122,0,0,0-.429-1.733l-2.2-6.006h-7.954l-.983,2.538a11.849,11.849,0,0,0-1,4.057c0,1.931,1.251,2.432,3.253,2.485v.733c-1.663-.071-3.038-.107-4.558-.107-1.072,0-2.073.036-2.806.107v-.733c1.072-.2,2.145-1.144,3.181-3.843l8.329-21.412c.394.036.822.053,1.269.053.429,0,.876-.018,1.269-.053Zm-12.78-17.319-3.789,9.848H279Z" transform="translate(-265.216 -178.357)" fill="#fff"/><path d="M327.811,179.2c-2.485.107-2.968.483-2.968,3.146v18.588c0,2.287.375,2.609,2.306,2.609h1.787c3.378,0,5.952-3.288,6.667-8.168h.84c-.071.84-.107,1.966-.107,3.217,0,1.144.036,3.5.251,5.791-2.485-.107-5.916-.107-8.383-.107-2.449,0-7.936,0-11.922.107v-.733c2.324-.108,2.735-.483,2.735-3.146V182.345c0-2.663-.429-3.039-2.735-3.146v-.733c1.233.071,3.432.108,5.773.108,2.127,0,4.4-.036,5.756-.108Z" transform="translate(-283.116 -178.395)" fill="#fff"/><path d="M394.046,179.2c-2.342.107-2.753.483-2.753,3.146V200.5c0,2.664.429,3.038,2.753,3.146v.733c-1.359-.071-3.629-.107-5.756-.107-2.341,0-4.54.036-5.791.107v-.733c2.5-.108,2.967-.483,2.967-3.146V181.452l-8.811,22.984h-.59l-9.884-23.611v17.552c0,4.022.322,4.952,3.557,5.273v.733c-.948-.071-2.645-.107-3.968-.107-1.144,0-2.413.036-3.181.107v-.733c2.341-.322,2.752-1.287,2.752-4.826V182.345c0-2.663-.429-3.039-2.752-3.146v-.733c.768.071,2.037.108,3.181.108,2.127,0,4.2-.036,5.791-.108l7.382,17.8,6.756-17.694h2.591c2.127,0,4.4-.036,5.756-.108Z" transform="translate(-299.347 -178.395)" fill="#fff"/></g><path d="M235.908,203.538c-3.213-.036-3.9-.424-3.923-3.177l0,.007s-.448-8.03.6-10c.481-.9,1.711-.423,1.551.342-.134.642-.271,2.215-.344,3.132h.144c8.656,0,10.968-4.66,10.968-8.209,0-4.265-3.333-7.24-10.161-7.24-.932,0-3.37.071-5.771.071-2.061,0-4.337-.036-5.573-.108v.735c2.311.108,2.741.484,2.741,3.154v18.208c0,2.671-.412,3.047-2.741,3.155v.735c1.594-.053,3.709-.108,5.825-.108,2.616,0,5.179.055,6.684.108Zm-5.2-17.592c-.11-.067-.345.942-.44,1.052s-1.1-.325-1.366-.488.438-.6.34-.749-1.12.572-1.7.508-.919-.3-.55-.59c3.629-3.1,6.122.909,6.26,1.207s.314-1.088.349-1.331-.069-.405-.17.033-.377.49-.429.323-.468-1.463-.525-1.68.626-.6.579-.755-.612.375-.74.375a5.141,5.141,0,0,1-.753-1.755c0-.292.577.038.6-.149s-.851-.437-.957-.49a5.032,5.032,0,0,1-.492-1.094c-.231-.54-.466-.924.107-.7,3.445,1.342,3.7,5.051,3.65,6.618-.007.184.162.251.243.1,2.336-4.453,5.869-2.791,6.146-2.626s-1.041.834-1.183.926-1.022-.539-1.1-.288.427.164.431.52-1.186.974-1.354,1.032-.332-1.02-.492-.922.192,1,.132,1.175a6.962,6.962,0,0,1-1.345.962c-.207.116.038-.938-.031-.965s-.213.166-.316.758c-.218,1.248.591.288,1.226.4a5.156,5.156,0,0,1,4.281,3.623c.247.645-.99-.051-1.261-.155s-.409-1.293-.568-1.268.1.722-.053.9-1.107-.4-1.312-.467.212-1.189.072-1.243-.408,1.09-.586,1.057c-.134-.024-1.386-.373-1.53-.648s.459-.508.394-.692c-.058-.166-.116-.2-1.2.564a.5.5,0,0,1-.634-.025,1.364,1.364,0,0,0-1.326-.239.373.373,0,0,1-.381-.247l-.646-1.365c-.233.037.08.748-.008.861s-1.255-.763-1.441-.835S230.824,186.012,230.713,185.945Z" transform="translate(-223.399 -178.357)" fill="#fff"/></g></g></g></svg>