<svg xmlns="http://www.w3.org/2000/svg" width="200" height="200" viewBox="0 0 200 200"><g transform="translate(-960 -108)"><rect width="200" height="200" transform="translate(960 108)" opacity="0"/><g transform="translate(879.492 -462.135)"><g transform="translate(110.508 695.883)"><path d="M116.449,736.073c-1.231-.006-2.041.638-2.037,1.626,0,.916.578,1.472,1.872,1.833l1.561.433c2.65.7,4.082,2.246,4.086,4.6,0,2.771-2.4,4.706-5.535,4.712a7.5,7.5,0,0,1-5.889-2.748l2.511-1.841a4.674,4.674,0,0,0,3.4,1.634c1.254-.01,2.034-.672,2.076-1.67.047-.972-.572-1.479-1.991-1.9l-1.383-.406c-2.714-.785-4.161-2.334-4.165-4.687,0-2.637,2.256-4.6,5.258-4.613a6.778,6.778,0,0,1,5.66,2.857l-2.458,1.678A4.112,4.112,0,0,0,116.449,736.073Z" transform="translate(-110.508 -733.047)" fill="#fff"/><path d="M143.045,742.812h-7.931v6.359h-3.458V733.429h3.458V739.7h7.97v-6.275h3.458v15.743h-3.458Z" transform="translate(-117.174 -733.167)" fill="#fff"/><path d="M166.769,749.306c-5.622,0-8.937-3.67-8.937-8.117,0-4.418,3.335-8.068,8.937-8.068s8.966,3.651,8.966,8.108C175.735,745.636,172.381,749.306,166.769,749.306Zm0-13.132a5.042,5.042,0,1,0,5.389,5.055A5.087,5.087,0,0,0,166.769,736.174Z" transform="translate(-125.424 -733.07)" fill="#fff"/><path d="M198.379,749.429l-4.53-5.98H191.9v5.723h-3.458V733.429H193.8c3.645,0,5.919,1.852,5.919,5.012a4.485,4.485,0,0,1-2.542,4.388l4.366,5.285Zm-6.48-9.047h2.177c1.307,0,2.115-.646,2.115-1.94,0-1.263-.807-1.924-2.115-1.924H191.9Z" transform="translate(-135.071 -733.167)" fill="#fff"/><path d="M214.127,746.028h5.905v3.143h-9.344V733.429h9.324v3.137h-5.885v3.246l5.67.016v2.891h-5.67Z" transform="translate(-142.083 -733.167)" fill="#fff"/><path d="M234.873,749.172h-3.4v-12.6H227.2l-.019-3.142h11.949v3.142h-4.261Z" transform="translate(-147.283 -733.167)" fill="#fff"/><path d="M251.318,746.028h5.905v3.143h-9.344V733.429H257.2v3.137h-5.885v3.246l5.669.016v2.891h-5.669Z" transform="translate(-153.805 -733.167)" fill="#fff"/><path d="M274,749.3c-5.1,0-8.778-3.419-8.778-8.127,0-4.679,3.7-8.078,8.778-8.078a10.555,10.555,0,0,1,7.843,3.747l-2.574,1.9a6.814,6.814,0,0,0-5.187-2.554,5.018,5.018,0,1,0,0,10.021,6.766,6.766,0,0,0,5.212-2.637l2.569,1.943A10.518,10.518,0,0,1,274,749.3Z" transform="translate(-159.272 -733.061)" fill="#fff"/><path d="M304.593,742.812h-7.93v6.359H293.2V733.429h3.458V739.7h7.97v-6.275h3.458v15.743h-3.458Z" transform="translate(-168.091 -733.167)" fill="#fff"/><g transform="translate(43.816 24.167)"><path d="M177.689,769.43a1.811,1.811,0,1,0,0,3.615,2.4,2.4,0,0,0,1.433-.445v-.855H177.35l.007-1.027h3.007l.008,2.267a3.878,3.878,0,0,1-2.682,1.167,2.921,2.921,0,1,1,0-5.815,3.79,3.79,0,0,1,2.393.915l-.832.766A2.4,2.4,0,0,0,177.689,769.43Z" transform="translate(-174.49 -768.337)" fill="#fff"/><path d="M195.268,774.2l-1.626-2.147h-.7v2.054H191.7v-5.651h1.923c1.308,0,2.125.665,2.125,1.8a1.61,1.61,0,0,1-.913,1.575l1.568,1.9Zm-2.326-3.247h.782c.468,0,.759-.233.759-.7s-.29-.691-.759-.691h-.782Z" transform="translate(-179.915 -768.375)" fill="#fff"/><path d="M208.909,774.155a2.92,2.92,0,1,1,3.219-2.9A2.933,2.933,0,0,1,208.909,774.155Zm0-4.714a1.81,1.81,0,1,0,1.935,1.815A1.826,1.826,0,0,0,208.909,769.441Z" transform="translate(-184.327 -768.34)" fill="#fff"/><path d="M226.113,774.182a2.541,2.541,0,0,1-2.725-2.843v-2.883h1.244v2.883c0,1.073.464,1.693,1.481,1.693s1.481-.62,1.481-1.686v-2.891h1.258v2.891A2.556,2.556,0,0,1,226.113,774.182Z" transform="translate(-189.902 -768.375)" fill="#fff"/><path d="M242.142,772.053h-.753v2.054h-1.241v-5.651h1.923c1.309,0,2.125.665,2.125,1.8S243.458,772.053,242.142,772.053Zm.029-2.488h-.782v1.387h.782c.469,0,.759-.233.759-.7S242.64,769.565,242.171,769.565Z" transform="translate(-195.184 -768.375)" fill="#fff"/></g></g><path d="M225.4,646.572c-.267-.651-.568-1.338-.927-2.083-.083-.163-.17-.327-.254-.49a13.842,13.842,0,0,0-1.046-1.543c.114.068.221.147.333.22a184.384,184.384,0,0,0-10.65-16.58c-1.338-1.923-2.6-3.729-3.637-5.3-1.311-1.981-3.562-5.661-3.562-5.661s-2.536,4-4.085,6.293c-3.769,5.568-7.749,11-11.25,16.747q-.742,1.217-1.453,2.454a11.984,11.984,0,0,0-1.378,3.088,9.567,9.567,0,0,0-.28,1.879c-.009.206-.011.412,0,.618a7.128,7.128,0,0,0,.131,1.132,6.16,6.16,0,0,0,1.314,2.8,6.749,6.749,0,0,0,3.6,2.137,9.265,9.265,0,0,0,2.183.251,12.193,12.193,0,0,0,2.949-.382c.338-.084.671-.185,1-.292.45-.147.894-.311,1.33-.5a20.35,20.35,0,0,0,3.7-2.078c.121-.084.233-.18.351-.267.392-.286.784-.573,1.159-.88.214-.175.429-.355.642-.542q.369-.322.742-.623c.073-.06.147-.114.22-.172.177-.14.353-.279.529-.413.091-.069.184-.132.275-.2.16-.117.319-.234.479-.345.1-.071.205-.137.307-.206.15-.1.3-.2.451-.3.107-.068.215-.132.322-.2.147-.09.293-.182.44-.268.11-.064.219-.124.329-.185.145-.082.29-.164.434-.241.112-.06.224-.115.336-.172.142-.073.284-.147.427-.214.114-.055.229-.106.344-.159.139-.064.278-.129.417-.188.116-.05.232-.1.348-.143.137-.056.274-.113.411-.165.116-.044.232-.084.349-.125.136-.049.271-.1.405-.142.117-.039.234-.073.351-.109.133-.041.266-.082.4-.118.117-.033.234-.062.35-.092s.262-.067.392-.1.231-.049.348-.073.256-.053.384-.075.231-.038.347-.055.251-.038.375-.053.23-.025.344-.036.245-.023.367-.032.227-.012.34-.016.24-.009.359-.011c.043,0,.086,0,.129,0s.062,0,.092.006a11.02,11.02,0,0,1,1.146.066l.152.02a9.758,9.758,0,0,1,1.1.2c.046.011.091.024.136.036a8.8,8.8,0,0,1,1.037.336l.118.051a8.288,8.288,0,0,1,.972.476c.032.019.063.04.1.059a8,8,0,0,1,.9.622c.024.019.047.041.07.061a7.814,7.814,0,0,1,.818.776c.016.017.03.036.046.054a8.239,8.239,0,0,1,.727.94c.008.01.014.023.021.034a8.979,8.979,0,0,1,.623,1.114C225.589,647.017,225.489,646.789,225.4,646.572Z" transform="translate(-24.173 0)" fill="#fff"/><path d="M223.6,670.58a7.622,7.622,0,0,0-2.242-1.7,10.245,10.245,0,0,0-4.628-1.027,14.817,14.817,0,0,0-4.888.879,18.466,18.466,0,0,0-3.052,1.4,21.673,21.673,0,0,0-3.677,2.668c-.293.262-.591.512-.89.753h0c-.4.316-.8.606-1.2.885-.114.079-.229.153-.344.229h0q-.48.315-.966.6h0c-.1.056-.192.115-.289.169h0q-.614.341-1.234.629h0c-.087.04-.175.075-.262.114l-.007,0q-.5.223-1.008.412h0c-.118.045-.237.089-.355.13h0c-.38.133-.759.253-1.137.357l-.009,0c-.037.01-.074.023-.111.033h0c-.416.112-.831.2-1.244.278h0c-.113.021-.226.038-.339.057h0q-.481.079-.957.129h0c-.1.011-.209.024-.313.033h0c-.4.033-.8.053-1.2.054l-.049,0c-.256,0-.51-.009-.761-.023-.062,0-.124-.008-.186-.012q-.376-.025-.743-.068l-.1-.011c-.27-.035-.536-.079-.8-.129l-.178-.036c-.251-.051-.5-.109-.743-.175l-.043-.011c-.256-.07-.506-.151-.753-.236l-.164-.058a10.872,10.872,0,0,1-1.411-.63l-.143-.078c-.222-.123-.439-.252-.649-.39l-.037-.026c-.2-.132-.39-.272-.576-.417l-.121-.094c-.192-.155-.38-.316-.559-.486-.02-.018-.039-.039-.059-.058q-.243-.235-.468-.488l-.094-.106q-.239-.277-.457-.575c-.022-.031-.042-.063-.064-.094q-.19-.27-.36-.556c-.023-.038-.047-.076-.07-.115q-.184-.322-.342-.661c-.019-.043-.037-.086-.057-.129q-.137-.307-.252-.629c-.014-.038-.029-.076-.042-.115q-.123-.363-.217-.743c-.014-.053-.025-.108-.038-.162-.053-.232-.1-.469-.137-.711,0-.035-.012-.069-.017-.1-.038-.267-.063-.542-.08-.82,0-.064-.006-.129-.009-.194-.012-.265-.015-.534-.008-.809,0-.024,0-.047,0-.071.01-.294.036-.594.068-.9.008-.073.017-.147.027-.22.039-.31.086-.623.149-.944h0l-.02.058a21.015,21.015,0,0,0,1.5,17.593,22.531,22.531,0,0,0,19.654,11.542l.142,0a22.516,22.516,0,0,0,18.906-10.522c.36-.587.694-1.19,1-1.811C226.365,677.139,225.826,673.06,223.6,670.58Z" transform="translate(-22.343 -15.904)" fill="#fff"/></g></g></svg>