<svg xmlns="http://www.w3.org/2000/svg" xmlns:xlink="http://www.w3.org/1999/xlink" width="200" height="200" viewBox="0 0 200 200"><defs><clipPath id="a"><rect width="150" height="116.46" fill="#fff"/></clipPath></defs><g transform="translate(-292 -548)"><rect width="200" height="200" transform="translate(292 548)" fill="#070707" opacity="0"/><g transform="translate(317 590)"><g clip-path="url(#a)"><path d="M370.532,858.282l-1.439-1.685,3.851-3.286,1.279,1.5a2.83,2.83,0,0,1,.482.754,1.226,1.226,0,0,1,.107.638,1.3,1.3,0,0,1-.447.838,1.042,1.042,0,0,1-.916.287,1.719,1.719,0,0,1-.219-.06c-.035-.015-.095-.043-.181-.084a1.334,1.334,0,0,1,.164.846,1.183,1.183,0,0,1-.428.731,1.36,1.36,0,0,1-.945.331,1.905,1.905,0,0,1-1.308-.807m-.284-1.548.87,1.019a1.418,1.418,0,0,0,.581.452.6.6,0,0,0,.589-.174q.512-.437-.188-1.258l-.8-.937Zm1.653-1.41.7.826q.6.706,1.081.3a.6.6,0,0,0,.251-.51,1.212,1.212,0,0,0-.33-.631l-.71-.832Z" transform="translate(-332.184 -767.98)" fill="#fff"/><path d="M433.077,917.778a2.778,2.778,0,0,1-2.919-2.425,2.66,2.66,0,0,1,2.389-2.875,2.779,2.779,0,0,1,2.918,2.425,2.657,2.657,0,0,1-2.388,2.875m1.542-2.838a1.775,1.775,0,0,0-1.955-1.624,1.89,1.89,0,0,0-1.661,2,1.775,1.775,0,0,0,1.955,1.624,1.89,1.89,0,0,0,1.661-2" transform="translate(-387.128 -821.222)" fill="#fff"/><path d="M500.254,956.885a1.294,1.294,0,0,0,1.637.931,1.636,1.636,0,0,0,.846-.785l1.385-2.437.743.423-1.4,2.468a2.252,2.252,0,0,1-1.355,1.166,2.312,2.312,0,0,1-2.682-1.525,2.254,2.254,0,0,1,.31-1.761l1.4-2.467.743.422-1.385,2.437a1.63,1.63,0,0,0-.241,1.128" transform="translate(-449.421 -857.608)" fill="#fff"/><path d="M571.351,990.308a1.47,1.47,0,0,1-1.567,1.111l.618,2.181-1.021-.371-.556-2.013-1.054-.383-.582,1.6-.8-.292,1.728-4.758,1.77.643a2.722,2.722,0,0,1,1.425.934,1.494,1.494,0,0,1,.043,1.348m-1.314.286a.9.9,0,0,0,.491-.588.771.771,0,0,0-.02-.731,1.778,1.778,0,0,0-.835-.5l-1.021-.371-.618,1.7,1,.363a1.559,1.559,0,0,0,1,.125" transform="translate(-509.747 -888.646)" fill="#fff"/><path d="M647.416,1010.005l.841.147-.875,4.987-.913-.16-2.186-4.133-.638,3.637-.842-.147.874-4.986.842.148,2.243,4.231Z" transform="translate(-578.524 -908.414)" fill="#fff"/><path d="M733.461,1019.684l-.013.8-2.7-.044-.022,1.34,2.426.039-.012.76-2.426-.039-.022,1.354,2.787.046-.012.8-3.642-.06.082-5.061Z" transform="translate(-656.841 -917.664)" fill="#fff"/><path d="M797.768,1014.563l-.843.145-.859-4.988,1.313-.226,2.046,2.874.966-3.392,1.306-.225.859,4.989-.842.145-.67-3.9-1.146,3.761-.472.081-2.33-3.163Z" transform="translate(-716.46 -907.875)" fill="#fff"/><path d="M892.566,991.9a2.777,2.777,0,0,1-3.544,1.358,2.657,2.657,0,0,1-1.337-3.489,2.775,2.775,0,0,1,3.544-1.358,2.658,2.658,0,0,1,1.337,3.489m-1.719-2.734a1.775,1.775,0,0,0-2.373.909,1.891,1.891,0,0,0,.93,2.428,1.774,1.774,0,0,0,2.373-.91,1.889,1.889,0,0,0-.93-2.427" transform="translate(-798.703 -889.377)" fill="#fff"/><path d="M958.9,951.452a1.3,1.3,0,0,0,1.612-.975,1.635,1.635,0,0,0-.272-1.121l-1.45-2.4.731-.443,1.469,2.43a2.251,2.251,0,0,1,.357,1.751,2.31,2.31,0,0,1-2.64,1.6,2.252,2.252,0,0,1-1.386-1.13l-1.469-2.429.732-.442,1.45,2.4a1.634,1.634,0,0,0,.867.762" transform="translate(-860.265 -851.864)" fill="#fff"/><path d="M1017.172,906.6l2.761,3.27-.653.551-2.761-3.269-1.172.99-.505-.6,3-2.532.5.6Z" transform="translate(-913.357 -814.51)" fill="#fff"/><path d="M1068.687,859.933l-3.831-3.308.557-.646,1.662,1.434,1.642-1.9-1.661-1.434.558-.646,3.832,3.308-.559.647-1.568-1.354-1.642,1.9,1.567,1.353Z" transform="translate(-958.371 -768.087)" fill="#fff"/><path d="M316.194,355.754a1.348,1.348,0,0,1,.1,1.439c-.265.519-.7.791-1.682.537l-1.142-.3c-.976-.25-1.642-.4-2.057.417l-.5.982,2.371,1.208c.75.383.925.3,1.312-.384l.207.109c-.182.307-.456.819-.7,1.292-.272.533-.516,1.036-.642,1.332l-.207-.105c.327-.715.29-.9-.46-1.287l-5.115-2.608c-.75-.382-.925-.3-1.312.384l-.206-.105c.166-.276.441-.789.672-1.243.331-.649.647-1.319.772-1.565.847-1.661,2.053-2.087,3.06-1.574a2.315,2.315,0,0,1,.962,3.015l.085-.116a1.674,1.674,0,0,1,2.095-.752l1.184.28c.663.179.969.189,1.115-.1.128-.252.039-.45-.105-.765Zm-8.029,1.678,2.537,1.293.354-.695c.744-1.46.143-2.172-.8-2.655a1.676,1.676,0,0,0-2.584.839c-.321.629-.214.855.5,1.216" transform="translate(-275.543 -318.673)" fill="#fff"/><path d="M382.382,261.639c1.957,1.693,2.276,3.984.868,5.612-1.438,1.662-3.565,1.764-5.569.031-1.957-1.693-2.276-3.984-.868-5.612,1.438-1.662,3.565-1.764,5.569-.03m-3.982,4.741c1.862,1.612,3.789,1.777,4.72.7.983-1.136.35-2.969-1.462-4.536-1.863-1.612-3.786-1.781-4.717-.7-.987,1.141-.354,2.973,1.458,4.54" transform="translate(-338.351 -234.343)" fill="#fff"/><path d="M457.614,187.093a.762.762,0,0,0,.416-.1c.119-.086.066-.265-.093-.561l.214-.156c.212.349.487.765,1.345,1.943l-.215.156c-.717-.841-1.808-1.436-2.845-.681a1.321,1.321,0,0,0-.35,1.919c.618.849,1.6.655,2.819.568,1.416-.1,2.487-.127,3.22.878a2.194,2.194,0,0,1-.692,3.224,2.69,2.69,0,0,1-1.532.584.792.792,0,0,0-.416.1c-.119.086-.066.265.094.56l-.215.156c-.252-.4-.636-.949-1.6-2.268l.215-.156c.9,1.076,2.054,1.754,3.251.882a1.428,1.428,0,0,0,.307-2.132c-.552-.758-1.455-.758-2.7-.647-1.28.114-2.426.173-3.194-.883a1.972,1.972,0,0,1,.578-2.9,2.176,2.176,0,0,1,1.394-.485" transform="translate(-409.704 -167.648)" fill="#fff"/><path d="M536.412,144.982c-.732.287-1.73.728-2.438,1.04-.636.28-2.032.9-3.057,1.388l-.094-.212c.7-.348.8-.519.456-1.289l-2.32-5.251c-.34-.771-.527-.817-1.26-.531l-.093-.215c1.052-.428,2.448-1.045,3.084-1.326s1.556-.687,2.2-1.006c.167.519.372,1.04.48,1.283a6.263,6.263,0,0,0,.321.643l-.243.108c-.692-1.19-1.035-1.532-2.157-1.037l-.879.388c-.718.317-.81.487-.47,1.257l1.1,2.5.7-.311c.92-.406.507-1.286.366-1.829l.243-.108c.167.464.3.771.4,1.014.086.2.16.349.229.5.153.347.319.693.727,1.477l-.243.108c-.382-.641-.712-1.36-1.632-.953l-.7.31,1.124,2.544c.34.77.528.817,1.246.5l.776-.343c1.323-.585,1.377-1.177.908-2.644l.243-.107c.064.2.177.484.307.779.116.263.381.807.67,1.322" transform="translate(-474.845 -123.822)" fill="#fff"/><path d="M691.027,112.506c1.841.123,2.43.99,2.491,1.925.087,1.313-.9,2.306-2.626,2.419-.344.022-1.04.034-1.986.1-.542.035-1.11.084-1.43.127l-.015-.231c.781-.085.925-.214.871-1.053l-.375-5.726c-.055-.839-.214-.948-1-.931l-.015-.231c.323,0,.9-.025,1.411-.058.727-.048,1.464-.119,1.74-.137,1.617-.106,2.484.59,2.553,1.656a2.1,2.1,0,0,1-1.621,2.121Zm-2-2.513.171,2.609.778-.051c1.358-.089,1.638-.99,1.573-1.993-.074-1.133-.574-1.688-1.73-1.613-.7.045-.844.253-.792,1.048m3.331,4.463c-.077-1.172-.713-1.816-2.178-1.72l-.97.064.191,2.919c.053.805.215.948.93.9,1.51-.1,2.112-.868,2.027-2.164" transform="translate(-618.248 -97.827)" fill="#fff"/><path d="M787.313,117.647c-.772-.152-1.85-.318-2.615-.436-.687-.106-2.2-.338-3.324-.477l.035-.229c.782.086.951-.008,1.079-.84l.873-5.676c.128-.833,0-.974-.776-1.126l.036-.226c1.118.207,2.626.439,3.313.545s1.682.259,2.4.33c-.138.528-.246,1.077-.286,1.34a5.97,5.97,0,0,0-.076.715l-.263-.041c.057-1.375-.048-1.848-1.259-2.035l-.95-.146c-.776-.119-.945-.025-1.073.807l-.415,2.7.76.117c.994.153,1.12-.812,1.294-1.345l.262.041c-.109.481-.165.809-.205,1.072-.033.212-.053.381-.079.549-.057.374-.105.756-.183,1.636l-.263-.041c.023-.745.132-1.529-.862-1.683l-.76-.116-.423,2.748c-.128.833,0,.973.781,1.093l.838.129c1.43.22,1.795-.251,2.189-1.74l.262.041a8.336,8.336,0,0,0-.16.821c-.044.285-.114.886-.147,1.476" transform="translate(-703.237 -97.773)" fill="#fff"/><path d="M873.783,150.56c-.008.632.241.887.461.99l-.088.214c-.285-.141-.73-.336-1.138-.5-.554-.228-1.071-.428-1.383-.532l.088-.215c.526.192.8.212.921-.086a1.61,1.61,0,0,0,.081-.554l.063-2.028-2.584-1.061-.905.955a2.724,2.724,0,0,0-.575.791c-.192.466.061.759.666,1.026l-.088.215c-.4-.189-.845-.384-1.221-.539a8.534,8.534,0,0,0-.813-.3l.088-.215c.3.051.714-.042,1.224-.585l5.188-5.455.173.071Zm-.87-6.648-2.542,2.691,2.427,1Z" transform="translate(-780.541 -128.412)" fill="#fff"/><path d="M976.716,179.635c-.66-.426-.914-.322-1.4.369l-2.012,2.836a4.835,4.835,0,0,1-1.8,1.724,2.4,2.4,0,0,1-2.351-.345,2.759,2.759,0,0,1-1.222-1.635c-.188-.915.049-1.551.959-2.836l2.1-2.96c.486-.686.435-.868-.19-1.353l.135-.183c.254.208.7.537,1.186.883.438.31.914.635,1.221.82l-.134.189c-.664-.43-.852-.418-1.339.269l-2.215,3.121c-.918,1.294-1.525,2.462-.185,3.413,1.423,1.009,2.545.248,3.541-1.157l2.087-2.943c.49-.69.407-1.033-.213-1.514l.134-.183c.213.178.621.482.943.71s.674.464.894.587Z" transform="translate(-871.078 -157.727)" fill="#fff"/><path d="M1049.325,255.509c-.282.243-.526.471-.7.647l-.173-.2c1.11-1.177,1.418-1.668.472-2.762l-.41-.474-4.978,4.305c-.71.613-.687.855-.077,1.612l-.176.156c-.249-.323-.676-.835-1.086-1.31-.455-.526-.889-1.01-1.146-1.275l.175-.151c.661.713.9.769,1.607.156l4.977-4.306-.411-.474c-.946-1.094-1.479-.864-2.8.069l-.174-.2c.2-.142.458-.351.74-.6.218-.188.66-.6,1.064-1.032.6.749,1.489,1.776,2.111,2.494s1.5,1.733,2.151,2.432c-.482.342-.954.72-1.172.909" transform="translate(-936.951 -224.707)" fill="#fff"/><path d="M1107.649,342.787l-.206.107c-.2-.235-.572-.354-1.342-.349l-4.034.045-1.873.971c-.748.387-.786.573-.451,1.292l-.206.105c-.147-.332-.4-.849-.647-1.321-.279-.538-.544-1.024-.715-1.3l.206-.107c.394.688.568.764,1.316.376l1.551-.8,2.767-4.078c.361-.544.344-.751.268-.9l.217-.112c.117.276.256.568.438.919.235.452.518,1,.777,1.426l-.215.112c-.2-.392-.465-.676-.772-.517a.888.888,0,0,0-.3.29l-2.392,3.412,3.291-.043a2.461,2.461,0,0,0,1.029-.177c.407-.211.359-.613.076-1.193l.206-.107c.183.4.4.839.585,1.2a8.268,8.268,0,0,0,.428.753" transform="translate(-988.358 -303.04)" fill="#fff"/><path d="M149.842,400.521c-1.469-1.35-4.924,1.765-6.214,3.087a27.654,27.654,0,0,0-1.832,2.1l-.846,1.1c-.268.356-.542.706-.831,1.04a8.6,8.6,0,0,1-1.927,1.716,3.425,3.425,0,0,1-1.811.574,2.589,2.589,0,0,1-.457-.04,4.246,4.246,0,0,1-2.114-1.18,12.626,12.626,0,0,1-1.695-2.014c-1.033-1.462-1.916-3.056-2.827-4.643a28.259,28.259,0,0,0-3.07-4.644,4.4,4.4,0,0,0-2.512-1.582,2.259,2.259,0,0,0-.3-.019,2.693,2.693,0,0,0-1.254.321,4.474,4.474,0,0,0-1.02.773.589.589,0,0,0-.1.074q-4.962,5.11-13.126,5.11-.71,0-1.444-.039-8.774-.483-13.322-9.418a.811.811,0,0,0-.765-.443,2.268,2.268,0,0,0-1.429.624,1.667,1.667,0,0,0-.745,1.147q0,.362.443.523,2.092.644,2.093,4.186a13.53,13.53,0,0,1-2.093,7.164q-2.294,3.783-5.514,3.944-.288.018-.562.018-5.194,0-5.193-6.532a25.777,25.777,0,0,1,1.529-7.679q20-16.043,22.619-23.844a6.029,6.029,0,0,0,.362-1.849,1.405,1.405,0,0,0-1.61-1.569A10.669,10.669,0,0,0,98.3,369.7q-5.031,2.374-11.511,10.375A60.823,60.823,0,0,0,76.71,397.731a62.448,62.448,0,0,1-12.963,8.956q-6.611,3.38-11.125,3.38a7.29,7.29,0,0,1-1.773-.2,1.661,1.661,0,0,1-1.531-1.731q0-1.891,2.549-5.192,2.266-2.937,3.358-3.381a3.113,3.113,0,0,0,1.294-1.187q.525-.824.365-1.228a1.827,1.827,0,0,0-1.047-.906,2.194,2.194,0,0,0-.773-.181.723.723,0,0,0-.354.08,5.719,5.719,0,0,1-2.7.524,9.985,9.985,0,0,1-3.662-.644q-1.772-.724-1.691-1.69a2.558,2.558,0,0,0,1.087-2.214,1.461,1.461,0,0,0-1.65-1.328,1.8,1.8,0,0,0-1.087.322,1.3,1.3,0,0,0-.564,1.046,3.394,3.394,0,0,0,.162.805,2.014,2.014,0,0,1,.121.765q-.323,1.328-3.26,3.985c-.025.022-.038.043-.059.065a48.553,48.553,0,0,1-9.537,7.045A37.68,37.68,0,0,1,20.7,408.994a27.267,27.267,0,0,1-5.045.505q-.439,0-.877-.017a16.422,16.422,0,0,1-2.92-.36,8.456,8.456,0,0,1-2.473-.923,11.828,11.828,0,0,0,2.494-1.261,4.134,4.134,0,0,0,1.193-1.2,1.851,1.851,0,0,0,.283-.951,1.484,1.484,0,0,0-.4-1,2.459,2.459,0,0,0-1.7-.7q-.1-.006-.2-.006a3.837,3.837,0,0,0-1.5.324,4.381,4.381,0,0,0-1.388.975,3.9,3.9,0,0,0-.928,1.458,2.263,2.263,0,0,0,.212,1.846,3.025,3.025,0,0,0,.193.277c-.564.187-1.133.363-1.708.519-1.931.521-4.7-.411-5.9,1.208a.636.636,0,0,0,.09.62c1.62,1.219,4.014-.612,5.994-1.1.714-.179,1.423-.388,2.127-.617a5.069,5.069,0,0,0,.425.312,9.03,9.03,0,0,0,2.973,1.14,17.307,17.307,0,0,0,3.087.364q.393.014.785.013a28.018,28.018,0,0,0,5.341-.55,38.538,38.538,0,0,0,11.41-4.328,49.409,49.409,0,0,0,9.748-7.3l.007-.005a33.8,33.8,0,0,0,3.1-3.22,4.115,4.115,0,0,0,2.214,1.529,11.374,11.374,0,0,0,4.266.8,14.4,14.4,0,0,0,1.529-.081Q45.9,403.91,45.9,407.814q0,2.617,3.5,2.978a20.014,20.014,0,0,0,2.214.121q10.42,0,24.643-11.843c-.082.249-.176.5-.253.746a9.381,9.381,0,0,0,1.449,8.122,6.51,6.51,0,0,0,4.709,2.855c.4.027.791.041,1.167.041q5.473,0,8.492-5.112a17.582,17.582,0,0,0,2.335-8.251q3.944,5.313,12.638,5.675c.313.011.625.017.933.017a19.093,19.093,0,0,0,13.8-5.41c.01-.01.014-.019.023-.029a2.77,2.77,0,0,1,1.809-.922,1.5,1.5,0,0,1,.244.02,3.654,3.654,0,0,1,1.981,1.364,30.2,30.2,0,0,1,2.9,4.54c.893,1.593,1.765,3.215,2.828,4.753a13.579,13.579,0,0,0,1.833,2.172,5.212,5.212,0,0,0,2.621,1.43,3.409,3.409,0,0,0,.618.055,4.426,4.426,0,0,0,2.335-.721,9.553,9.553,0,0,0,2.158-1.911c.309-.358.6-.727.88-1.1l.816-1.084a26.762,26.762,0,0,1,1.745-2.05c1.222-1.282,4.5-1.666,5.607-2.875a.881.881,0,0,0-.074-.869M89.767,378.353a27.7,27.7,0,0,1,9.659-8.492A6.731,6.731,0,0,1,102,369.1a1,1,0,0,1,1.127,1.127q0,3.777-9.378,13.139a144.721,144.721,0,0,1-12.4,11.13,56.814,56.814,0,0,1,8.412-16.139M8.619,407.622a1.427,1.427,0,0,1-.443-1.488,2.912,2.912,0,0,1,.706-1.061,3.614,3.614,0,0,1,1.077-.753,3.062,3.062,0,0,1,1.167-.258l.087,0a1.546,1.546,0,0,1,1.051.37c.212.214.22.493.021.85a3.3,3.3,0,0,1-.918.944,11.736,11.736,0,0,1-2.586,1.338c-.053.021-.109.037-.162.057" transform="translate(0 -331.679)" fill="#fff"/><path d="M172.356,73.864a55.822,55.822,0,1,1,108.838-7.886c.554.838,1.042,1.671,1.491,2.448l.323.557.105.184a58.23,58.23,0,1,0-113.138,5.147c.347-.052.688-.093,1.043-.16.446-.086.892-.184,1.338-.291" transform="translate(-150.928)" fill="#fff"/><path d="M321.842,763.078A55.794,55.794,0,0,1,218,767.535c-.8.214-1.593.408-2.392.568a58.215,58.215,0,0,0,107.928-2.592c-.326-.408-.61-.794-.834-1.112-.3-.439-.586-.88-.861-1.321" transform="translate(-194.047 -686.77)" fill="#fff"/><path d="M312.721,753.81a53.353,53.353,0,0,0,51.07-38.156l-.041-.072-.356-.638-.208-.368q-.256-.454-.507-.894a51.644,51.644,0,0,1-97.028,8.1q-.757.291-1.517.549a53.329,53.329,0,0,0,48.587,31.477" transform="translate(-237.721 -642.314)" fill="#fff"/><path d="M270.6,49.638a53.237,53.237,0,0,0-51.119,68.2c.506-.166,1.013-.347,1.519-.54A51.653,51.653,0,1,1,322.26,102.9c0,1.274-.062,2.534-.153,3.785a8.211,8.211,0,0,1,1.524,1.173c.152-1.634.239-3.286.239-4.959A53.327,53.327,0,0,0,270.6,49.638" transform="translate(-195.603 -44.674)" fill="#fff"/></g></g></g></svg>