<svg xmlns="http://www.w3.org/2000/svg" width="200" height="200" viewBox="0 0 200 200"><g transform="translate(-1180 -108)"><rect width="200" height="200" transform="translate(1180 108)" opacity="0"/><g transform="translate(1222.748 184.92)"><g transform="translate(4.252 3.08)"><g transform="translate(0 0.371)"><path d="M7.373,26.152a7.984,7.984,0,0,1-3.121-2.417l2.881-3.458A5.177,5.177,0,0,0,11.3,22.742q3.169,0,3.17-3.714V8.367H6.589V4.2H19.62V18.74q0,4.13-2.049,6.195T11.551,27A10.163,10.163,0,0,1,7.373,26.152Z" transform="translate(-4.252 -4.205)" fill="#fff"/><path d="M86.777,26.616l-.032-13.447-6.6,11.078H77.813L71.25,13.458V26.616H66.383V4.2h4.29l8.388,13.927L87.322,4.2H91.58l.064,22.411Z" transform="translate(-45.893 -4.205)" fill="#fff"/><path d="M188.613,4.2l-7.331,22.411H175.71l-4.93-15.176-5.091,15.176h-5.539L152.787,4.2h5.379l5.058,15.752L168.507,4.2h4.8l5.123,15.88L183.65,4.2Z" transform="translate(-103.803 -4.205)" fill="#fff"/></g><g transform="translate(86.289)"><path d="M295.834,6.98a2.022,2.022,0,1,0-2.414-.84l-5.633,16.2a2.022,2.022,0,1,0,2.414.84Z" transform="translate(-279.688 -3.08)" fill="#fff"/><path d="M275.274,6.98a2.022,2.022,0,1,0-2.414-.84l-5.633,16.2a2.022,2.022,0,1,0,2.414.84Z" transform="translate(-265.908 -3.08)" fill="#fff"/><path d="M335.163,23.713a1.941,1.941,0,0,0-.207.021L316.6,5.686a1.3,1.3,0,0,0-.9-.367,1.278,1.278,0,0,0-1.207.858l-6.142,17.668a2.013,2.013,0,1,0,2.714,1.884,1.994,1.994,0,0,0-.3-1.044l2.156-6.2,7.192,7.072c-.005.058-.018.114-.018.173a2.016,2.016,0,1,0,2.016-2.016,1.935,1.935,0,0,0-.206.021l-8.055-7.921.706-2.031,12.087,11.782c0,.055-.017.109-.017.165a2.124,2.124,0,1,0,1.8-1.995L315.479,11.117l.764-2.2,16.921,16.637c0,.058-.017.114-.017.173a2.016,2.016,0,1,0,2.016-2.016Z" transform="translate(-293.469 -4.581)" fill="#fff"/></g><g transform="translate(0.116 29.168)"><path d="M11.887,100.145v1.512H4.6V91.946h7.089v1.512H6.407v2.525H11.1v1.485H6.407v2.677Z" transform="translate(-4.603 -91.807)" fill="#fff"/><path d="M59.2,91.946H61v8.186H66.08v1.526H59.2Z" transform="translate(-41.194 -91.807)" fill="#fff"/><path d="M118.092,100.145v1.512h-7.284V91.946H117.9v1.512h-5.286v2.525H117.3v1.485h-4.689v2.677Z" transform="translate(-75.784 -91.807)" fill="#fff"/><path d="M165.709,100.87a4.76,4.76,0,0,1-1.859-1.783,5.21,5.21,0,0,1,.007-5.133,4.807,4.807,0,0,1,1.866-1.783,5.47,5.47,0,0,1,2.657-.645,5.538,5.538,0,0,1,2.178.416,4.443,4.443,0,0,1,1.665,1.207l-1.165,1.1a3.4,3.4,0,0,0-2.595-1.138,3.634,3.634,0,0,0-1.789.437,3.147,3.147,0,0,0-1.235,1.214,3.719,3.719,0,0,0,0,3.524,3.148,3.148,0,0,0,1.235,1.214,3.634,3.634,0,0,0,1.789.437,3.38,3.38,0,0,0,2.595-1.152l1.165,1.11a4.427,4.427,0,0,1-1.672,1.207,5.587,5.587,0,0,1-2.185.416A5.473,5.473,0,0,1,165.709,100.87Z" transform="translate(-110.882 -91.526)" fill="#fff"/><path d="M221.369,93.472H218.15V91.946h8.241v1.526h-3.219v8.186h-1.8Z" transform="translate(-147.726 -91.807)" fill="#fff"/><path d="M280.024,101.658l-1.984-2.844a3.7,3.7,0,0,1-.375.014h-2.192v2.831h-1.8V91.946h4a5.373,5.373,0,0,1,2.2.416,3.2,3.2,0,0,1,1.436,1.193,3.336,3.336,0,0,1,.5,1.845,3.291,3.291,0,0,1-.534,1.887,3.179,3.179,0,0,1-1.533,1.179l2.234,3.191Zm-.652-7.686a2.771,2.771,0,0,0-1.79-.5h-2.109v3.871h2.109a2.746,2.746,0,0,0,1.79-.506,1.763,1.763,0,0,0,.61-1.436A1.742,1.742,0,0,0,279.372,93.972Z" transform="translate(-184.937 -91.807)" fill="#fff"/><path d="M330.832,91.946h1.8v9.712h-1.8Z" transform="translate(-223.248 -91.807)" fill="#fff"/><path d="M371.09,100.87a4.76,4.76,0,0,1-1.859-1.783,5.209,5.209,0,0,1,.007-5.133,4.807,4.807,0,0,1,1.866-1.783,5.47,5.47,0,0,1,2.657-.645,5.537,5.537,0,0,1,2.178.416,4.443,4.443,0,0,1,1.665,1.207l-1.165,1.1a3.4,3.4,0,0,0-2.595-1.138,3.634,3.634,0,0,0-1.789.437,3.15,3.15,0,0,0-1.235,1.214,3.719,3.719,0,0,0,0,3.524,3.15,3.15,0,0,0,1.235,1.214,3.634,3.634,0,0,0,1.789.437,3.38,3.38,0,0,0,2.595-1.152l1.165,1.11a4.428,4.428,0,0,1-1.672,1.207,5.589,5.589,0,0,1-2.185.416A5.473,5.473,0,0,1,371.09,100.87Z" transform="translate(-248.532 -91.526)" fill="#fff"/></g></g></g></g></svg>