<svg xmlns="http://www.w3.org/2000/svg" width="200" height="200" viewBox="0 0 200 200"><g transform="translate(-960 -328)"><rect width="200" height="200" transform="translate(960 328)" fill="#070707" opacity="0"/><g transform="translate(563.308 -26.263)"><g transform="translate(456.608 445.077)"><path d="M690.241,479.4a2.5,2.5,0,0,1,.794.516,2.663,2.663,0,0,1,.557.766,2.115,2.115,0,0,1,.209.934v4.933a3.6,3.6,0,0,1-.7,2.285,2.521,2.521,0,0,1-2.118.892h-1.143v8.556h-1.393q-.363,0-.46-.153a.513.513,0,0,1-.1-.265V479.221h3.4A2.5,2.5,0,0,1,690.241,479.4Zm-.334,2.606a1.123,1.123,0,0,0-.349-.669.96.96,0,0,0-.683-.279h-1.031v6.716h1.031a.985.985,0,0,0,.683-.265,1.061,1.061,0,0,0,.349-.655Z" transform="translate(-685.894 -479.11)" fill="#fff"/><path d="M750.169,496.332h4.1q.194,0,.139.209a2.023,2.023,0,0,1-.209.474,3.729,3.729,0,0,1-.335.488,1.245,1.245,0,0,1-.237.251.89.89,0,0,1-.321.362,1.236,1.236,0,0,1-.711.167h-4.375v-18.5a.5.5,0,0,1,.181-.4.61.61,0,0,1,.4-.153h5.1q.195,0,.139.209a1.8,1.8,0,0,1-.209.46,4.377,4.377,0,0,1-.334.474,1.235,1.235,0,0,1-.237.251.981.981,0,0,1-.321.376,1.158,1.158,0,0,1-.711.181h-1.589a.481.481,0,0,0-.334.126.414.414,0,0,0-.139.322v5.711h2.954c.13,0,.181.069.153.206a1.572,1.572,0,0,1-.195.467,3.073,3.073,0,0,1-.349.481,1.435,1.435,0,0,1-.251.247.838.838,0,0,1-.321.385,1.252,1.252,0,0,1-.711.165l-.808-.028a.476.476,0,0,0-.474.474Z" transform="translate(-738.977 -479.11)" fill="#fff"/><path d="M825.661,479.4a2.5,2.5,0,0,1,.794.516,2.661,2.661,0,0,1,.557.766,2.116,2.116,0,0,1,.209.934v4.933a3.6,3.6,0,0,1-.7,2.285,2.521,2.521,0,0,1-2.118.892h-1.143v8.556h-1.394q-.363,0-.46-.153a.513.513,0,0,1-.1-.265V479.221h3.4A2.5,2.5,0,0,1,825.661,479.4Zm-.334,2.606a1.123,1.123,0,0,0-.349-.669.96.96,0,0,0-.683-.279h-1.031v6.716H824.3a.985.985,0,0,0,.683-.265,1.061,1.061,0,0,0,.349-.655Z" transform="translate(-801.235 -479.11)" fill="#fff"/><path d="M896.782,479.4a2.5,2.5,0,0,1,.794.516,2.664,2.664,0,0,1,.557.766,2.116,2.116,0,0,1,.209.934v4.933a3.6,3.6,0,0,1-.7,2.285,2.52,2.52,0,0,1-2.118.892h-1.143v8.556h-1.393q-.363,0-.46-.153a.513.513,0,0,1-.1-.265V479.221h3.4A2.5,2.5,0,0,1,896.782,479.4Zm-.334,2.606a1.121,1.121,0,0,0-.348-.669.96.96,0,0,0-.683-.279h-1.031v6.716h1.031a.985.985,0,0,0,.683-.265,1.059,1.059,0,0,0,.348-.655Z" transform="translate(-861.81 -479.11)" fill="#fff"/><path d="M956.709,496.332h4.1q.194,0,.139.209a2.023,2.023,0,0,1-.209.474,3.729,3.729,0,0,1-.335.488,1.237,1.237,0,0,1-.237.251.89.89,0,0,1-.32.362,1.236,1.236,0,0,1-.711.167h-4.376v-18.5a.5.5,0,0,1,.181-.4.61.61,0,0,1,.4-.153h5.1q.195,0,.14.209a1.817,1.817,0,0,1-.209.46,4.4,4.4,0,0,1-.335.474,1.232,1.232,0,0,1-.237.251.978.978,0,0,1-.321.376,1.16,1.16,0,0,1-.711.181h-1.589a.481.481,0,0,0-.334.126.415.415,0,0,0-.139.322v5.711h2.954c.13,0,.181.069.153.206a1.569,1.569,0,0,1-.2.467,3.035,3.035,0,0,1-.348.481,1.427,1.427,0,0,1-.251.247.837.837,0,0,1-.321.385,1.251,1.251,0,0,1-.71.165l-.808-.028a.476.476,0,0,0-.474.474Z" transform="translate(-914.892 -479.11)" fill="#fff"/><path d="M1032.634,498.283h-1.951v-6.967a1.223,1.223,0,0,0-.307-.975,1.109,1.109,0,0,0-.725-.251h-1.031v8.194h-1.951V479.221h3.55a2.48,2.48,0,0,1,.944.181,2.278,2.278,0,0,1,.762.5,2.523,2.523,0,0,1,.514.753,2.249,2.249,0,0,1,.194.934V487.5a2.634,2.634,0,0,1-.124.892,1.8,1.8,0,0,1-.261.5.99.99,0,0,1-.357.279,1.114,1.114,0,0,1,.357.362,3.114,3.114,0,0,1,.261.571,2.66,2.66,0,0,1,.124.878Zm-2.258-10.242a1.053,1.053,0,0,0,.307-.878v-5.016a.863.863,0,0,0-.307-.766,1.255,1.255,0,0,0-.725-.209h-1.031v7.107h1.031A1.15,1.15,0,0,0,1030.376,488.041Z" transform="translate(-976.142 -479.11)" fill="#fff"/><path d="M1149.415,481.952v13.572q0,2.759-2.7,2.759H1143.2V479.221h3.512A2.4,2.4,0,0,1,1149.415,481.952Zm-1.951.334a1.378,1.378,0,0,0-.275-.961.973.973,0,0,0-.743-.293h-1.294v15.439h1.294a.974.974,0,0,0,.743-.292,1.379,1.379,0,0,0,.275-.962Z" transform="translate(-1075.393 -479.11)" fill="#fff"/><path d="M1219.243,479.486a.933.933,0,0,1,.167.488v18.31h-1.393q-.334,0-.432-.139a.733.733,0,0,1-.125-.279V479.221h1.171A.669.669,0,0,1,1219.243,479.486Z" transform="translate(-1138.642 -479.11)" fill="#fff"/><path d="M1268.6,479.221v19.062h-.9a1.322,1.322,0,0,1-.645-.139,1.168,1.168,0,0,1-.393-.335,1.5,1.5,0,0,1-.21-.4,2.761,2.761,0,0,1-.1-.348l-2.1-9.42v10.646H1262.3V479.221h.892q.836,0,1.073.32a1.841,1.841,0,0,1,.32.739l2.062,9.921v-10.98Z" transform="translate(-1176.839 -479.11)" fill="#fff"/><path d="M1338.1,479.486a.933.933,0,0,1,.167.488v18.31h-1.394q-.335,0-.432-.139a.734.734,0,0,1-.125-.279V479.221h1.17A.669.669,0,0,1,1338.1,479.486Z" transform="translate(-1239.879 -479.11)" fill="#fff"/><path d="M1387.464,479.221v19.062h-.9a1.322,1.322,0,0,1-.645-.139,1.166,1.166,0,0,1-.393-.335,1.5,1.5,0,0,1-.21-.4,2.8,2.8,0,0,1-.1-.348l-2.1-9.42v10.646h-1.951V479.221h.891q.836,0,1.073.32a1.836,1.836,0,0,1,.321.739l2.062,9.921v-10.98Z" transform="translate(-1278.076 -479.11)" fill="#fff"/><path d="M1461.521,495.358a2.3,2.3,0,0,1-.683,1.672,2.441,2.441,0,0,1-1.658.752h-1.226a2.289,2.289,0,0,1-1.7-.711,2.358,2.358,0,0,1-.7-1.714V480.894a2.359,2.359,0,0,1,.7-1.714,2.289,2.289,0,0,1,1.7-.711h1.226a2.444,2.444,0,0,1,1.658.752,2.306,2.306,0,0,1,.683,1.672v1.226a1.233,1.233,0,0,1-.167.711,1.156,1.156,0,0,1-.362.349q-.139.056-.6.265c-.306.139-.581.265-.822.376V481.2a1.046,1.046,0,0,0-1.031-1.031.978.978,0,0,0-.739.307,1.015,1.015,0,0,0-.292.725v13.851a1.014,1.014,0,0,0,.292.725.977.977,0,0,0,.739.307,1.047,1.047,0,0,0,1.031-1.031v-5.658h-.083a.406.406,0,0,1-.251-.083.753.753,0,0,1-.223-.181,1.586,1.586,0,0,1-.223-.348l-.669-1.338h2.452a.986.986,0,0,1,.683.237,1.022,1.022,0,0,1,.265.794Z" transform="translate(-1341.436 -478.469)" fill="#fff"/></g><g transform="translate(416.692 439.586)"><g transform="translate(0 0)"><path d="M445.614,467.579l-3.222-3.071-.445-.424-.95-.905-.8-.764-4.927-4.7-.793-.756-3.626-3.457.045-.061a4.138,4.138,0,0,0,.262-.5,4.357,4.357,0,0,0-1.329-4.891l-6.475-6.487a.45.45,0,1,0-.639.635l6.5,6.512c.094.082,2.3,2.024.943,4.214l-.268.346a.45.45,0,0,0,.044.6l.278.265.445.425,3.251,3.1.792.755,4.823,4.6.8.764.553.527.445.424.445.424,3.243,3.091a.878.878,0,0,1,.272.556,1.153,1.153,0,0,1-.416.808,1.315,1.315,0,0,1-.911.477.83.83,0,0,1-.55-.267l-3.031-3.217-.422-.448-.422-.448-.684-.726-.757-.8-4.365-4.632-.752-.8-3.153-3.347-.422-.448-.261-.277a.44.44,0,0,0-.207-.125.45.45,0,0,0-.4.081l-.305.239c-2.218,1.376-4.171-.822-4.274-.94l-6.493-6.473a.449.449,0,1,0-.633.637l6.464,6.448a4.382,4.382,0,0,0,4.884,1.36,4.241,4.241,0,0,0,.567-.3l.019-.015,3.6,3.82.751.8,4.245,4.5.758.8,1.212,1.286.424.45,2.982,3.164a1.7,1.7,0,0,0,1.172.569,2.135,2.135,0,0,0,1.6-.738,1.983,1.983,0,0,0,.676-1.493A1.746,1.746,0,0,0,445.614,467.579Z" transform="translate(-416.693 -441.437)" fill="#fff"/><path d="M433.039,479.084a.45.45,0,1,0,.637-.637l-6.687-6.687a.451.451,0,1,0-.637.637Z" transform="translate(-424.806 -467.15)" fill="#fff"/><path d="M443.171,468.951a.451.451,0,1,0,.638-.638l-6.687-6.687a.451.451,0,1,0-.637.637Z" transform="translate(-433.436 -458.519)" fill="#fff"/><path d="M453.3,458.822a.451.451,0,1,0,.637-.637l-6.687-6.687a.451.451,0,1,0-.637.637Z" transform="translate(-442.064 -449.892)" fill="#fff"/></g></g><g transform="translate(416.934 439.263)"><path d="M437.765,571.26a26.632,26.632,0,0,1-16.442,4.2,37.453,37.453,0,0,0,10.74-6.981q1.05-.947,2-1.928l-.752-.795q-.941.968-1.983,1.912c-4.091,3.694-8.8,6.5-12.6,7.508a.547.547,0,0,0,.048,1.068,26.94,26.94,0,0,0,4.559.388,27.842,27.842,0,0,0,15.018-4.452c.215-.137.426-.278.636-.42l-.761-.805Q438,571.11,437.765,571.26Z" transform="translate(-418.323 -547.001)" fill="#fff"/><path d="M553.568,439.714a.547.547,0,0,0-.635-.442c-3.287.587-4.454,3.929-4.8,5.322a4.823,4.823,0,0,0-5.313,2.836h0c-.06,0-.125.41-.195.719a21.32,21.32,0,0,1-3.461,6.43l.8.778a22.34,22.34,0,0,0,3.718-6.842.258.258,0,0,0,.008-.026c.015-.058.123-.416.152-.5l0,0a3.609,3.609,0,0,1,4.353-2.171,3.65,3.65,0,0,1,2.681,3.652c-.015.1-.089.589-.134.828h0c-.078.411-.173.821-.282,1.219a20.045,20.045,0,0,1-5.5,8.629l.8.764a20.866,20.866,0,0,0,5.757-9.1c.117-.426.218-.864.3-1.3.036-.193.147-.874.151-.954a4.745,4.745,0,0,0-2.787-4.532c.271-1.126,1.248-4.18,3.942-4.661A.547.547,0,0,0,553.568,439.714Z" transform="translate(-521.252 -439.263)" fill="#fff"/></g></g></g></svg>