<svg xmlns="http://www.w3.org/2000/svg" width="200" height="200" viewBox="0 0 200 200"><g transform="translate(-1400 -108)"><rect width="200" height="200" transform="translate(1400 108)" opacity="0"/><g transform="translate(1014.189 109.748)"><g transform="translate(454.873 36.252)"><g transform="translate(45.984 9.077)"><rect width="0.581" height="25.41" transform="translate(12.705 0.986) rotate(30)" fill="#fff"/><rect width="1.262" height="9.268" transform="translate(12.41 0.816) rotate(30)" fill="#fff"/><circle cx="0.992" cy="0.992" r="0.992" transform="translate(12.045)" fill="#fff"/></g><g transform="translate(1.869 9.077)"><rect width="0.581" height="25.41" transform="translate(14.028 22.991) rotate(150)" fill="#fff"/><rect width="1.262" height="9.268" transform="translate(6.253 8.842) rotate(150)" fill="#fff"/><circle cx="0.992" cy="0.992" r="0.992" fill="#fff"/></g><g transform="translate(29.949)"><path d="M507.429,56.59l.581,0-.116-18.848-.581,0Z" transform="translate(-506.61 -36.588)" fill="#fff"/><rect width="1.262" height="9.268" transform="translate(1.666 10.418) rotate(179.738)" fill="#fff"/><circle cx="0.992" cy="0.992" r="0.992" fill="#fff"/></g><path d="M528.763,82.13a1.681,1.681,0,0,0-1.19-1.191,25.026,25.026,0,0,0-16.767,1.4,25.022,25.022,0,0,0-11.3-14.06,1.681,1.681,0,0,0-1.683,0,25.022,25.022,0,0,0-11.3,14.06,25.025,25.025,0,0,0-16.766-1.4,1.682,1.682,0,0,0-1.191,1.191,25.021,25.021,0,0,0,6.455,24.079,1.681,1.681,0,0,0,2.377-2.377,21.65,21.65,0,0,1-5.816-19.877,21.566,21.566,0,0,1,26.067,23.385,21.473,21.473,0,0,1-8.023-11.278,1.681,1.681,0,1,0-3.22.964,24.817,24.817,0,0,0,7.652,11.766,19,19,0,0,1-14.363-18.405,1.68,1.68,0,1,0-3.361,0,22.334,22.334,0,0,0,44.667,0,1.68,1.68,0,1,0-3.361,0,19.006,19.006,0,0,1-14.363,18.405,24.8,24.8,0,0,0,7.651-11.766,1.681,1.681,0,1,0-3.22-.964,21.461,21.461,0,0,1-6.6,10.161,24.905,24.905,0,0,0-.7-7.195,21.573,21.573,0,0,1,25.346-15.072,21.65,21.65,0,0,1-5.817,19.877,1.681,1.681,0,1,0,2.377,2.377A25.019,25.019,0,0,0,528.763,82.13ZM503.494,87.4a24.981,24.981,0,0,0-4.83,6.8,24.826,24.826,0,0,0-9.125-10.23A21.648,21.648,0,0,1,498.663,71.7a21.647,21.647,0,0,1,9.124,12.267A24.779,24.779,0,0,0,503.494,87.4Z" transform="translate(-467.723 -43.432)" fill="#fff"/></g><g transform="translate(410.811 128.258)"><path d="M419.614,156.995h-3.631v16.717h-1.567V156.995h-3.606v-1.568h8.8Z" transform="translate(-410.811 -155.166)" fill="#fff"/><path d="M437.781,164.909h-3.108v7.235h4.675v1.568h-6.242V163.76a5.12,5.12,0,0,1-1.411.183,3.912,3.912,0,0,1-1.88-.444,3.286,3.286,0,0,0-2.69-.365v10.579h-1.567V155.427h1.567v6.086a4.932,4.932,0,0,1,3.448.6,3.231,3.231,0,0,0,2.534,0v-6.687h6.242v1.568h-4.675v6.347h3.108Z" transform="translate(-414.14 -155.166)" fill="#fff"/><path d="M462.486,166.191v-1.567H466.3v4.7a4.32,4.32,0,0,1-4.336,4.31h-.784a4.315,4.315,0,0,1-4.31-4.31v-9.9a4.336,4.336,0,0,1,4.31-4.336h.784a4.342,4.342,0,0,1,4.336,4.336h-1.568a2.787,2.787,0,0,0-2.769-2.769h-.784a2.765,2.765,0,0,0-2.743,2.769v9.9a2.742,2.742,0,0,0,2.743,2.742h.784a2.764,2.764,0,0,0,2.769-2.742l-.026-3.135Z" transform="translate(-421.211 -155.09)" fill="#fff"/><path d="M472.425,169.285v-9.612a4.4,4.4,0,1,1,8.8,0v9.612a4.4,4.4,0,0,1-8.8,0Zm1.567-9.612v9.612a2.834,2.834,0,0,0,5.668,0v-9.612a2.834,2.834,0,1,0-5.668,0Z" transform="translate(-424.723 -155.128)" fill="#fff"/><path d="M494.04,173.842c-2.272-1.227-4.284-1.332-6.112-.314l-.757-1.384a6.874,6.874,0,0,1,1.359-.574V155.427H490.1v15.855a8.645,8.645,0,0,1,4.7,1.2,6.761,6.761,0,0,0,5.8-.34l.732,1.384a9.119,9.119,0,0,1-3.578.993,5.637,5.637,0,0,1-.653.026A6.223,6.223,0,0,1,494.04,173.842Zm0-5.25V155.427h3.16a4.019,4.019,0,0,1,4.023,4V164.6a4,4,0,0,1-4.023,4Zm1.567-1.567H497.2a2.447,2.447,0,0,0,2.456-2.429v-5.172a2.447,2.447,0,0,0-2.456-2.429h-1.593Z" transform="translate(-428.052 -155.166)" fill="#fff"/><path d="M523.266,173.711a4.315,4.315,0,0,1-4.31-4.31v-9.638a4.337,4.337,0,0,1,4.31-4.336h.784a4.086,4.086,0,0,1,4.336,4.023h-1.568a2.534,2.534,0,0,0-2.769-2.455h-.784a2.765,2.765,0,0,0-2.743,2.769V169.4a2.742,2.742,0,0,0,2.743,2.742h.784a2.764,2.764,0,0,0,2.769-2.742h1.568a4.32,4.32,0,0,1-4.336,4.31Z" transform="translate(-435.229 -155.166)" fill="#fff"/><path d="M539.788,164.909h-3.709v7.235h6.269v1.568h-7.836V155.427h7.836v1.568h-6.269v6.347h3.709Z" transform="translate(-438.741 -155.166)" fill="#fff"/><path d="M548.009,173.711V155.427h2.926l4.78,16.717h.183V155.427h1.567v18.284h-2.951l-4.754-16.717h-.183v16.717Z" transform="translate(-441.789 -155.166)" fill="#fff"/><path d="M572.4,156.995H568.77v16.717H567.2V156.995h-3.6v-1.568h8.8Z" transform="translate(-445.309 -155.166)" fill="#fff"/><path d="M578.343,173.711V155.427h4.1a5.422,5.422,0,0,1,2.141,10.4l.5.392a10.62,10.62,0,0,1,2.246,2.795,7.432,7.432,0,0,0,2.22,2.508,7.252,7.252,0,0,0,2.665,1.149,19.97,19.97,0,0,0,5.981.078,1.266,1.266,0,0,1,.314-.026l.13,1.568a1.3,1.3,0,0,0-.314.026c-1.044.078-2.194.183-3.369.183a13.706,13.706,0,0,1-3.082-.314,8.4,8.4,0,0,1-3.238-1.384,9.056,9.056,0,0,1-2.665-3,8.71,8.71,0,0,0-1.907-2.377,4.181,4.181,0,0,0-2.769-1.15H579.91v7.445Zm4.1-9.012a3.852,3.852,0,0,0,0-7.7H579.91v7.7Zm13.686-2.3h-3.317v4.624h5.354v1.567h-6.921V155.427h6.921v1.568h-5.354v3.839h3.317Z" transform="translate(-448.638 -155.166)" fill="#fff"/></g><g transform="translate(422.035 155.298)"><path d="M426.542,193.551l-.441,1h-.793l1.937-4.4h.794l1.937,4.4h-.793l-.44-1Zm1.9-.686-.8-1.812-.8,1.812Z" transform="translate(-425.309 -190.048)" fill="#fff"/><path d="M435.5,193.847a1.549,1.549,0,0,0,.66-.129,2.267,2.267,0,0,0,.579-.412l.478.49a2.2,2.2,0,0,1-1.7.773,2.274,2.274,0,0,1-1.654-.641,2.17,2.17,0,0,1-.656-1.623,2.194,2.194,0,0,1,.67-1.636,2.322,2.322,0,0,1,1.692-.653,2.212,2.212,0,0,1,1.708.754l-.472.516a2.054,2.054,0,0,0-.594-.422,1.665,1.665,0,0,0-.657-.119,1.563,1.563,0,0,0-1.119.43,1.453,1.453,0,0,0-.453,1.1,1.517,1.517,0,0,0,.45,1.12A1.453,1.453,0,0,0,435.5,193.847Z" transform="translate(-427.094 -190.017)" fill="#fff"/><path d="M441.984,193.545a1.125,1.125,0,0,0,1.635,0,1.42,1.42,0,0,0,.3-.956v-2.435h.742v2.466a1.959,1.959,0,0,1-.522,1.462,2.007,2.007,0,0,1-2.68,0,1.956,1.956,0,0,1-.522-1.462v-2.466h.742v2.435A1.42,1.42,0,0,0,441.984,193.545Z" transform="translate(-428.838 -190.048)" fill="#fff"/><path d="M451.677,190.538a1.457,1.457,0,0,1,.459,1.183,1.4,1.4,0,0,1-.469,1.17,2.3,2.3,0,0,1-1.437.371h-.78v1.29h-.742v-4.4h1.51A2.263,2.263,0,0,1,451.677,190.538Zm-.526,1.815a.968.968,0,0,0,.223-.692.715.715,0,0,0-.283-.644,1.628,1.628,0,0,0-.887-.189h-.754v1.761h.861A1.149,1.149,0,0,0,451.151,192.353Z" transform="translate(-430.592 -190.048)" fill="#fff"/><path d="M456.689,193.545a1.125,1.125,0,0,0,1.635,0,1.42,1.42,0,0,0,.3-.956v-2.435h.742v2.466a1.958,1.958,0,0,1-.522,1.462,2.007,2.007,0,0,1-2.68,0,1.956,1.956,0,0,1-.523-1.462v-2.466h.742v2.435A1.42,1.42,0,0,0,456.689,193.545Z" transform="translate(-432.158 -190.048)" fill="#fff"/><path d="M466.708,190.154h.742v4.4h-.805l-2.491-3.208v3.208h-.742v-4.4h.742l2.553,3.284Z" transform="translate(-433.912 -190.048)" fill="#fff"/><path d="M473.582,193.847a1.549,1.549,0,0,0,.66-.129,2.267,2.267,0,0,0,.579-.412l.478.49a2.2,2.2,0,0,1-1.7.773,2.274,2.274,0,0,1-1.654-.641,2.17,2.17,0,0,1-.657-1.623,2.193,2.193,0,0,1,.67-1.636,2.322,2.322,0,0,1,1.692-.653,2.21,2.21,0,0,1,1.707.754l-.472.516a2.053,2.053,0,0,0-.594-.422,1.663,1.663,0,0,0-.657-.119,1.563,1.563,0,0,0-1.119.43,1.453,1.453,0,0,0-.453,1.1,1.517,1.517,0,0,0,.45,1.12A1.454,1.454,0,0,0,473.582,193.847Z" transform="translate(-435.692 -190.017)" fill="#fff"/><path d="M480.631,190.834v3.718h-.742v-3.718h-1.333v-.68h3.409v.68Z" transform="translate(-437.331 -190.048)" fill="#fff"/><path d="M486.424,193.545a1.126,1.126,0,0,0,1.636,0,1.424,1.424,0,0,0,.3-.956v-2.435h.742v2.466a1.955,1.955,0,0,1-.522,1.462,2.006,2.006,0,0,1-2.679,0,1.952,1.952,0,0,1-.523-1.462v-2.466h.742v2.435A1.424,1.424,0,0,0,486.424,193.545Z" transform="translate(-438.872 -190.048)" fill="#fff"/><path d="M496.657,191.582a1.277,1.277,0,0,1-.95,1.371l1.151,1.6h-.942l-1.051-1.479h-.975v1.479h-.742v-4.4h1.636a2.372,2.372,0,0,1,1.44.34A1.3,1.3,0,0,1,496.657,191.582Zm-.988.622a.783.783,0,0,0,.227-.626.669.669,0,0,0-.233-.591,1.55,1.55,0,0,0-.83-.16h-.944V192.4h.925A1.358,1.358,0,0,0,495.669,192.2Z" transform="translate(-440.626 -190.048)" fill="#fff"/><path d="M503.6,190.154v.7h-2.347v1.164h2.107v.66h-2.107v1.176h2.422v.7h-3.164v-4.4Z" transform="translate(-442.29 -190.048)" fill="#fff"/><path d="M512.057,194.57a1.64,1.64,0,0,1-1.05-.342,1.133,1.133,0,0,1-.434-.941q0-.711,1.031-1.264a2.963,2.963,0,0,1-.361-.485.984.984,0,0,1-.1-.478.9.9,0,0,1,.371-.773,1.443,1.443,0,0,1,.875-.27,1.4,1.4,0,0,1,.855.258.844.844,0,0,1,.353.723q0,.622-1.007,1.176.5.617.817.944a2.31,2.31,0,0,0,.3-.674l.516.365a4.187,4.187,0,0,1-.371.761q.251.258.642.622l-.472.441-.579-.573A1.963,1.963,0,0,1,512.057,194.57Zm-.547-.789a1.037,1.037,0,0,0,.636.179,1.361,1.361,0,0,0,.842-.365q-.635-.667-1.006-1.12-.711.383-.711.843A.553.553,0,0,0,511.51,193.781Zm.871-3.205a.589.589,0,0,0-.377.132.386.386,0,0,0-.167.308.6.6,0,0,0,.084.317,3.682,3.682,0,0,0,.293.393c.475-.235.711-.453.711-.654a.433.433,0,0,0-.167-.374A.624.624,0,0,0,512.381,190.576Z" transform="translate(-444.561 -190.017)" fill="#fff"/><path d="M525.333,193.913a2.412,2.412,0,0,1-3.3,0,2.31,2.31,0,0,1,0-3.245,2.414,2.414,0,0,1,3.3,0,2.309,2.309,0,0,1,0,3.245Zm-.544-2.752a1.542,1.542,0,0,0-2.208,0,1.642,1.642,0,0,0,0,2.258,1.542,1.542,0,0,0,2.208,0,1.643,1.643,0,0,0,0-2.258Z" transform="translate(-446.999 -190.017)" fill="#fff"/><path d="M531.24,190.7a.97.97,0,0,0-.531.132.441.441,0,0,0-.208.4.465.465,0,0,0,.208.41,3.146,3.146,0,0,0,.883.305,2.418,2.418,0,0,1,1.02.459,1.087,1.087,0,0,1,.343.871,1.156,1.156,0,0,1-.433.934,1.735,1.735,0,0,1-1.139.358,2.671,2.671,0,0,1-1.83-.71l.464-.561a2.094,2.094,0,0,0,1.384.579.946.946,0,0,0,.57-.154.485.485,0,0,0,.21-.409.458.458,0,0,0-.2-.4,2.068,2.068,0,0,0-.682-.258,5.946,5.946,0,0,1-.736-.214,1.634,1.634,0,0,1-.446-.254,1.064,1.064,0,0,1-.39-.906,1.1,1.1,0,0,1,.443-.941,1.79,1.79,0,0,1,1.1-.33,2.627,2.627,0,0,1,.836.138,2.188,2.188,0,0,1,.718.39l-.4.56a1.515,1.515,0,0,0-.529-.29A2.045,2.045,0,0,0,531.24,190.7Z" transform="translate(-448.846 -190.017)" fill="#fff"/><path d="M538.126,190.834v3.718h-.742v-3.718h-1.333v-.68h3.409v.68Z" transform="translate(-450.313 -190.048)" fill="#fff"/><path d="M546.036,190.154v.7H543.69v1.164H545.8v.66H543.69v1.176h2.422v.7h-3.164v-4.4Z" transform="translate(-451.871 -190.048)" fill="#fff"/><path d="M553.232,193.913a2.412,2.412,0,0,1-3.3,0,2.308,2.308,0,0,1,0-3.245,2.414,2.414,0,0,1,3.3,0,2.309,2.309,0,0,1,0,3.245Zm-.545-2.752a1.541,1.541,0,0,0-2.207,0,1.642,1.642,0,0,0,0,2.258,1.541,1.541,0,0,0,2.207,0,1.642,1.642,0,0,0,0-2.258Z" transform="translate(-453.298 -190.017)" fill="#fff"/><path d="M560.882,190.538a1.456,1.456,0,0,1,.459,1.183,1.4,1.4,0,0,1-.469,1.17,2.3,2.3,0,0,1-1.437.371h-.78v1.29h-.742v-4.4h1.51A2.263,2.263,0,0,1,560.882,190.538Zm-.526,1.815a.967.967,0,0,0,.223-.692.715.715,0,0,0-.282-.644,1.628,1.628,0,0,0-.886-.189h-.755v1.761h.861A1.148,1.148,0,0,0,560.356,192.353Z" transform="translate(-455.25 -190.048)" fill="#fff"/><path d="M565.061,193.551l-.441,1h-.792l1.937-4.4h.793l1.937,4.4H567.7l-.44-1Zm1.9-.686-.8-1.812-.8,1.812Z" transform="translate(-456.585 -190.048)" fill="#fff"/><path d="M573.191,190.834v3.718h-.742v-3.718h-1.334v-.68h3.409v.68Z" transform="translate(-458.231 -190.048)" fill="#fff"/><path d="M578.013,194.551v-4.4h.742v1.906h2.183v-1.906h.742v4.4h-.742v-1.8h-2.183v1.8Z" transform="translate(-459.788 -190.048)" fill="#fff"/><path d="M587.317,194.551h-.755v-1.737l-1.635-2.661h.811l1.2,2,1.2-2h.811l-1.635,2.661Z" transform="translate(-461.349 -190.048)" fill="#fff"/></g></g></g></svg>