<svg xmlns="http://www.w3.org/2000/svg" width="200" height="200" viewBox="0 0 200 200"><g transform="translate(-292 -328)"><rect width="200" height="200" transform="translate(292 328)" fill="#070707" opacity="0"/><g transform="translate(255.258 41.436)"><path d="M56.742,366.564h19.2l-19.2,13.772Z" fill="#fff"/><g transform="translate(103.59 392.779)"><path d="M128.639,404.317a30.325,30.325,0,0,1,4.247.454v.78c-.018,0-2.577-.2-4.247-.2-2.4,0-3.395,1.107-3.395,5.755,0,3.376.871,5.718,3.395,5.718,1.906,0,4.247-.164,4.247-.164v.8a29.688,29.688,0,0,1-4.247.4c-3.359,0-4.429-2.887-4.429-6.79C124.21,406.84,125.009,404.317,128.639,404.317Z" transform="translate(-124.21 -404.317)" fill="#fff"/><path d="M143.817,404.4c3.14,0,5.046.6,5.046,6.826,0,5.864-1.779,6.626-5.046,6.626s-5.047-.58-5.047-6.626C138.77,404.994,140.748,404.4,143.817,404.4Zm0,12.417c2.923,0,4.011-.781,4.011-5.591,0-5.573-1.38-5.791-4.011-5.791-2.505,0-4.012.128-4.012,5.791C139.8,416.14,140.821,416.812,143.817,416.812Z" transform="translate(-128.66 -404.341)" fill="#fff"/><path d="M156.858,404.526h1.053l7.389,11.346V404.526h1.035v13.288H165.3l-7.407-11.346v11.346h-1.035Z" transform="translate(-134.188 -404.381)" fill="#fff"/><path d="M173.326,404.526H182.6v1.035h-4.175v12.254h-1.035V405.561h-4.066Z" transform="translate(-139.221 -404.381)" fill="#fff"/><path d="M189.192,404.526h5.447c1.615,0,3.1.781,3.1,3.866,0,3.45-1.725,3.758-2.505,3.813l2.85,5.609h-1.125l-2.832-5.573c-.327-.018-3.867-.218-3.9-.236v5.809h-1.035Zm5.447,6.608c1.035,0,2.05-.145,2.05-2.741,0-2.523-1.053-2.813-2.05-2.813h-4.411v5.554Z" transform="translate(-144.07 -404.381)" fill="#fff"/><path d="M208.985,404.526h1.108l4.684,13.288H213.56l-1.307-4.012H206.7l-1.38,4.012h-1.253Zm2.905,8.242-2.361-6.735-2.45,6.735Z" transform="translate(-148.616 -404.381)" fill="#fff"/><path d="M225.145,404.317a30.345,30.345,0,0,1,4.248.454v.78c-.019,0-2.578-.2-4.248-.2-2.4,0-3.395,1.107-3.395,5.755,0,3.376.871,5.718,3.395,5.718,1.906,0,4.248-.164,4.248-.164v.8a29.706,29.706,0,0,1-4.248.4c-3.359,0-4.429-2.887-4.429-6.79C220.716,406.84,221.515,404.317,225.145,404.317Z" transform="translate(-153.705 -404.317)" fill="#fff"/><path d="M235.354,404.526h9.277v1.035h-4.175v12.254h-1.035V405.561h-4.067Z" transform="translate(-158.178 -404.381)" fill="#fff"/><path d="M251.823,404.526h1.035v13.288h-1.035Z" transform="translate(-163.212 -404.381)" fill="#fff"/><path d="M257.286,404.526h1.053l7.389,11.346V404.526h1.035v13.288h-1.035l-7.407-11.346v11.346h-1.035Z" transform="translate(-164.881 -404.381)" fill="#fff"/><path d="M278.3,404.317a35.215,35.215,0,0,1,4.575.49v.817c-.109,0-2.814-.272-4.575-.272-2.614,0-3.123,1.961-3.123,5.718,0,4.193.744,5.718,3.195,5.755a14.879,14.879,0,0,0,3.776-.871v-4.211h-3.34v-.69a11.474,11.474,0,0,1,3.141-.363c.381,0,.8.018,1.234.055v7.007h-.762l-.236-.926a8.5,8.5,0,0,1-3.813,1.017c-3.757.036-4.229-3-4.229-6.808C274.146,407.4,274.691,404.317,278.3,404.317Z" transform="translate(-170.034 -404.317)" fill="#fff"/></g><g transform="translate(99.431 366.564)"><path d="M118.651,406.089a.428.428,0,0,1-.431-.425V366.989a.431.431,0,0,1,.862,0v38.675A.428.428,0,0,1,118.651,406.089Z" transform="translate(-118.22 -366.564)" fill="#fff"/></g><path d="M73.256,417.06H77.3l-2.351-14.6Z" transform="translate(-5.047 -10.972)" fill="#fff"/><path d="M91.327,417.06H95.4l-1.837-14.6Z" transform="translate(-10.57 -10.972)" fill="#fff"/><path d="M96.266,386.343l-19.8-13.988L56.742,386.343h0v21.516H61l2.33-21.516L73.8,378.9l2.669,17.3,2.816-17.245,10.41,7.394,2.359,21.516h4.214V386.343Z" transform="translate(0 -1.77)" fill="#fff"/><g transform="translate(103.625 366.787)"><g transform="translate(0)"><path d="M126.519,367.245h7.816l1.8,11.9,1.91-11.9h7.817l2.287,21.191h-5.529l-1.448-11.551L139.4,388.436h-6.426l-1.853-11.551-1.332,11.551h-5.53Z" transform="translate(-124.26 -366.995)" fill="#fff"/><path d="M164.954,367.245h5.616v21.191h-5.616Z" transform="translate(-136.697 -366.995)" fill="#fff"/><path d="M179.463,367.245h5.327v8.337h1.158l4.313-8.337h6.456L190.9,377.9l5.819,10.538h-6.456l-4.313-8.105h-1.129v8.105h-5.356Z" transform="translate(-141.131 -366.995)" fill="#fff"/><path d="M210.149,367.245h5.616v14.649c0,1.535.955,1.505,1.795,1.505h5.963v5.037h-8.569c-2.634,0-4.805-1.244-4.805-4.516Z" transform="translate(-150.51 -366.995)" fill="#fff"/><path d="M242.435,367.036c5.009,0,8.771.955,8.771,10.885,0,9.351-3.561,10.567-8.771,10.567s-8.772-.926-8.772-10.567C233.663,367.991,237.571,367.036,242.435,367.036Zm0,16.415c2.489,0,3.155-1.042,3.155-5.53,0-4.921-.521-5.847-3.155-5.847-2.548,0-3.156.666-3.156,5.847C239.279,382.35,239.6,383.451,242.435,383.451Z" transform="translate(-157.696 -366.931)" fill="#fff"/><path d="M264.642,372.694c0-3.793,2.489-5.53,5.732-5.733a21.154,21.154,0,0,1,8.975.955v4.372c-1.853-.2-5.038-.29-6.949-.29-1.563,0-2.142.058-2.142,1.274v.319c0,.9.174,1.389,1.737,1.389h2.722c4.4,0,5.413,3.821,5.413,6.138v.955c0,5.385-3.011,6.485-5.876,6.485-5.414,0-6.051,0-8.946-.985V383.2c1.158.116,4.807.319,7.5.319,1.245,0,1.708-.319,1.708-1.187v-.463c0-.84-.26-1.273-1.535-1.273h-2.605c-5.5,0-5.732-4.777-5.732-6.138Z" transform="translate(-167.164 -366.885)" fill="#fff"/></g></g><path d="M86.007,366.564l8.4,6.024v-2.182h1.517a3.518,3.518,0,0,1,.206-.444,3.349,3.349,0,0,1,.764-.946,2.791,2.791,0,0,1,1.58-.649,3.4,3.4,0,0,1,1.305.14,2.047,2.047,0,0,1,.558.255c.2.135.394.274.59.412a.3.3,0,0,1,.033.031c-.1-.058-.207-.122-.315-.179-.162-.085-.323-.174-.491-.246a2.363,2.363,0,0,0-.587-.15,3.812,3.812,0,0,0-.79-.047.9.9,0,0,0-.119.016,1.208,1.208,0,0,1,.521.337l-.007.017a.5.5,0,0,1-.074-.021,1.331,1.331,0,0,1-.126-.062,1.071,1.071,0,0,0-1.073-.031,3.371,3.371,0,0,0-.665.428,2.548,2.548,0,0,0-.485.537c-.083.124-.162.251-.233.382a1.884,1.884,0,0,0-.1.221h1.258v4.527l7.532,5.4V366.564Zm14.3,4.163a2.968,2.968,0,0,1-.158.757,2.138,2.138,0,0,1-.529.828.608.608,0,0,1-.083.069.075.075,0,0,1-.124-.024.3.3,0,0,1-.031-.054,3.024,3.024,0,0,0-.574-.851,3.725,3.725,0,0,1-.456-.61,1.2,1.2,0,0,1-.178-.471,1.219,1.219,0,0,1,.056-.471,1.848,1.848,0,0,1,.159-.394.887.887,0,0,1,.283-.326.392.392,0,0,1,.526.042,1.041,1.041,0,0,1,.24.344,2.35,2.35,0,0,1,.219.824,3.358,3.358,0,0,1-.04.646c-.021.163-.042.326-.063.49,0,.01,0,.02,0,.031h.006l.027-.1a5.771,5.771,0,0,0,.151-.7,2.348,2.348,0,0,0-.086-.974,2.268,2.268,0,0,0-.273-.621.087.087,0,0,1,.015-.116.183.183,0,0,1,.252,0,1.665,1.665,0,0,1,.406.487A1.981,1.981,0,0,1,100.31,370.727Zm3-.908a.438.438,0,0,1-.083.057,3.072,3.072,0,0,1-.729.289,1.324,1.324,0,0,1-.751-.022,1.725,1.725,0,0,1-.429-.229,1.049,1.049,0,0,1-.253-.24.741.741,0,0,1-.072-.138.1.1,0,0,1,.009-.091c.014-.029.031-.033.058-.018.067.037.133.074.2.109a1.746,1.746,0,0,0,.787.206c.16,0,.32,0,.48,0a.586.586,0,0,0,.11-.015.225.225,0,0,0,.04-.016V369.7a.309.309,0,0,0-.06-.01c-.126,0-.251,0-.376-.012a2.652,2.652,0,0,1-.717-.14,3.925,3.925,0,0,1-.363-.171.2.2,0,0,1-.049-.038c-.056-.051-.058-.108-.006-.181a.751.751,0,0,1,.621-.334,1.251,1.251,0,0,1,.406.074,1.33,1.33,0,0,1,.385.184,1.212,1.212,0,0,1,.191.172,2.268,2.268,0,0,0,.29.3c.072.055.15.1.226.15.025.016.052.028.076.044S103.337,369.792,103.307,369.819Z" transform="translate(-8.944 0)" fill="#fff"/></g></g></svg>