<svg xmlns="http://www.w3.org/2000/svg" width="200" height="200" viewBox="0 0 200 200"><g transform="translate(-72 -108)"><rect width="200" height="200" transform="translate(72 108)" opacity="0"/><g transform="translate(173.936 -1153.497)"><g transform="translate(-66.936 1340.497)"><path d="M-59.1,1372.239c0,4.068-1.52,6.076-5.488,6.076a14.181,14.181,0,0,1-2.352-.2v-1.812a14.354,14.354,0,0,0,1.912.148c2.892,0,3.773-1.471,3.773-4.215v-29.251H-59.1Z" transform="translate(66.936 -1336.96)" fill="#fff"/><path d="M-36.033,1368.319l-.392-5.438c-1.028,3.38-3.872,5.682-10.141,5.682-8.82,0-10.437-4.653-10.437-12v-13.573h2.156v13.718c0,6.371,1.224,10.045,8.769,10.045,7.5,0,9.161-3.625,9.161-10.142v-13.621h2.207v25.331Z" transform="translate(81.039 -1336.96)" fill="#fff"/><path d="M-29.772,1368.708c-8.23,0-11.709-3.281-11.709-9.8h2.108c0,5.241,2.792,7.985,9.553,7.985,6.224,0,8.428-2.449,8.428-4.85.048-7.644-19.453-3.235-19.453-12.2,0-4.164,2.843-6.96,10.34-6.96,7.693,0,10.633,3.872,10.633,9.36h-2.011c-.048-4.508-2.4-7.6-8.673-7.6-6.125,0-8.181,2.156-8.181,4.951,0,7.25,19.453,3.134,19.453,12.3C-19.285,1365.328-22.225,1368.708-29.772,1368.708Z" transform="translate(103.076 -1337.105)" fill="#fff"/><path d="M-21.929,1348.337v16.07c0,4.068,1.861,5.88,7.2,5.88.636,0,1.273-.049,2.008-.1v1.861c-.636.048-1.275.048-1.863.048-6.664,0-9.457-2.153-9.457-7.693v-16.07h-3.037v-1.52l3.037-.392V1340.5h2.108v6.028h9.212v1.812Z" transform="translate(123.533 -1340.497)" fill="#fff"/></g><g transform="translate(-40.693 1377.441)"><path d="M-56.091,1357.625v-1.861h17.88v1.861Z" transform="translate(56.091 -1355.764)" fill="#fff"/></g><path d="M-11.163,1353.5l-1.687-2.26-1.687,2.26a2.1,2.1,0,0,0-.414,1.253,2.1,2.1,0,0,0,2.1,2.1,2.1,2.1,0,0,0,2.1-2.1A2.084,2.084,0,0,0-11.163,1353.5Z" transform="translate(73.811 15.247)" fill="#fff"/><rect width="2.156" height="3.436" transform="translate(-61.251 1340.497)" fill="#fff"/></g></g></svg>