<svg xmlns="http://www.w3.org/2000/svg" width="200" height="200" viewBox="0 0 200 200"><g transform="translate(-72 -548)"><rect width="200" height="200" transform="translate(72 548)" fill="#070707" opacity="0"/><g transform="translate(-35.328 -514.621)"><g transform="translate(176.628 1148.893)"><path d="M272.65,1150.4h3.076v16.275l15.652-16.275h3.971l-11.681,11.914,12.187,15.341H292l-10.474-13.2-5.8,5.879v7.32H272.65Z" transform="translate(-272.65 -1150.201)" fill="#fff"/><path d="M381.816,1149.656H384.7l12.421,27.45h-3.31l-3.193-7.2H375.78l-3.232,7.2h-3.154Zm7.592,17.444-6.191-13.861-6.23,13.861Z" transform="translate(-343.932 -1149.656)" fill="#fff"/><path d="M495.133,1150.4h3.115l9.928,14.874L518.1,1150.4h3.115v27.255h-3.076v-22.076l-9.929,14.6h-.156l-9.929-14.562v22.037h-3Z" transform="translate(-436.576 -1150.201)" fill="#fff"/><path d="M624.567,1150.4h3.076v27.255h-3.076Z" transform="translate(-531.944 -1150.201)" fill="#fff"/></g><g transform="translate(142.328 1148.621)"><path d="M169.27,1157.667a5.644,5.644,0,0,1-3.289.315,12.038,12.038,0,0,1,.954,4.734v.078c0,5.582-3.609,10.181-8.885,11.032,0-.554-.022-1.135-.076-1.739a18.006,18.006,0,0,1,1.295-7.538,2.422,2.422,0,0,0,.287-2.295,1.7,1.7,0,0,0-.583-.745,4.648,4.648,0,0,0-.333-2.543,1.557,1.557,0,0,0-1.334-.782h0a1.549,1.549,0,0,0-.418.058,2.053,2.053,0,0,0-1.236,1.078,3.186,3.186,0,0,1-1.63,1.382,4.511,4.511,0,0,0-1.968,2.035,2.655,2.655,0,0,1-.306.477h0l-.027.006a5.185,5.185,0,0,0-3.98,2.914,1.32,1.32,0,0,0,1.169,1.8c-.006.1-.019.225-.042.374-.061.39-.267.83-1.242,1.214a11.745,11.745,0,0,1-2.105-6.8v-.078c0-6.191,4.439-11.175,10.668-11.175a10.54,10.54,0,0,1,5.287,1.383c-.01-.136-.021-.271-.021-.409a5.619,5.619,0,0,1,.641-2.607,14.2,14.2,0,0,0-5.83-1.21,13.809,13.809,0,0,0-13.939,14.095v.078a14.485,14.485,0,0,0,2.146,7.649q.359.578.772,1.118c.051-.021.1-.042.149-.064.381-.175,1.225-.284,2.1-.543,1.193-.354,2.447-.987,2.675-2.447.263-1.685-.355-1.967-.8-1.967a1.2,1.2,0,0,0-.4.071,3.937,3.937,0,0,1,3.009-2.1c1.316-.263,1.053-1.842,2.632-2.632,2.35-1.175,2.032-2.2,2.632-2.369a.227.227,0,0,1,.061-.009c.53,0,.405,2.131.26,2.4-.12.224-.359.925-.1.925a.584.584,0,0,0,.305-.156.511.511,0,0,1,.3-.132c.407,0,.413.937.148,1.2a18.183,18.183,0,0,0-1.561,8.461,18.769,18.769,0,0,1-.166,4.6c.457-.009.907-.036,1.347-.085a13.813,13.813,0,0,0,12.287-14v-.078A14.745,14.745,0,0,0,169.27,1157.667Z" transform="translate(-142.328 -1148.621)" fill="#fff"/><circle cx="3.816" cy="3.816" r="3.816" transform="translate(20.969 0)" fill="#fff"/><path d="M181.044,1228.067c.659-1.185.857-1.573.642-1.831a.364.364,0,0,0-.427-.09,3.826,3.826,0,0,0-.883.432c.167-.926.622-2.552,1.756-2.552a.263.263,0,0,0,0-.526c-2.062,0-2.356,3.515-2.368,3.665a.263.263,0,0,0,.448.207,3.506,3.506,0,0,1,.929-.614c-.131.287-.369.714-.558,1.054a7.3,7.3,0,0,0-1.084,2.532.263.263,0,1,0,.526,0A7.9,7.9,0,0,1,181.044,1228.067Z" transform="translate(-169.716 -1203.792)" fill="#fff"/></g></g></g></svg>