<svg xmlns="http://www.w3.org/2000/svg" width="200" height="200" viewBox="0 0 200 200"><g transform="translate(-1180 -548)"><rect width="200" height="200" transform="translate(1180 548)" fill="#070707" opacity="0"/><g transform="translate(1086.336 375.496)"><g transform="translate(165.98 243.767)"><g transform="translate(0 0)"><path d="M196.022,311.18c.153.107-.616.238-.709.17C195.164,311.243,195.941,311.126,196.022,311.18Z" transform="translate(-185.143 -262.187)" fill="#fff" fill-rule="evenodd"/><path d="M187.551,290.85c-.173.015.269-.022,0,0Z" transform="translate(-183.196 -257.105)" fill="#fff" fill-rule="evenodd"/><path d="M191.022,288.273c-.215,0,.728-.585,1.395-.9a2.553,2.553,0,0,1,.613-.257,4.775,4.775,0,0,1-.866.538A8.273,8.273,0,0,1,191.022,288.273Z" transform="translate(-184.066 -256.173)" fill="#fff" fill-rule="evenodd"/><path d="M194.44,286.6c-.481-.089,3.393-1.615.854-.4A6.636,6.636,0,0,1,194.44,286.6Z" transform="translate(-184.919 -255.828)" fill="#fff" fill-rule="evenodd"/><path d="M197.479,285.39c-.172-.029.391-.434.492-.418C198.142,285,197.58,285.4,197.479,285.39Z" transform="translate(-185.681 -255.637)" fill="#fff" fill-rule="evenodd"/><path d="M214.889,269.386a18.759,18.759,0,0,0-4.146.918c-1.825.536-3.711,1.186-4.479,1.408-3.267.924-6.905,2.026-10.567,3.432a34.04,34.04,0,0,0-4.309,2.1c-1.375.772-2.65,1.549-3.782,2.1-.761.371-.447-.178-1.086.226a13.051,13.051,0,0,0-2.693,2.31c-.224.241-.472.583-.7.886a8.946,8.946,0,0,0-.7,1.2l-.161.348c-.053.131-.1.277-.152.418s-.094.284-.136.427-.079.329-.111.493-.06.343-.082.515a5.53,5.53,0,0,0-.033.574c0,.2,0,.392.011.587s.051.414.088.62a5.56,5.56,0,0,0,.353,1.2,5.763,5.763,0,0,0,.556,1.041,4.006,4.006,0,0,0,.318.431c.108.133.22.262.334.389a7.789,7.789,0,0,0,.662.616,8.944,8.944,0,0,0,2.319,1.334,21.779,21.779,0,0,0,3.564,1.006c.8.167,1.347.588,1.675.616-.255-.019.677-.335,1.064-.352.679-.008,1.514.013,2.33.019a19.238,19.238,0,0,0,2.186-.093c-.6.074-1.155-.061-.628-.16,1.828-.331,4.548-.359,7.079-.887,2.549-.51,5.686-1.306,8.931-2.277.812-.239,1.63-.5,2.449-.752l1.228-.394,1.248-.415c1.656-.567,3.273-1.189,4.794-1.845,1.844-.8,3.6-1.66,5.316-2.562a51.2,51.2,0,0,0,4.954-2.947,24.186,24.186,0,0,0,4.44-3.815,15.247,15.247,0,0,0,1.815-2.519,11.149,11.149,0,0,0,1.223-3.126,8.5,8.5,0,0,0,0-3.684,8.315,8.315,0,0,0-.633-1.791,8.9,8.9,0,0,0-.992-1.547,10.78,10.78,0,0,0-2.529-2.269,15.9,15.9,0,0,0-2.79-1.445,28.306,28.306,0,0,0-5.791-1.582,54.245,54.245,0,0,0-6-.664c-2.167-.127-4.155-.152-6.047-.129s-3.69.093-5.469.21l-2.632.183-2.643.173c-1.786.106-3.636.206-5.61.252-.886.023-1.772.035-2.658.023a7.8,7.8,0,0,1-2.991-.433c-.052-.022-.254-.113-.178.026a.406.406,0,0,0,.158.12,3.738,3.738,0,0,0,1.021.3,6.564,6.564,0,0,0,1.326.187c1.444.015,2.91-.053,3.312-.06,3.45-.06,6.669-.236,10.435-.426.217-.007.966.024,1.693.059a7.05,7.05,0,0,0,1.569-.008,24.4,24.4,0,0,1-3.035.175l-3.723.114-6.036.289c-1.079.04-2.188.071-3.306.06-.845-.008-3.537-.271-3.99-.991-.423-.676,1.349-1.8,1.847-2.074a34.95,34.95,0,0,1,3.881-1.792c.589-.232,1.182-.457,1.78-.664,4.532-1.579,8.695-2.916,12.979-4,2.143-.538,4.32-1,6.594-1.337a41.3,41.3,0,0,1,7.172-.47,17.918,17.918,0,0,1,2,.309,2.958,2.958,0,0,0,1.856-.062c.127-.079-.671-.833-1.19-1.255a2.6,2.6,0,0,1-.381-.325c.058.034.36.226,1.041.745-.805-.608-.648.161-.211-1.211.319-.966-1.4-1.525-3.729-1.593a30.439,30.439,0,0,0-7.279.768c-5.7,1.322-11.256,3.175-16.825,4.938q-2.84.9-5.6,2.031a27.234,27.234,0,0,0-5.183,2.587,9.644,9.644,0,0,0-1,.763,5.132,5.132,0,0,0-1.084,1.273,3.2,3.2,0,0,0-.438,1.4,2.783,2.783,0,0,0,.1.95,2.859,2.859,0,0,0,.379.811,3.354,3.354,0,0,0,.916.9,4.707,4.707,0,0,0,.777.413,7.5,7.5,0,0,0,1.3.4c.4.088.783.152,1.156.2a32.628,32.628,0,0,0,4.194.219c2.664-.006,5.139-.147,7.4-.19,1.481-.025,3.13-.1,4.809-.175s3.444-.116,5.252-.121a65.663,65.663,0,0,1,10.908.781,32.219,32.219,0,0,1,4.641,1.119,17.645,17.645,0,0,1,2.139.876A10.1,10.1,0,0,1,234.565,267a4.729,4.729,0,0,1,1.879,3.443,7.8,7.8,0,0,1-1.263,4.321,17.96,17.96,0,0,1-3.212,3.882,27.567,27.567,0,0,1-4.135,3.149,42.25,42.25,0,0,1-9.581,4.357c-1.736.556-3.47,1-5.189,1.413s-3.426.768-5.132,1.078a53.588,53.588,0,0,1-8.41.979c-3.2.069-6.69.056-9.632-1.391a1.92,1.92,0,0,1-.621-3.161c2.91-3.767,7.345-5.46,11.552-7.307,2.105-.924,4.246-1.774,6.381-2.627a144.585,144.585,0,0,1,13.954-4.74c2.077-.589,4.88-1.434,7.277-2,2.391-.583,4.372-.915,4.634-1.054a19.943,19.943,0,0,1-2.033.343c-.835.083.994-.287-.335-.177-1.592.157-2.116.476-.664-.331,1.709-.979.49-.487-1.789,0-1.679.361.172-.139,1.9-.619s3.324-.957,1.163-.469l-7.131,1.643c.01-.01.291-.087.69-.194l1.4-.385c.966-.274,1.8-.534,1.29-.454-.4.066-1.982.521-2.83.78-.88.268-1.549.637-1.945.737-.145.036.605-.415-.351-.242-1.255.226-3.327.926-5.115,1.382-3.5.885-6.062,1.74-8.792,2.588-1.9.586-4.449,1.534-5.9,1.978a39.776,39.776,0,0,0-4.535,1.486c-.194.077-1.252.258-1.464.382-.154.092-.027.415-.688.691-2.107.878-4.215,1.792-6.312,2.911a26.323,26.323,0,0,0-3.14,1.957,13.373,13.373,0,0,0-1.577,1.368,7.5,7.5,0,0,0-1.528,2.186,5.258,5.258,0,0,0-.445,1.9,4.269,4.269,0,0,0,.007.57c.02.2.049.4.086.594a5.007,5.007,0,0,0,.38,1.123,5.153,5.153,0,0,0,.575.916c.1.13.214.266.322.383s.21.208.319.31a6.668,6.668,0,0,0,1.243.9,10.4,10.4,0,0,0,2.175.907,15.752,15.752,0,0,0,1.938.431,25.253,25.253,0,0,0,6.939.04c-.028-.238.449-.148,0,0,1.3-.06,2.937-.209,4.752-.465s3.8-.624,5.8-1.063,4.009-.967,5.888-1.487c.939-.263,1.844-.531,2.7-.787l1.26-.394,1.165-.39c1.221-.43,2.622-1.063,4.541-1.783,1.567-.617.5-.085-1.146.6s-3.885,1.462-4.527,1.675c-1.2.391-2.388.755-3.621,1.126s-2.5.72-3.79,1.061c-2.587.685-5.3,1.3-8.125,1.761a45.686,45.686,0,0,1-8.9.643c-.784-.027-1.585-.091-2.412-.2a17.557,17.557,0,0,1-2.593-.525c-.235-.073-.469-.146-.7-.227-.25-.1-.487-.183-.743-.3a8.786,8.786,0,0,1-.8-.4c-.139-.081-.274-.159-.413-.247s-.3-.208-.44-.316a5.863,5.863,0,0,1-1.735-2.082,5.286,5.286,0,0,1-.468-1.611,4.318,4.318,0,0,1-.035-.811c0-.133.011-.265.022-.4s.035-.235.056-.352.045-.233.07-.349a2.653,2.653,0,0,1,.087-.323q.1-.294.208-.582c.075-.19.154-.33.235-.495a4.932,4.932,0,0,1,.251-.448,8.267,8.267,0,0,1,.517-.743,7.988,7.988,0,0,1,.522-.618,14.464,14.464,0,0,1,2.062-1.828,30.067,30.067,0,0,1,4.05-2.483,69.475,69.475,0,0,1,8.021-3.458c2.646-.971,5.253-1.817,7.778-2.606s5.007-1.5,7.358-2.141c-.068-.142.394-.193,0,0C216.233,269.887,214.753,269.373,214.889,269.386Zm-11.98,3.559c-.438-.09,3.39-1.155.85-.279A6.612,6.612,0,0,1,202.909,272.945ZM226.1,285.271c-1.085.491-1.392.586-1.2.472s.864-.462,1.725-.915,1.9-1.02,2.837-1.561,1.752-1.063,2.194-1.343c-.21.134.458-.3,1.193-.82a19.729,19.729,0,0,1,1.666-1.138s-.073.061-.192.167-.291.253-.5.425-.451.376-.719.582-.552.43-.847.64c-1.17.859-2.424,1.634-2.567,1.717A35.076,35.076,0,0,1,226.1,285.271ZM206.6,272.73c-.166-.028.628-.451.795-.424S206.764,272.755,206.6,272.73Zm28.421,6.839Zm1.809-1.89c-.046.054-.177.233-.341.441a6.957,6.957,0,0,1-.529.63c-.344.358-.553.5-.175-.264.009-.017.193-.2.48-.533.145-.16.317-.355.5-.586s.39-.485.6-.773a11.708,11.708,0,0,0,2.067-4.451,8.412,8.412,0,0,0,.153-2.234c-.039-.619-.148-1.057-.163-1.228s.027-.079.148.385a7.048,7.048,0,0,1,.155,2.611,10.038,10.038,0,0,1-.969,3.281A11.029,11.029,0,0,1,236.826,277.678Zm-9.712-10.2Zm10.675-1.982c-.04-.193.592.379.6.512.008.1-.123-.019-.276-.152A1.4,1.4,0,0,1,237.788,265.5Zm-2.18-1.819a13.816,13.816,0,0,1,1.453,1.054,1.534,1.534,0,0,1,.338.342c-.031,0-.226-.181-.727-.517-.254-.19-.876-.664-1.62-1.138a21.651,21.651,0,0,0-2.3-1.219l-.853-.372a1.88,1.88,0,0,1-.34-.16,1.351,1.351,0,0,1,.4.108c.283.1.731.249,1.369.541C232.133,261.821,234.276,262.682,235.608,263.681Zm-22.4-3.912a9.04,9.04,0,0,0,1.981-.037l1.117-.1.356-.028a1.037,1.037,0,0,1,.13-.007C216.26,260.2,214.3,260.145,213.212,259.769Zm3.872.018c.318-.592,2.275.158.882.206C218.007,259.986,217.14,259.685,217.083,259.786Zm2.388.1a6.29,6.29,0,0,1,1.515-.076.869.869,0,0,1-.154.071,2.584,2.584,0,0,1-.391.12A1.229,1.229,0,0,1,219.471,259.885Zm4.182.388a4.857,4.857,0,0,0,1.944.193,4,4,0,0,1,1.975.3c.023.031-.864-.065-1.8-.145-.468-.048-.949-.1-1.336-.147A2.189,2.189,0,0,1,223.653,260.273Z" transform="translate(-181.758 -245.855)" fill="#fff" fill-rule="evenodd"/><path d="M202.893,283.281c-.205-.04,1.006-.525,1.985-.852s1.721-.514.578-.049l-1.214.459A8.785,8.785,0,0,1,202.893,283.281Z" transform="translate(-187.037 -254.919)" fill="#fff" fill-rule="evenodd"/><path d="M208.6,281.4a3.955,3.955,0,0,0,1.215-.5,3.368,3.368,0,0,1,1.3-.464s-.442.269-.973.526A3.032,3.032,0,0,1,208.6,281.4Z" transform="translate(-188.47 -254.502)" fill="#fff" fill-rule="evenodd"/><path d="M213.547,279.553c.088.016,1.384-.508,2.787-.994a13.752,13.752,0,0,1,3.214-.866,25.129,25.129,0,0,0-2.79.936A11.7,11.7,0,0,1,213.547,279.553Z" transform="translate(-189.707 -253.815)" fill="#fff" fill-rule="evenodd"/><path d="M223.511,277.208a2.327,2.327,0,0,1,1.117-.427C224.947,276.824,223.351,277.487,223.511,277.208Z" transform="translate(-192.196 -253.588)" fill="#fff" fill-rule="evenodd"/><path d="M206.212,309.821c.161.077-.759.39-.921.31S206.053,309.75,206.212,309.821Z" transform="translate(-187.638 -261.848)" fill="#fff" fill-rule="evenodd"/><path d="M226.318,276.963s.306-.133.634-.262a3.383,3.383,0,0,1,.768-.237.845.845,0,0,1-.125.09,3.425,3.425,0,0,1-.337.189A1.756,1.756,0,0,1,226.318,276.963Z" transform="translate(-192.901 -253.509)" fill="#fff" fill-rule="evenodd"/><path d="M232.178,275.128c-1.289.629-5.115,1.372-.808.442,1.566-.339.631-.04-.758.351s-3.231.891-3.49.91c-1.015.071,1.713-.667,1.111-.427.262-.106.622-.443.23-.308C228.979,275.919,231.346,275.358,232.178,275.128Z" transform="translate(-193.045 -253.175)" fill="#fff" fill-rule="evenodd"/><path d="M233.939,275.091c-.059-.123.4-.172,0,0Z" transform="translate(-194.805 -253.138)" fill="#fff" fill-rule="evenodd"/><path d="M234.7,274.659c-.046-.1,3.863-1.282,2.875-.628a17.253,17.253,0,0,1-2.3.481l-.3.078C234.835,274.626,234.7,274.659,234.7,274.659Z" transform="translate(-194.997 -252.852)" fill="#fff" fill-rule="evenodd"/><path d="M240.422,273.351a8.408,8.408,0,0,1,1.7-.559c.754-.222,1.138-.29-.566.239A9.852,9.852,0,0,1,240.422,273.351Z" transform="translate(-196.422 -252.55)" fill="#fff" fill-rule="evenodd"/><path d="M238.937,274.026c-.155-.013.677-.341.832-.33S239.093,274.043,238.937,274.026Z" transform="translate(-196.052 -252.817)" fill="#fff" fill-rule="evenodd"/><path d="M244.59,272.315l.625-.289a3.638,3.638,0,0,1,.747-.293.819.819,0,0,1-.123.1,3.54,3.54,0,0,1-.331.214A1.792,1.792,0,0,1,244.59,272.315Z" transform="translate(-197.47 -252.326)" fill="#fff" fill-rule="evenodd"/><path d="M259.629,273.454c.286-.068.424.421.418.662S259.914,274.365,259.629,273.454Z" transform="translate(-201.231 -252.755)" fill="#fff" fill-rule="evenodd"/><path d="M259.354,273.018a2.262,2.262,0,0,1-.565-.65,1.717,1.717,0,0,1-.256-.56c-.02-.122.032-.152.174.01A3.973,3.973,0,0,1,259.354,273.018Z" transform="translate(-200.956 -252.32)" fill="#fff" fill-rule="evenodd"/><path d="M251.348,266.287a5.027,5.027,0,0,1,2.5,1.369A14.425,14.425,0,0,1,251.348,266.287Z" transform="translate(-199.16 -250.964)" fill="#fff" fill-rule="evenodd"/><path d="M244.378,273.5Z" transform="translate(-197.41 -252.767)" fill="#fff" fill-rule="evenodd"/><path d="M245.132,273.034c-.394-.023,4.517-1.428,1.126-.332A9.6,9.6,0,0,1,245.132,273.034Z" transform="translate(-197.6 -252.464)" fill="#fff" fill-rule="evenodd"/><path d="M230.723,262.312c1.045.088.484.215-.321.269s-1.855.059-1.822-.157C228.646,262,229.628,262.216,230.723,262.312Z" transform="translate(-193.466 -249.935)" fill="#fff" fill-rule="evenodd"/><path d="M233.825,262.492c.055-.032.669-.068.613.049C234.34,262.737,233.223,262.788,233.825,262.492Z" transform="translate(-194.734 -250.007)" fill="#fff" fill-rule="evenodd"/><path d="M244.319,264.111c.023,0,.451.084,1.018.208.283.056.6.142.921.226s.639.171.926.266a6.1,6.1,0,0,1,1.039.388,14.034,14.034,0,0,1-1.413-.347c.111.019-1.231-.337-2.233-.547S242.9,263.954,244.319,264.111Z" transform="translate(-197.2 -250.404)" fill="#fff" fill-rule="evenodd"/><path d="M251.267,266.278c-.074.212-.507-.118,0,0Z" transform="translate(-199.079 -250.956)" fill="#fff" fill-rule="evenodd"/><path d="M251.926,267.126c-.1-.152.652.081.709.186C252.731,267.463,251.984,267.211,251.926,267.126Z" transform="translate(-199.302 -251.162)" fill="#fff" fill-rule="evenodd"/><path d="M218.934,263.053a8.64,8.64,0,0,1,2.392-.3,21.7,21.7,0,0,1,2.715-.037c.448.124-.39.16-1.406.2l-2.5.076C220.024,262.993,218.952,263.083,218.934,263.053Z" transform="translate(-191.054 -250.065)" fill="#fff" fill-rule="evenodd"/><path d="M239.889,263.9c-.175-.148.749-.015,1.37.124s.934.266-.453.035A5.909,5.909,0,0,1,239.889,263.9Z" transform="translate(-196.289 -250.352)" fill="#fff" fill-rule="evenodd"/><path d="M215.038,263.54c-.146-.078.717-.3.865-.218S215.187,263.621,215.038,263.54Z" transform="translate(-190.076 -250.219)" fill="#fff" fill-rule="evenodd"/><path d="M228.537,263.183a4.909,4.909,0,0,0,1.954-.035,4.17,4.17,0,0,1,1.994.036,3.677,3.677,0,0,1-.538.045l-1.263.049A7.6,7.6,0,0,1,228.537,263.183Z" transform="translate(-193.456 -250.156)" fill="#fff" fill-rule="evenodd"/><path d="M234.983,263.522c-.142-.1.792-.209.935-.1S235.126,263.626,234.983,263.522Z" transform="translate(-195.064 -250.237)" fill="#fff" fill-rule="evenodd"/><path d="M237.816,263.833c-.13-.108.565-.158.64-.1C238.584,263.844,237.891,263.891,237.816,263.833Z" transform="translate(-195.772 -250.32)" fill="#fff" fill-rule="evenodd"/><path d="M208.514,263.993a6.573,6.573,0,0,1,1.44-.2.685.685,0,0,1-.14.081,2.54,2.54,0,0,1-.364.145A1.212,1.212,0,0,1,208.514,263.993Z" transform="translate(-188.449 -250.337)" fill="#fff" fill-rule="evenodd"/><path d="M211.576,263.911c-.149-.083.964-.316,1.154-.214C212.882,263.782,211.767,264.018,211.576,263.911Z" transform="translate(-189.211 -250.311)" fill="#fff" fill-rule="evenodd"/><path d="M206.972,264.24c-.132-.078.5-.214.579-.169C207.684,264.15,207.049,264.286,206.972,264.24Z" transform="translate(-188.058 -250.408)" fill="#fff" fill-rule="evenodd"/><path d="M247.264,274.005c-.131-.021.2.035,0,0Z" transform="translate(-198.131 -252.893)" fill="#fff" fill-rule="evenodd"/><path d="M196.879,262.947Z" transform="translate(-185.522 -250.129)" fill="#fff" fill-rule="evenodd"/><path d="M223.573,253.26c.156.055-.691.353-.848.3S223.415,253.2,223.573,253.26Z" transform="translate(-191.997 -247.705)" fill="#fff" fill-rule="evenodd"/><path d="M226.162,252.633c.16.061-.941.406-1.145.331C224.855,252.9,225.957,252.554,226.162,252.633Z" transform="translate(-192.571 -247.547)" fill="#fff" fill-rule="evenodd"/><path d="M228.768,252.037a7.038,7.038,0,0,1-1.443.352.683.683,0,0,1,.133-.092,2.773,2.773,0,0,1,.354-.179A1.3,1.3,0,0,1,228.768,252.037Z" transform="translate(-193.153 -247.386)" fill="#fff" fill-rule="evenodd"/><path d="M242.166,250.878c.15.1-.992.32-1.184.2C240.828,250.985,241.974,250.751,242.166,250.878Z" transform="translate(-196.564 -247.102)" fill="#fff" fill-rule="evenodd"/><path d="M232.652,251.374a6.986,6.986,0,0,1-1.454.32.7.7,0,0,1,.136-.092,2.616,2.616,0,0,1,.359-.174A1.264,1.264,0,0,1,232.652,251.374Z" transform="translate(-194.121 -247.217)" fill="#fff" fill-rule="evenodd"/><path d="M238.716,250.695a7.081,7.081,0,0,1-2.107.253c-1.008.062-1.758.076-.551-.1l.4-.041.875-.078A6.9,6.9,0,0,1,238.716,250.695Z" transform="translate(-195.181 -247.059)" fill="#fff" fill-rule="evenodd"/></g><g transform="translate(44.062 15.401)"><path d="M270.941,267.834c-.023-.026.048-.088.061-.073S270.955,267.85,270.941,267.834Z" transform="translate(-248.12 -266.734)" fill="#fff" fill-rule="evenodd"/><path d="M273.133,267.609Z" transform="translate(-248.668 -266.695)" fill="#fff" fill-rule="evenodd"/><path d="M273.579,267.518c-.055-.059.489-.116.148-.022C273.707,267.5,273.6,267.537,273.579,267.518Z" transform="translate(-248.78 -266.655)" fill="#fff" fill-rule="evenodd"/><path d="M274.024,267.451c-.064-.066.44-.1.112-.017C274.122,267.437,274.037,267.465,274.024,267.451Z" transform="translate(-248.891 -266.641)" fill="#fff" fill-rule="evenodd"/><path d="M274.419,267.38c-.023-.024.047-.087.061-.073S274.434,267.394,274.419,267.38Z" transform="translate(-248.99 -266.62)" fill="#fff" fill-rule="evenodd"/><path d="M268.729,266.946c-.172-.133-.917.154-1.121.179-.43.055-.9.131-1.381.212a4.448,4.448,0,0,1-1.062.244c-.1-.014-.055-.107-.138-.1-.448.027-.9.273-1.361.273-.088,0-.175-.1-.209-.1.028,0-.045.127-.088.14-.145.046-.388.028-.523.063.07-.019.144.024.086.053a3.905,3.905,0,0,1-.859.1c-.312.056-5,1.117-5.418,1.191s-.85.146-1.244.24a43.064,43.064,0,0,1-5.475,1.211c-.54.054-1,.076-1.449.1a12.312,12.312,0,0,0-1.416.128,3.935,3.935,0,0,0-.863.214c.107.212.762-.119.866-.136a8.76,8.76,0,0,1,1.361-.065c.055,0,.391.125.421.07-.041.077-.7.006-.872,0-.952,0-2.353.5-3.4.629-1.243.15-2.271.847-3.571.5-.132-.037-.373-.358-.5-.14-.041.066.372,1.238.052.348.095.264.091-.059,0,.514-.115.8.835,1.09,1.385.949s1.224-.46,1.936-.658c.643-.191,1.372-.222,2.053-.367a14.111,14.111,0,0,1,1.994-.4,26.005,26.005,0,0,0,2.8-.247,18.043,18.043,0,0,0,2.644-.654c.443-.134.886-.267,1.333-.386s.892-.244,1.345-.331c1.87-.362,7.739-1.675,9.881-1.93.741-.1,1.362-.243,1.975-.373l1.9-.423a5.942,5.942,0,0,0,1.542-.48.536.536,0,0,1-.26.071c-.116-.007.119-.071-.069-.094-.226-.028-.277.065-.137-.189.164-.3.027-.168-.285-.151-.46.025.966-.251.375-.21l-.5.035-.323.025a.739.739,0,0,0-.145.02c0-.016.573-.137.426-.165a1.091,1.091,0,0,0-.368.093c-.109.047-.175.161-.227.172-.02,0,.049-.144-.083-.151a4.694,4.694,0,0,0-.661.166c-.458.081-.783.2-1.144.263-.25.045-.583.146-.778.161a2.7,2.7,0,0,0-.607.064c-.026.007-.172-.037-.2-.02s0,.122-.084.139c-.563.111-1.148.127-1.711.186a8.112,8.112,0,0,0-1.621.293c.018.076-.047.046,0,0-.63.07-6.257,1.255-7.025,1.372a2.533,2.533,0,0,1-.591.122c-.421,0,.568-.173.731-.2.609-.106,5.572-1.213,6.266-1.333l1.064-.164,1.083-.187c1.457-.223,2.9-.515,4.131-.748-.022-.066.044-.047,0,0C268.976,267.279,268.707,266.928,268.729,266.946Zm-1.551.325c-.066-.065.439-.111.111-.022C267.275,267.252,267.191,267.282,267.178,267.27Zm-12.255,2.492c.587-.037-.51.233-.763.266.06-.01-.38.091-.415.027,0,0,.042-.013.1-.035l.228-.085c.167-.063.338-.127.358-.131A2.4,2.4,0,0,1,254.923,269.762Zm12.784-2.242c-.025-.025.071-.1.1-.079S267.734,267.545,267.707,267.52Zm-14.037,2.541Zm-.293.089c.032,0,.313-.221.159.06-.013.025-1.833.459-.86.127A2.182,2.182,0,0,1,253.377,270.149Zm17.079-2.947Zm-18.408,3.309c-.021-.033.056-.094.068-.074S252.061,270.531,252.048,270.511Zm-.3.084c.059,0,.393-.163.151-.006-.126.082-1.1.12-.454.019C251.3,270.631,251.57,270.61,251.752,270.6Zm-2.824.3c.035.038.148.016.251-.015s.2-.067.2-.067C249.332,271.077,249.078,271.065,248.928,270.9Zm.493-.008c.019-.244.292.023.119.073C249.545,270.96,249.424,270.846,249.42,270.889Zm.3-.005s.161-.118.185-.077C249.911,270.81,249.81,271.029,249.724,270.883Zm.532-.009c.081.136.4-.234.487-.091C250.751,270.8,250.32,270.984,250.256,270.874Z" transform="translate(-240.512 -266.51)" fill="#fff" fill-rule="evenodd"/><path d="M275.127,267.312c-.059-.059.621-.18.331-.065C275.458,267.247,275.154,267.339,275.127,267.312Z" transform="translate(-249.167 -266.594)" fill="#fff" fill-rule="evenodd"/><path d="M275.866,267.161c.052.05.25-.188.318-.121C276.184,267.04,275.982,267.274,275.866,267.161Z" transform="translate(-249.353 -266.551)" fill="#fff" fill-rule="evenodd"/><path d="M276.506,267c.026.025.65-.313.762-.208C277.222,266.752,276.642,267.134,276.506,267Z" transform="translate(-249.513 -266.488)" fill="#fff" fill-rule="evenodd"/><path d="M277.786,266.788c0-.022.082-.135.131-.09S277.784,266.893,277.786,266.788Z" transform="translate(-249.833 -266.466)" fill="#fff" fill-rule="evenodd"/><path d="M269.795,268.222c-.025-.03.075-.107.1-.077S269.819,268.251,269.795,268.222Z" transform="translate(-247.834 -266.829)" fill="#fff" fill-rule="evenodd"/><path d="M278.187,266.926s.139-.125.169-.1C278.356,266.827,278.289,267.017,278.187,266.926Z" transform="translate(-249.933 -266.5)" fill="#fff" fill-rule="evenodd"/><path d="M278.947,266.722c-.135.181-.655.173-.08.135.419-.029-.46.219-.536.19-.148-.058.2-.145.132-.091.031-.023.054-.144.007-.118C278.533,266.8,278.842,266.755,278.947,266.722Z" transform="translate(-249.96 -266.474)" fill="#fff" fill-rule="evenodd"/><path d="M279.163,266.708c-.023-.065.043-.046,0,0Z" transform="translate(-250.176 -266.46)" fill="#fff" fill-rule="evenodd"/><path d="M279.263,266.651c-.018-.051.461-.268.382-.037-.022.065-.454.008-.309.019C279.33,266.632,279.264,266.654,279.263,266.651Z" transform="translate(-250.202 -266.421)" fill="#fff" fill-rule="evenodd"/><path d="M280.015,266.556c-.069-.058.586-.167.147-.036C280.141,266.526,280.035,266.573,280.015,266.556Z" transform="translate(-250.389 -266.409)" fill="#fff" fill-rule="evenodd"/><path d="M279.841,266.68c-.026-.022.068-.1.094-.08S279.867,266.7,279.841,266.68Z" transform="translate(-250.346 -266.443)" fill="#fff" fill-rule="evenodd"/><path d="M280.577,266.492s.139-.121.168-.1C280.745,266.395,280.681,266.578,280.577,266.492Z" transform="translate(-250.531 -266.392)" fill="#fff" fill-rule="evenodd"/><path d="M256.07,270.932c-.014-.213.163.063,0,0Z" transform="translate(-244.402 -267.507)" fill="#fff" fill-rule="evenodd"/><path d="M256.028,270.955c-.061.22-.25-.074,0,0Z" transform="translate(-244.361 -267.53)" fill="#fff" fill-rule="evenodd"/><path d="M255.034,271.157c.367-.217.411.076,0,0Z" transform="translate(-244.144 -267.563)" fill="#fff" fill-rule="evenodd"/><path d="M280.651,266.957Z" transform="translate(-250.548 -266.532)" fill="#fff" fill-rule="evenodd"/><path d="M280.75,266.9c-.07-.057.588-.173.147-.038C280.876,266.868,280.77,266.915,280.75,266.9Z" transform="translate(-250.573 -266.493)" fill="#fff" fill-rule="evenodd"/><path d="M252.546,271.322c.262.031-.251.254-.259.076S252.409,271.306,252.546,271.322Z" transform="translate(-243.457 -267.616)" fill="#fff" fill-rule="evenodd"/><path d="M252.928,271.323c.006-.013.077-.05.076,0C253,271.408,252.869,271.461,252.928,271.323Z" transform="translate(-243.613 -267.619)" fill="#fff" fill-rule="evenodd"/><path d="M254.209,271.276c.011-.005.777-.194.3-.01C254.536,271.256,253.889,271.427,254.209,271.276Z" transform="translate(-243.915 -267.591)" fill="#fff" fill-rule="evenodd"/><path d="M255.027,271.184c.012.087-.05.046,0,0Z" transform="translate(-244.137 -267.59)" fill="#fff" fill-rule="evenodd"/><path d="M255.151,271.346c-.021-.033.057-.094.069-.074S255.164,271.365,255.151,271.346Z" transform="translate(-244.172 -267.611)" fill="#fff" fill-rule="evenodd"/><path d="M251.094,271.613c-.019-.085.6-.115.636-.08.12.1-.412.079-.485.079C251.231,271.612,251.1,271.626,251.094,271.613Z" transform="translate(-243.158 -267.674)" fill="#fff" fill-rule="evenodd"/><path d="M253.709,271.6c-.057-.093.451-.045.113,0C253.808,271.6,253.72,271.618,253.709,271.6Z" transform="translate(-243.811 -267.681)" fill="#fff" fill-rule="evenodd"/><path d="M250.6,271.709c-.021-.039.088-.114.11-.075S250.616,271.748,250.6,271.709Z" transform="translate(-243.033 -267.7)" fill="#fff" fill-rule="evenodd"/><path d="M252.307,271.695c.08.137.4-.227.486-.079C252.8,271.629,252.37,271.8,252.307,271.695Z" transform="translate(-243.462 -267.689)" fill="#fff" fill-rule="evenodd"/><path d="M253.113,271.7c-.022-.037.086-.112.107-.075S253.135,271.733,253.113,271.7Z" transform="translate(-243.662 -267.697)" fill="#fff" fill-rule="evenodd"/><path d="M253.465,271.694c-.02-.035.059-.094.07-.074S253.477,271.714,253.465,271.694Z" transform="translate(-243.75 -267.698)" fill="#fff" fill-rule="evenodd"/><path d="M249.746,271.8s.162-.117.185-.074C249.933,271.73,249.827,271.953,249.746,271.8Z" transform="translate(-242.821 -267.723)" fill="#fff" fill-rule="evenodd"/><path d="M250.147,271.8c-.022-.04.12-.125.148-.074S250.175,271.854,250.147,271.8Z" transform="translate(-242.921 -267.722)" fill="#fff" fill-rule="evenodd"/><path d="M249.548,271.9c-.019-.036.061-.1.072-.076C249.639,271.861,249.559,271.922,249.548,271.9Z" transform="translate(-242.771 -267.749)" fill="#fff" fill-rule="evenodd"/><path d="M281.164,267.424Z" transform="translate(-250.677 -266.649)" fill="#fff" fill-rule="evenodd"/><path d="M247.754,272.584c-.019-.041.091-.116.112-.076S247.775,272.624,247.754,272.584Z" transform="translate(-242.323 -267.918)" fill="#fff" fill-rule="evenodd"/><path d="M247.3,272.7Z" transform="translate(-242.209 -267.968)" fill="#fff" fill-rule="evenodd"/><path d="M243.545,273.462c-.018-.043.1-.118.116-.076S243.564,273.505,243.545,273.462Z" transform="translate(-241.27 -268.138)" fill="#fff" fill-rule="evenodd"/><path d="M243.186,273.545c-.019-.045.131-.128.155-.07S243.21,273.6,243.186,273.545Z" transform="translate(-241.18 -268.158)" fill="#fff" fill-rule="evenodd"/><path d="M242.827,273.632s.174-.116.194-.068C243.023,273.568,242.9,273.8,242.827,273.632Z" transform="translate(-241.091 -268.182)" fill="#fff" fill-rule="evenodd"/><path d="M241.089,273.587c-.017-.047.136-.126.157-.068S241.11,273.646,241.089,273.587Z" transform="translate(-240.656 -268.169)" fill="#fff" fill-rule="evenodd"/><path d="M242.313,273.7s.175-.116.194-.069C242.509,273.64,242.383,273.875,242.313,273.7Z" transform="translate(-240.962 -268.2)" fill="#fff" fill-rule="evenodd"/><path d="M241.439,273.749c-.04-.1.663-.022.345.031C241.784,273.78,241.457,273.8,241.439,273.749Z" transform="translate(-240.744 -268.219)" fill="#fff" fill-rule="evenodd"/></g></g><g transform="translate(118.664 264.593)"><path d="M312.633,304.245a5.018,5.018,0,0,1,2.567.855c.913.48,1.729.943,1.969.826-.5.241-1.474-.2-2.4-.7S312.961,304.167,312.633,304.245Z" transform="translate(-167.169 -281.278)" fill="#fff" fill-rule="evenodd"/><path d="M262.561,296.108c-.082.072,1.045.114.8.019-1.06-.43-1.4.213-2.612-.722-1.624-1.109-3.813-1.369-6.017-2.174-1-.373-1.636-1.047-2.329-1.021-.322.016-.16.487-.685.316-.31-.094-.67-1.5-1.4-.781,1.066-.022.046.734,0,0-1.335-.408-4.049-2.227-5.966-2.509,1.231.179.28.094-.628.015s-1.765-.2-.325-.2c1.164.01-1.006-.9-1.985-.9.835,0,.8.757-.685.4-1.333-.322-.433-.8-.078-.55a3,3,0,0,0-2.625-.732c-3.549.232,1.767-.08.847.689-.3.25-1.445-.473-1.86-.585-1.157-.325-3.211-.046-2.963-1.027-.047.181,1.035-.007.822-.159a7.64,7.64,0,0,0-2.859-.9c-1.153-.2-2.368-.31-3.207-.555-4.479-1.264-9.511-2.61-14.792-3.764s-10.805-2.142-16.215-2.771c-6.092-.708-12.75-1.46-19.474-1.9a134.985,134.985,0,0,0-19.728-.039c-1.746.166-3.264.522-4.825.8a18.851,18.851,0,0,1-5.091.4c-.721-.05.935-.47,2.776-.859.92-.192,1.884-.39,2.622-.5l.9-.135a1.61,1.61,0,0,1,.34-.031c.33-1.429-1.971-.586-2.318-.542,1.7-.179-.3-.108-1.26-.232a18.2,18.2,0,0,0-3.579-.128,25.277,25.277,0,0,0-3.464.495c-1.138.235-2.268.487-3.383.773s-2.227.552-3.346.75c-1.651.275-3.3.613-4.933.973-.817.182-1.629.375-2.431.589-.8.229-1.585.475-2.358.748a19.58,19.58,0,0,0-8.183,5.058,13.6,13.6,0,0,0-1.066,4.263,22.076,22.076,0,0,0-.254,5.5c-.272-1.629.91,2.542.724,2.327.379.445,3.45-2.2,4.371-2.728q1.966-1.233,3.967-2.355,2.011-1.079,4.057-2.049c1.36-.663,2.748-1.221,4.14-1.78q1.046-.414,2.1-.8c.7-.256,1.415-.485,2.128-.718s1.428-.452,2.147-.667,1.441-.427,2.17-.606q2.186-.556,4.411-1.033,2.235-.427,4.512-.781c1.519-.238,3.06-.391,4.613-.556,1.368-.151,2.547-.254,3.684-.361.928-.084,2-.2,3.054-.269a28.415,28.415,0,0,1,2.979-.03,15.654,15.654,0,0,0,2.919-.086c.928-.151,1.786-1.258,2.464-.88a7.054,7.054,0,0,0-.313.969c.92.019,1.774-.925,2.662-.892.5.013,1.129.679,1.6.661.758-.028,1.388-.709,2.1-.745.664-.04,1.325.619,1.975.617.625,0,1.147-.569,1.725-.635,1.134-.13,2.161.732,3.328.9a15.393,15.393,0,0,0,3.808-.108,17.977,17.977,0,0,1,3.751-.111c.437.049.874.664,1.345.7.964.074,1.917.178,2.877.223.481.025.963.028,1.45.018a12.592,12.592,0,0,0,1.478-.1c-.822.378.01-1.122,0,0,.334-.1.88.679,1.514.7-.193-.008.332-.711.427-.748.376-.151.524.7,1.123.709a23.394,23.394,0,0,1,2.916.439l1.857.337c.637.12,1.285.229,1.921.313a14.366,14.366,0,0,0,2.346.035,11.8,11.8,0,0,1,2.3.109c.217.039.524.646.7.7a7.053,7.053,0,0,0,1.932.086c.373,0,.856-.318,1.2-.245-.1-.02.152.6.3.666a14.91,14.91,0,0,0,2.507.17c1.057.057,2.043.179,2.075.482-.037-.351-.952.191-.814.242a29.224,29.224,0,0,0,5.007,1.088l2.865.423c.97.161,1.951.33,2.921.523.408.081.826.175,1.252.277s.858.231,1.3.356l2.71.783c.92.268,1.851.547,2.785.781s1.87.433,2.789.6c.207.036.8.376.7.385.213-.02.255-.47.5-.406.162.044.146.462.453.585,1.347.5,5.293.724,6.052,1.26a2.926,2.926,0,0,0-.494.355c.808.218,2.5-.074,3.2.733.571.651-.086.114,1.13.263,1.068.154,1.233,1.006-.306.371,1,.4,2.065-.069,2.438.6,1.525.107,3.5,1.3,5.552,1.662C264.795,296.717,262.209,296.421,262.561,296.108Zm-11.784-3.788c.062.125-.4.217-.436.143C250.279,292.338,250.741,292.246,250.777,292.32Zm-1.134-.245c.062.127-.4.222-.436.148C249.145,292.1,249.607,292,249.643,292.075Zm-2.1-1.174Zm-5.969-1.664c.056.12-.088-.189,0,0Zm-1.278-.5c.068.147-.558.3-.628.157S240.232,288.587,240.3,288.739Zm2.154.134c.055.121-.088-.188,0,0Zm-8.17-1.641Zm-1.675-.522c.059.128-.092-.2,0,0Zm-2.833-.663c.067.148-.4.331-.436.244C229.273,286.143,229.736,285.961,229.776,286.047Zm3.9.244c.18.4-2.33-.23-.577-.086C233.174,286.211,233.64,286.215,233.675,286.291Zm-1.486-.51c-.5.59-2.853-.183-3.663-.482C225.36,284.161,232.045,285.937,232.188,285.781Zm-8.684-1.023Zm3.72.077c.073.159-.553.393-.628.233S227.15,284.666,227.224,284.835Zm-6.191-.6c.08.172-.715.478-.816.259C220.137,284.314,220.932,284.011,221.032,284.231Zm3.187-.335c.658.166,3.2.955,1.263.752a20.589,20.589,0,0,1-4.171-1.033,13.678,13.678,0,0,1-3.366-.6c-1.16-.3-2.377-.659-3.711-.892-.676-.137-3.451,0-3.477-.495-.035-.6,5.445-.407,1.007-.305a19.085,19.085,0,0,1,5.139.879c.45.124.892.248,1.316.379l1.209.4,1.882.637A16.5,16.5,0,0,1,224.22,283.9Zm-5.857-.193c.072.16-.385.389-.427.3C217.863,283.839,218.32,283.609,218.363,283.7Zm-4.585-.926c.075.165-.378.413-.422.318C213.28,282.929,213.733,282.68,213.778,282.777Zm-4.8-.859c.084.177-.527.523-.612.343S208.891,281.73,208.976,281.918Zm-1.949-.023c.071.15-.111-.235,0,0Zm3.177-.634c-.1-.247-.734-.106-1.435-.022s-1.471.119-1.86-.419c-.692,1.161-.241-1.275,0,0a2.79,2.79,0,0,0,1.984-.079C209.457,280.6,209.912,280.555,210.2,281.261Zm-6.638-.112Zm2-.715c.035.082-.478.1-1.159.085s-1.531-.039-2.168-.1c-.49-.043-1.091-.094-1.752-.163l-1.03-.117c-.355-.037-.718-.078-1.084-.125a18.058,18.058,0,0,1-4.118-.943c-.667-.259-.295-.328.379-.311s1.643.151,2.173.233c.861.135,1.687.213,2.617.3.93.1,1.966.212,3.244.389.384.054,1.061.122,1.666.238S205.467,280.21,205.563,280.434Zm-8.212.088c.077.159-.121-.247,0,0Zm-3.879-1.8c-.011.122-.636,1.15-.985.448C192,278.2,193.5,278.31,193.471,278.718Zm-1.18.058a7.283,7.283,0,0,1-2.536.021c-1.218-.062-2.378-.161-2.176-.133-1.492-.221-.134-.559.779-.469a26.99,26.99,0,0,1,3.541.2C192.021,278.418,192.379,278.429,192.291,278.775ZM170.454,280.8Zm14.358-2.765c.2.665-6.7,0-3.963-.474C181.189,277.505,184.551,277.176,184.812,278.039Zm-6.934-.58c.112.208-.449.721-.562.511S177.765,277.246,177.878,277.458Zm-1.375.166c.181.5-2.184.683-2.124.721.165.059-.835-.853-.85-.781a9.7,9.7,0,0,0,1.337-.3C175.57,277.147,176.325,277.132,176.5,277.624Zm-3.561.025c-.042.045-1.12.315-.821-.34C172.23,277.072,173.812,276.7,172.942,277.649Zm-1.214-.283c.271.493-3.327.95-1.764.257,0,0,.412-.125.836-.217S171.665,277.252,171.728,277.366Zm-6.161.049c.145.44-.777.577-1.669.572s-1.762-.192-1.513-.469c1.282-1.4,1.209-.077,2.4.03C164.873,277.557,165.523,277.285,165.567,277.416Zm-6.561.267c.344.583-3.1.888-.777.171C158.341,277.82,158.908,277.516,159.006,277.683Zm-1.942.428c.125.211-.242.7-.314.578C156.622,278.477,156.99,277.987,157.063,278.111Zm-3.568.286c-.154.855-1.534.937-2.347.732s-1.057-.7,1.105-.948C152.475,278.157,153.448,278.666,153.5,278.4Zm-3.368.31c.174.5-.829.741-1.82.782-.987.061-1.966-.08-1.742-.391.566-.777.967-.309,1.345-.368A11.5,11.5,0,0,0,150.127,278.707Zm-8.269,1.159c.142.221-.187.772-.271.642C141.445,280.286,141.775,279.735,141.858,279.866Zm5.961-2.725c.15.241-.487,1.024-.679.718C146.988,277.616,147.628,276.835,147.82,277.141Z" transform="translate(-118.664 -273.971)" fill="#fff" fill-rule="evenodd"/><path d="M305.105,302c-.213.592-.723-.385,0,0Z" transform="translate(-165.193 -280.699)" fill="#fff" fill-rule="evenodd"/><path d="M313.945,304.108s-.914.04-.988-.085a.543.543,0,0,1,.116-.058,1.359,1.359,0,0,1,.281-.083A.524.524,0,0,1,313.945,304.108Z" transform="translate(-167.25 -281.189)" fill="#fff" fill-rule="evenodd"/><path d="M308.135,302.163c.586-.478,1.128.552,0,0Z" transform="translate(-166.044 -280.73)" fill="#fff" fill-rule="evenodd"/><path d="M310.347,301.977Z" transform="translate(-166.591 -280.703)" fill="#fff" fill-rule="evenodd"/><path d="M308.237,301.144c.066.122-.554.169-.62.044S308.171,301.017,308.237,301.144Z" transform="translate(-165.914 -280.489)" fill="#fff" fill-rule="evenodd"/><path d="M306.068,300.271c.143.276-2.547-.538-.749-.2C305.426,300.089,306.022,300.182,306.068,300.271Z" transform="translate(-165.185 -280.218)" fill="#fff" fill-rule="evenodd"/><path d="M296.491,297.814c.054.111-.085-.172,0,0Z" transform="translate(-163.126 -279.66)" fill="#fff" fill-rule="evenodd"/><path d="M302.145,298.936c.065.128-.557.2-.623.069S302.079,298.8,302.145,298.936Z" transform="translate(-164.389 -279.938)" fill="#fff" fill-rule="evenodd"/><path d="M299.023,297.847c.062.124-.4.194-.435.122C298.527,297.844,298.988,297.774,299.023,297.847Z" transform="translate(-163.656 -279.676)" fill="#fff" fill-rule="evenodd"/><path d="M295.58,296.7c.061.125-.4.211-.437.137C295.081,296.713,295.544,296.629,295.58,296.7Z" transform="translate(-162.794 -279.39)" fill="#fff" fill-rule="evenodd"/><path d="M241.991,289.362Z" transform="translate(-149.495 -277.542)" fill="#fff" fill-rule="evenodd"/><path d="M289.537,293.648c.055.118-.087-.184,0,0Z" transform="translate(-161.387 -278.618)" fill="#fff" fill-rule="evenodd"/><path d="M288.146,293.044c.067.143-.56.261-.628.116S288.078,292.9,288.146,293.044Z" transform="translate(-160.888 -278.465)" fill="#fff" fill-rule="evenodd"/><path d="M285.861,292.548c.068.143-.562.278-.63.132S285.793,292.4,285.861,292.548Z" transform="translate(-160.316 -278.342)" fill="#fff" fill-rule="evenodd"/><path d="M276.633,290.7c.016-.015-.858.208-.767-.132C275.98,290.144,277.094,290.263,276.633,290.7Z" transform="translate(-157.973 -277.797)" fill="#fff" fill-rule="evenodd"/><path d="M274.837,290.457c.058.126-.091-.2,0,0Z" transform="translate(-157.71 -277.819)" fill="#fff" fill-rule="evenodd"/><path d="M283.582,291.741c.07.151-.732.292-.82.1C282.691,291.686,283.493,291.547,283.582,291.741Z" transform="translate(-159.698 -278.132)" fill="#fff" fill-rule="evenodd"/><path d="M281.746,291.011c.064.139-.4.261-.438.179C281.244,291.051,281.709,290.929,281.746,291.011Z" transform="translate(-159.334 -277.967)" fill="#fff" fill-rule="evenodd"/><path d="M280.865,290.793Z" transform="translate(-159.218 -277.903)" fill="#fff" fill-rule="evenodd"/><path d="M278.123,289.926c.058.126-.089-.2,0,0Z" transform="translate(-158.532 -277.686)" fill="#fff" fill-rule="evenodd"/><path d="M275.318,289.437c.238.014.04.415,0,0Z" transform="translate(-157.838 -277.58)" fill="#fff" fill-rule="evenodd"/><path d="M275.105,289.311c-1.3.112-.259-.9,0,0Z" transform="translate(-157.625 -277.454)" fill="#fff" fill-rule="evenodd"/><path d="M271.266,287.992s-.938.3-1.016.127a.644.644,0,0,1,.116-.114,1.458,1.458,0,0,1,.284-.189C270.87,287.708,271.127,287.683,271.266,287.992Z" transform="translate(-156.571 -277.156)" fill="#fff" fill-rule="evenodd"/><path d="M269.538,287.719c.059.133-.093-.206,0,0Z" transform="translate(-156.385 -277.133)" fill="#fff" fill-rule="evenodd"/><path d="M267.208,287.072c-.065.379-2.277.218-2.565-.058-.194-.189,2.237-.191,2.371.03C267.023,287.059,267.21,287.063,267.208,287.072Z" transform="translate(-155.166 -276.939)" fill="#fff" fill-rule="evenodd"/><path d="M263.166,285.91c-.037.648-2.99-.247-3.3-.406C257.011,284.042,263.177,285.842,263.166,285.91Z" transform="translate(-153.785 -276.454)" fill="#fff" fill-rule="evenodd"/><path d="M258.6,284.636s-.934.378-1.017.194a.7.7,0,0,1,.114-.131,1.516,1.516,0,0,1,.28-.221C258.2,284.349,258.454,284.306,258.6,284.636Z" transform="translate(-153.404 -276.316)" fill="#fff" fill-rule="evenodd"/><path d="M256.45,284.023c.077.168-.551.427-.628.257S256.372,283.853,256.45,284.023Z" transform="translate(-152.961 -276.212)" fill="#fff" fill-rule="evenodd"/><path d="M254.568,283.81c.065.141-.1-.222,0,0Z" transform="translate(-152.641 -276.154)" fill="#fff" fill-rule="evenodd"/><path d="M252.733,283.166s-.931.416-1.016.228a.752.752,0,0,1,.112-.139,1.533,1.533,0,0,1,.277-.238C252.323,282.878,252.579,282.828,252.733,283.166Z" transform="translate(-151.936 -275.948)" fill="#fff" fill-rule="evenodd"/><path d="M245.379,281.739c.077.546-.991.245-1.408.225-2.492-.115-.111.081-1.369-.1-1.551-.214-6.012-1-7.562-1.4-.521-.142-.82-.73-.936-.751a5.092,5.092,0,0,0-1.365.161c-.489.083-.949.11-1.2-.218.155.2.56.1,1.024-.041a4.241,4.241,0,0,1,1.365-.271c2,.182,6.859,1.655,9.686,2.256A14.584,14.584,0,0,1,245.379,281.739Z" transform="translate(-146.891 -275.055)" fill="#fff" fill-rule="evenodd"/><path d="M119.923,308.824c.046-.024-2.036,1.395-.693-.323,1.525-1.935,3.147-2.419,4.434-2.253,1.141.153-.726,1.186-.17.748C122.17,308.057,122.076,307.754,119.923,308.824Z" transform="translate(-118.692 -281.776)" fill="#fff" fill-rule="evenodd"/><path d="M154.65,293.246c.121.193-.189-.3,0,0Z" transform="translate(-127.647 -278.507)" fill="#fff" fill-rule="evenodd"/><path d="M230.538,279c-.032.558-3,.748-2.138-.772C228.519,278.026,230.547,278.871,230.538,279Z" transform="translate(-146.066 -274.769)" fill="#fff" fill-rule="evenodd"/><path d="M225.022,278.2c.447-.37.652.313,1.174.367C228.53,278.862,225.989,279.394,225.022,278.2Z" transform="translate(-145.26 -274.742)" fill="#fff" fill-rule="evenodd"/><path d="M222.787,277.947a3.269,3.269,0,0,1-2.353.194c-.471-.078-.952-.19-1.4-.286s-.858-.17-1.187-.2c-.879-.088-2.691.213-1.186-.355a6.539,6.539,0,0,1,3.228-.02C221.053,277.5,222.156,277.815,222.787,277.947Z" transform="translate(-143.026 -274.492)" fill="#fff" fill-rule="evenodd"/><path d="M212.364,276.859c.43-.9,3.107-.393,2.577.289a3.515,3.515,0,0,1-1.259.128C213.073,277.257,212.454,277.174,212.364,276.859Z" transform="translate(-142.095 -274.314)" fill="#fff" fill-rule="evenodd"/><path d="M209.649,276.567a17.518,17.518,0,0,1-2.707.024,9.68,9.68,0,0,1-1.269-.182,7.539,7.539,0,0,1-1.2-.339c.28-.283-.036-.508,0,0-.935-1.039-1.818,1.387-2.97.253.192.189,1.469-1.087,3.142-1.114a5.036,5.036,0,0,1,1.951.493,6.073,6.073,0,0,0,1.657.537C208.961,276.271,210.311,274.842,209.649,276.567Z" transform="translate(-139.38 -274.022)" fill="#fff" fill-rule="evenodd"/><path d="M199.311,275.565c-1.093,1.449-2.518.042-1.015-.33C198.7,275.136,198.816,275.439,199.311,275.565Z" transform="translate(-138.414 -274.024)" fill="#fff" fill-rule="evenodd"/><path d="M199.866,275.5c.575-1.384,1.511.39,0,0Z" transform="translate(-138.97 -273.961)" fill="#fff" fill-rule="evenodd"/><path d="M193.59,274.991c-.486.61-2.012.793-2.744.743,0,0,.1-.229.188-.46a1.544,1.544,0,0,0,.145-.475c-1.415-.591-4.509,1.5-5.741.748-.864-.535,2.99-1.147.706-1.026-.731.014-5.689,1.941-1.981.286.95-.421,1.482-.785,1.982-.921a2.171,2.171,0,0,1,1.787.406,1.916,1.916,0,0,1,.472.855,7.959,7.959,0,0,0,2.363-.5,4.057,4.057,0,0,1,3.021.326A.285.285,0,0,0,193.59,274.991Z" transform="translate(-134.703 -273.675)" fill="#fff" fill-rule="evenodd"/><path d="M177.348,274.37c-.882,1.611-1.972-.293,0,0-1.409-1.124-4.833.6-6.582.668.119-.006-.367-.853-.532-.9-.266-.072-4.055,1.117-1.557,1.833a6.007,6.007,0,0,0,2.344.141,15.433,15.433,0,0,0,2.4-.469,16.112,16.112,0,0,1,4.377-.867C177.627,274.717,177.547,274.339,177.348,274.37Zm-4.015.2c.13.224-.4.815-.53.588S173.2,274.344,173.332,274.572Zm-3.227.1Z" transform="translate(-130.958 -273.717)" fill="#fff" fill-rule="evenodd"/><path d="M181.121,274.689c.687-.5,1.7-1.556,2.132-.8a10.7,10.7,0,0,1-.963.587C181.792,274.741,181.261,274.944,181.121,274.689Z" transform="translate(-134.282 -273.626)" fill="#fff" fill-rule="evenodd"/></g><g transform="translate(144.503 237.504)"><path d="M164.306,275.445c-.207.518-.192,1.072-.289,1.272-.685,1.393-2.466,4.125-1.9,4.614-.208-.178.919-1.132.8-.9.142-.26-.172-.533-.114-.751a27.487,27.487,0,0,0,1.545-2.671,13.54,13.54,0,0,1,.492-1.741c-1.567,3.558.115-.952.585-.859a27.561,27.561,0,0,0-1.085,3.157c-.646,2.328-2.979,6.645-3.873,8.632-.035.082-1.067,2.575-.7,2.486.541-.122,1.437-3.465,1.741-3.983.505-.807,1.248-3.294,2.2-4.617.436-.6.374-.286.334-.272,1.021-.376.412.964.13,1.179.223-.172,1.693-3.205,1.315-3.474-.065-.046-1.14,2.441-1.425,1.744-.247-.594.992-2.345,1.106-2.587.247-.54.653-1.837,1.245-1.825.3.006-.831,1.072.036,1,.389-.032.11-.8.814-1.316.161-.117.391.053.556-.171a3.651,3.651,0,0,0,.781-2.311c.056.481-.718.24-.773.073-.068-.205.352-.821.771-.635.034.016.272.451.313.422.471-.332.538-1.38.931-2.1,1.056-1.938,2.638-4.659,3.768-6.715a13.772,13.772,0,0,1,1.324-2.348c.349-.4.463-.275.658-.825a9.122,9.122,0,0,1,1.136-2.573c.125-.153.667-.178.769-.353.958-1.63,1.555-3.57,2.819-4.9,1.175-1.215,1.023-3.2,2.095-3.963.158-.11.558.127.727-.092,1.2-1.542,1.582-3.929,3.354-5.075,1.014-.65,2.255-.762,1.767-1.444a52.39,52.39,0,0,0-7.305-3.6,17.55,17.55,0,0,0-3.069-.411c-2.274.134-3.318,2.135-3.952,4.408s-.874,4.812-1.33,6.119c-1,2.885-2.657,6.2-3.616,8.756a9.014,9.014,0,0,1-.591,1.7c-.314.553-1,.433-.858.876.144.476,1.1-.577.672.443.5.967-.707,1.03,0,0-.525-.232-1.438,1.8-1.722,2.593.271-.751-.456,1.688-.368,1.8-.06-.071,1.162-1.789.622-.28-1.414,3.9-3.883,9.219-5.663,13.586a7.253,7.253,0,0,0-.8,2.724c.007.146.595-.042.622,0,.328.491-.441,1.18-.647,1.672-.478,1.09-2.3,4.234-1.946,5.435.13.458.322.118.4-.525-.284-.722.6-.928,0,0,.774-.358.967-2.7,1.33-3.328.17-.286.707-.264.6-.994-.025-.165-.374-.3-.2-.511.158-.19.749.027.881-.167.051-.074-.288-.307-.206-.511.237-.6,1.618-.926,1.259-2.1a.1.1,0,0,1-.181-.081c-.225-.085-.043-.223,0,0l.181.081C162.8,278.571,166.061,271.058,164.306,275.445Zm4.826-6.383c.32.125.06.274-.1.236s-.132-.1-.069-.148A.752.752,0,0,1,169.132,269.062Zm-.5,1.176c.345-.029-.729,1.933-.2.471C168.455,270.637,168.533,270.246,168.631,270.238Zm-1.058,2.468c.13-.013.182.431.052.444S167.443,272.719,167.573,272.706Zm-1.06,1.906Zm.85-2.561c.13-.013.187.433.056.445S167.233,272.065,167.363,272.051Zm4.122-12.027c.136-.005.226.343.146.346C171.5,260.375,171.4,260.026,171.485,260.024ZM166.7,271.893c.12-.013.177.321.107.329C166.685,272.233,166.628,271.9,166.7,271.893Zm2.674-7.913c.31.053-.511.949-.376.953C169.069,264.936,168.877,263.9,169.371,263.98Zm-.741,1.21c.37.127.059.784-.364.256C168.333,265.531,168.645,265.2,168.63,265.19Zm-.281.715c.136-.01.218.448.081.457S168.212,265.914,168.349,265.9Zm-.375.953c-.084-.038.508.46-.017.694C167.389,267.807,167.821,266.789,167.974,266.858Zm-.706,1.786a4.043,4.043,0,0,0-.283.552l-.584,1.272c-.438.971-.922,2.072-1.14,2.6-.071.177-.067,1.464-.19.475a7.326,7.326,0,0,1,.742-2.471C166.117,270.417,166.489,268.888,167.267,268.643Zm-4.01,7.734c.244.1.028,1.162-.423.512C162.481,276.386,164.284,276.779,163.257,276.377Zm-.47,1.191c1.135.507-1.224.233-.187-.084A1.462,1.462,0,0,1,162.787,277.568Zm-1.408,3.013c.26.053-.094.238-.094.238C161.023,280.721,161.246,280.555,161.38,280.582Zm-.6.994ZM163,274.719c.121-.016.178.43.057.446S162.876,274.736,163,274.719Zm-.682,1.8c.3.418-.179,1.188-.5,1.317C161.385,278,162.261,276.442,162.316,276.516Zm-.64,1.676c-.028-.149-.182,2-.557,1.993-.812,0,.19-.976.328-1.395.038-.118-.237-.458-.227-.522C161.257,278.012,161.579,277.751,161.676,278.192Zm6.187-17.417s.171.7.017.709a.687.687,0,0,1-.086-.106,1.265,1.265,0,0,1-.133-.237C167.589,260.968,167.587,260.79,167.863,260.775Z" transform="translate(-154.404 -237.504)" fill="#fff" fill-rule="evenodd"/><path d="M190.746,252c.17.006.3.484.126.478S190.574,251.99,190.746,252Z" transform="translate(-162.508 -241.128)" fill="#fff" fill-rule="evenodd"/><path d="M189.021,255.416c.364.01-.949,2.661-.579,1.282C188.455,256.656,188.751,255.409,189.021,255.416Z" transform="translate(-161.936 -241.983)" fill="#fff" fill-rule="evenodd"/><path d="M187.234,258.825c.163,0,.273.473.109.47S187.072,258.823,187.234,258.825Z" transform="translate(-161.63 -242.836)" fill="#fff" fill-rule="evenodd"/><path d="M185.215,262.394c.147,0,.239.35.154.35C185.222,262.743,185.13,262.394,185.215,262.394Z" transform="translate(-161.137 -243.728)" fill="#fff" fill-rule="evenodd"/><path d="M183.11,265.968s.153.693-.015.694a.637.637,0,0,1-.088-.107,1.248,1.248,0,0,1-.135-.237C182.8,266.145,182.809,265.971,183.11,265.968Z" transform="translate(-160.55 -244.622)" fill="#fff" fill-rule="evenodd"/><path d="M181.666,268.459c.141,0,.22.341.139.343C181.665,268.8,181.585,268.461,181.666,268.459Z" transform="translate(-160.25 -245.245)" fill="#fff" fill-rule="evenodd"/><path d="M180.823,270.322c.139,0,.215.339.134.341C180.819,270.667,180.743,270.324,180.823,270.322Z" transform="translate(-160.039 -245.711)" fill="#fff" fill-rule="evenodd"/><path d="M179.307,272.663c.371-.013-.544,1.44-.159.349C179.164,272.965,179.235,272.665,179.307,272.663Z" transform="translate(-159.604 -246.296)" fill="#fff" fill-rule="evenodd"/><path d="M177.651,275.629c.142-.007.211.445.068.451S177.508,275.637,177.651,275.629Z" transform="translate(-159.234 -247.038)" fill="#fff" fill-rule="evenodd"/><path d="M177.165,276.716Z" transform="translate(-159.117 -247.309)" fill="#fff" fill-rule="evenodd"/><path d="M175.682,279.222c.128-.008.187.326.112.331C175.666,279.562,175.606,279.227,175.682,279.222Z" transform="translate(-158.753 -247.936)" fill="#fff" fill-rule="evenodd"/><path d="M174.828,281.083Z" transform="translate(-158.533 -248.401)" fill="#fff" fill-rule="evenodd"/><path d="M172.42,285.611c.13-.013.175.427.043.439S172.289,285.624,172.42,285.611Z" transform="translate(-157.926 -249.534)" fill="#fff" fill-rule="evenodd"/><path d="M169.421,288.745Z" transform="translate(-157.182 -250.317)" fill="#fff" fill-rule="evenodd"/><path d="M169.048,289.369c-.246.032.052,1.1-.277,1.137a2.6,2.6,0,0,1-.067-.542C168.7,289.688,168.77,289.4,169.048,289.369Z" transform="translate(-157.017 -250.474)" fill="#fff" fill-rule="evenodd"/><path d="M167.85,290.927c.2-.026-.716,2.1-.807,2.3-.532,1.174-1.608,3.192-.706,1.084C166.484,293.987,167.281,291,167.85,290.927Z" transform="translate(-156.338 -250.863)" fill="#fff" fill-rule="evenodd"/><path d="M164.149,299.841c.116-.021.1.514-.042.541C163.991,300.4,164,299.869,164.149,299.841Z" transform="translate(-155.847 -253.092)" fill="#fff" fill-rule="evenodd"/><path d="M163.693,300.773s.023.633-.1.656a.388.388,0,0,1-.05-.09.934.934,0,0,1-.067-.205C163.449,300.98,163.475,300.815,163.693,300.773Z" transform="translate(-155.707 -253.326)" fill="#fff" fill-rule="evenodd"/><path d="M168.417,289.607c.124-.016.162.421.038.437S168.293,289.623,168.417,289.607Z" transform="translate(-156.926 -250.533)" fill="#fff" fill-rule="evenodd"/><path d="M164.527,297.77c.119-.02.115.518-.035.544C164.375,298.336,164.378,297.8,164.527,297.77Z" transform="translate(-155.943 -252.575)" fill="#fff" fill-rule="evenodd"/><path d="M168.112,288.9Z" transform="translate(-156.855 -250.357)" fill="#fff" fill-rule="evenodd"/><path d="M165.339,295.167c.3-.048-.545,1.439-.154.352C165.2,295.471,165.282,295.176,165.339,295.167Z" transform="translate(-156.11 -251.923)" fill="#fff" fill-rule="evenodd"/><path d="M159.763,307.392Z" transform="translate(-154.77 -254.98)" fill="#fff" fill-rule="evenodd"/><path d="M158.067,310.11a2.218,2.218,0,0,0-.089.329c-.047.2-.112.456-.187.719-.151.526-.346,1.061-.525,1.114C157.365,312.248,157.586,310.243,158.067,310.11Z" transform="translate(-154.156 -255.661)" fill="#fff" fill-rule="evenodd"/><path d="M159.623,306.031c.1-.024.1.395,0,.42S159.52,306.056,159.623,306.031Z" transform="translate(-154.726 -254.64)" fill="#fff" fill-rule="evenodd"/><path d="M159.231,306.97c.1-.023.1.288.049.3C159.185,307.3,159.175,306.984,159.231,306.97Z" transform="translate(-154.639 -254.875)" fill="#fff" fill-rule="evenodd"/><path d="M162.795,297.78c.291-.054-.736,1.93-.2.472C162.623,298.18,162.712,297.8,162.795,297.78Z" transform="translate(-155.45 -252.577)" fill="#fff" fill-rule="evenodd"/><path d="M160.792,301.92c.316.1-.1.651-.249.589S160.4,301.8,160.792,301.92Z" transform="translate(-154.954 -253.609)" fill="#fff" fill-rule="evenodd"/><path d="M162.626,296.961c-.256,1.27.285-1.417,0,0Z" transform="translate(-155.479 -252.266)" fill="#fff" fill-rule="evenodd"/><path d="M161.661,299.467c.1-.021.129.3.069.31C161.628,299.8,161.6,299.479,161.661,299.467Z" transform="translate(-155.247 -252.999)" fill="#fff" fill-rule="evenodd"/><path d="M161.994,297.947c.115-.022.121.52-.025.549C161.856,298.518,161.849,297.975,161.994,297.947Z" transform="translate(-155.311 -252.619)" fill="#fff" fill-rule="evenodd"/><path d="M160.282,301.478c.111-.024.106.514-.033.545C160.14,302.048,160.143,301.508,160.282,301.478Z" transform="translate(-154.883 -253.502)" fill="#fff" fill-rule="evenodd"/><path d="M159.046,303.909c.1-.024.115.4.01.424S158.941,303.933,159.046,303.909Z" transform="translate(-154.583 -254.11)" fill="#fff" fill-rule="evenodd"/><path d="M157.653,305.48c.3.538-.3-.538,0,0Z" transform="translate(-154.231 -254.464)" fill="#fff" fill-rule="evenodd"/><path d="M157.229,306.339c-.217.487-.346-.534-.009-.424C157.381,305.968,157.279,306.228,157.229,306.339Z" transform="translate(-154.093 -254.61)" fill="#fff" fill-rule="evenodd"/><path d="M157.851,304.331s.029.635-.082.664a.414.414,0,0,1-.046-.088.937.937,0,0,1-.065-.2C157.629,304.548,157.651,304.381,157.851,304.331Z" transform="translate(-154.252 -254.216)" fill="#fff" fill-rule="evenodd"/><path d="M156.58,307.66Z" transform="translate(-153.974 -255.047)" fill="#fff" fill-rule="evenodd"/><path d="M156.185,308.051c.1-.027.1.394,0,.421S156.087,308.078,156.185,308.051Z" transform="translate(-153.868 -255.145)" fill="#fff" fill-rule="evenodd"/><path d="M160.5,295.594c.111-.021.149.415.037.437S160.39,295.615,160.5,295.594Z" transform="translate(-154.949 -252.03)" fill="#fff" fill-rule="evenodd"/><path d="M159.723,297.671Z" transform="translate(-154.759 -252.549)" fill="#fff" fill-rule="evenodd"/><path d="M168.259,273.45c.126-.01.211.337.137.342C168.271,273.8,168.186,273.455,168.259,273.45Z" transform="translate(-156.899 -246.493)" fill="#fff" fill-rule="evenodd"/><path d="M167.692,274.742c.143.068.208.874-.124,1.066C166.993,276.144,167.622,274.709,167.692,274.742Z" transform="translate(-156.672 -246.816)" fill="#fff" fill-rule="evenodd"/><path d="M157.5,302.845Z" transform="translate(-154.205 -253.843)" fill="#fff" fill-rule="evenodd"/><path d="M166.405,277.358a.659.659,0,0,1-.384,1.09C165.71,278.466,166.447,277.4,166.405,277.358Z" transform="translate(-156.326 -247.47)" fill="#fff" fill-rule="evenodd"/><path d="M165.817,279.135c.41.169-.027.671-.337.269C165.393,279.292,165.838,279.143,165.817,279.135Z" transform="translate(-156.207 -247.915)" fill="#fff" fill-rule="evenodd"/><path d="M165.4,280.586Z" transform="translate(-156.177 -248.277)" fill="#fff" fill-rule="evenodd"/><path d="M165.057,281.554Z" transform="translate(-156.091 -248.519)" fill="#fff" fill-rule="evenodd"/><path d="M155.9,306.427Z" transform="translate(-153.804 -254.738)" fill="#fff" fill-rule="evenodd"/><path d="M163.88,284.016c.115-.016.179.322.112.331C163.879,284.362,163.814,284.024,163.88,284.016Z" transform="translate(-155.804 -249.135)" fill="#fff" fill-rule="evenodd"/><path d="M153.151,313.046c.086-.029.091.281.041.3C153.107,313.373,153.1,313.063,153.151,313.046Z" transform="translate(-153.119 -256.394)" fill="#fff" fill-rule="evenodd"/><path d="M164.068,282.6c.116-.014.184.324.116.332C164.07,282.951,164,282.612,164.068,282.6Z" transform="translate(-155.851 -248.782)" fill="#fff" fill-rule="evenodd"/><path d="M162.974,285.027c-.161.028-.2,2.665-.754,2.747C162.475,287.74,162.252,285.133,162.974,285.027Z" transform="translate(-155.395 -249.388)" fill="#fff" fill-rule="evenodd"/></g><g transform="translate(126.75 254.494)"><path d="M137.321,286.457a8.58,8.58,0,0,0-.155.893c-.47.958-1.761,2.805-1.258,3.191-.185-.141.684-.755.6-.6.1-.178-.178-.393-.145-.545.061-.292.877-1.081,1.095-1.821a7.735,7.735,0,0,1,.289-1.218c-1.055,2.455.033-.673.424-.58a15.344,15.344,0,0,0-.683,2.2c-.375,1.629-2.006,4.584-2.61,5.954-.024.056-.7,1.782-.4,1.743.445-.052.945-2.4,1.162-2.752a25.577,25.577,0,0,1,1.5-3.177c.32-.4.29-.182.256-.174.817-.208.409.716.19.853.173-.11,1.172-2.2.844-2.412-.057-.038-.772,1.682-1.054,1.165-.244-.441.658-1.622.736-1.788.166-.373.414-1.277.9-1.234.243.021-.61.72.1.715.317,0,.038-.565.58-.9.125-.075.323.06.442-.091a2.1,2.1,0,0,0,.486-1.61c.077.347-.57.132-.625.009-.07-.151.233-.568.587-.411.029.013.251.337.283.319.362-.212.349-.958.622-1.454.735-1.328,1.846-3.187,2.631-4.6a7.878,7.878,0,0,1,.923-1.608c.256-.266.355-.172.48-.555a5.208,5.208,0,0,1,.759-1.777c.091-.1.523-.1.6-.214.67-1.115,1.036-2.467,1.967-3.353.868-.809.633-2.23,1.443-2.721.12-.071.451.116.573-.032.867-1.042,1.037-2.722,2.377-3.456.767-.417,1.743-.442,1.319-.947a50.521,50.521,0,0,0-5.977-2.882,16.429,16.429,0,0,0-2.455-.43c-1.8-.008-2.53,1.36-2.92,2.942s-.45,3.37-.745,4.276c-.649,2-1.8,4.272-2.433,6.038a5.194,5.194,0,0,1-.383,1.177c-.222.377-.779.256-.644.578.143.346.861-.353.568.35.456.714-.514.7,0,0-.436-.192-1.062,1.207-1.247,1.753.178-.519-.274,1.177-.2,1.261-.052-.054.84-1.212.489-.167-.921,2.7-2.618,6.356-3.811,9.369a4.057,4.057,0,0,0-.488,1.9c.015.105.49.007.516.036.3.372-.287.818-.426,1.158-.322.751-1.628,2.887-1.247,3.773.142.338.279.107.293-.351-.289-.538.439-.627,0,0,.623-.206.618-1.876.878-2.3.122-.194.571-.145.428-.676-.033-.119-.332-.241-.2-.378s.624.066.721-.064c.037-.05-.26-.238-.206-.38.156-.418,1.278-.564.9-1.426-.018.046-.162.038-.156-.069-.191-.075-.05-.162,0,0l.156.069C136.282,288.6,138.479,283.422,137.321,286.457Zm3.535-4.291c.268.106.066.2-.066.163C140.531,282.256,140.856,282.166,140.856,282.166Zm-.334.813c.279,0-.47,1.342-.133.325C140.405,283.255,140.444,282.979,140.522,282.979Zm-.7,1.706c.1,0,.177.318.071.32S139.713,284.686,139.818,284.685Zm-.742,1.3Zm.529-1.783c.105,0,.179.319.074.321S139.5,284.207,139.605,284.2Zm2.61-8.361c.11,0,.2.256.138.254C142.244,276.1,142.15,275.841,142.215,275.844Zm-3.164,8.21c.1,0,.166.239.109.241C139.063,284.3,138.995,284.056,139.051,284.054Zm1.689-5.5c.253.054-.358.649-.248.659C140.552,279.218,140.335,278.466,140.74,278.553Zm-.529.823c.307.11.1.562-.28.163C139.991,279.6,140.224,279.38,140.211,279.376Zm-.185.494c.11,0,.2.331.093.331S139.915,279.87,140.026,279.87Zm-.247.66c-.07-.032.44.355.028.493C139.361,281.175,139.651,280.472,139.779,280.53Zm-.466,1.235a12.952,12.952,0,0,0-.595,1.254c-.3.669-.623,1.428-.768,1.795-.047.122.038,1.042-.126.329a4.154,4.154,0,0,1,.451-1.723C138.485,282.967,138.695,281.9,139.313,281.765Zm-2.795,5.3c.208.083.1.834-.315.34C135.88,287.022,137.39,287.41,136.518,287.062Zm-.31.824c.97.431-.994.094-.159-.071A1.673,1.673,0,0,1,136.209,287.886Zm-.964,2.072c.219.054-.063.164-.063.164C134.959,290.036,135.133,289.93,135.245,289.958Zm-.43.674Zm1.384-4.771c.1,0,.175.317.075.322S136.1,285.867,136.2,285.861Zm-.446,1.244c.277.317-.071.838-.33.912C135.079,288.113,135.7,287.049,135.752,287.105Zm-.42,1.16c-.033-.108-.02,1.418-.33,1.392-.674-.052.094-.686.179-.978.024-.082-.226-.343-.222-.387C134.974,288.111,135.223,287.944,135.332,288.266Zm4-12.075s.178.508.054.506a.694.694,0,0,1-.075-.08,1.1,1.1,0,0,1-.121-.176C139.123,276.315,139.111,276.187,139.334,276.191Z" transform="translate(-130.355 -260.159)" fill="#fff" fill-rule="evenodd"/><path d="M156.259,270.737c.136.013.265.359.128.346S156.122,270.725,156.259,270.737Z" transform="translate(-136.137 -262.804)" fill="#fff" fill-rule="evenodd"/><path d="M155.109,273.1c.29.025-.6,1.849-.388.885C154.729,273.956,154.893,273.083,155.109,273.1Z" transform="translate(-135.759 -263.395)" fill="#fff" fill-rule="evenodd"/><path d="M153.853,275.434c.13.009.245.35.114.34S153.722,275.424,153.853,275.434Z" transform="translate(-135.536 -263.979)" fill="#fff" fill-rule="evenodd"/><path d="M152.446,277.878c.118.008.212.262.143.257C152.472,278.128,152.377,277.874,152.446,277.878Z" transform="translate(-135.193 -264.59)" fill="#fff" fill-rule="evenodd"/><path d="M150.974,280.326s.164.5.03.495C150.993,280.821,150.493,280.3,150.974,280.326Z" transform="translate(-134.778 -265.202)" fill="#fff" fill-rule="evenodd"/><path d="M149.963,282.027c.112.005.2.254.132.252C149.983,282.274,149.9,282.024,149.963,282.027Z" transform="translate(-134.572 -265.627)" fill="#fff" fill-rule="evenodd"/><path d="M149.4,283.314c.112,0,.193.253.129.25C149.416,283.559,149.334,283.311,149.4,283.314Z" transform="translate(-134.431 -265.949)" fill="#fff" fill-rule="evenodd"/><path d="M148.334,284.911c.3.009-.349,1-.106.241C148.238,285.119,148.276,284.909,148.334,284.911Z" transform="translate(-134.129 -266.349)" fill="#fff" fill-rule="evenodd"/><path d="M147.171,286.94c.114,0,.2.328.083.326S147.056,286.938,147.171,286.94Z" transform="translate(-133.866 -266.856)" fill="#fff" fill-rule="evenodd"/><path d="M146.843,287.691Z" transform="translate(-133.785 -267.044)" fill="#fff" fill-rule="evenodd"/><path d="M145.8,289.4c.1,0,.173.244.112.243C145.811,289.644,145.742,289.4,145.8,289.4Z" transform="translate(-133.531 -267.472)" fill="#fff" fill-rule="evenodd"/><path d="M145.227,290.689Z" transform="translate(-133.381 -267.793)" fill="#fff" fill-rule="evenodd"/><path d="M143.567,293.8c.106,0,.171.316.065.317S143.461,293.8,143.567,293.8Z" transform="translate(-132.965 -268.571)" fill="#fff" fill-rule="evenodd"/><path d="M141.321,295.871Z" transform="translate(-132.405 -269.089)" fill="#fff" fill-rule="evenodd"/><path d="M141.069,296.3c-.2.008.118.788-.15.8a1.808,1.808,0,0,1-.092-.392C140.808,296.51,140.842,296.31,141.069,296.3Z" transform="translate(-132.292 -269.197)" fill="#fff" fill-rule="evenodd"/><path d="M140.277,297.378c.162-.007-.445,1.465-.505,1.6-.357.811-1.1,2.2-.507.736C139.362,299.492,139.814,297.4,140.277,297.378Z" transform="translate(-131.846 -269.466)" fill="#fff" fill-rule="evenodd"/><path d="M137.753,303.518c.1-.008.125.376,0,.386C137.663,303.912,137.633,303.528,137.753,303.518Z" transform="translate(-131.504 -271.002)" fill="#fff" fill-rule="evenodd"/><path d="M137.441,304.162s.066.456-.033.465a.36.36,0,0,1-.049-.068.755.755,0,0,1-.071-.152C137.252,304.295,137.262,304.178,137.441,304.162Z" transform="translate(-131.404 -271.163)" fill="#fff" fill-rule="evenodd"/><path d="M140.559,296.43c.1,0,.161.311.06.315S140.458,296.434,140.559,296.43Z" transform="translate(-132.213 -269.229)" fill="#fff" fill-rule="evenodd"/><path d="M137.916,302.053c.1-.008.133.38.01.389C137.832,302.45,137.795,302.063,137.916,302.053Z" transform="translate(-131.546 -270.635)" fill="#fff" fill-rule="evenodd"/><path d="M140.258,295.91Z" transform="translate(-132.14 -269.099)" fill="#fff" fill-rule="evenodd"/><path d="M138.416,300.237c.243-.016-.35,1-.1.243C138.325,300.448,138.37,300.24,138.416,300.237Z" transform="translate(-131.649 -270.181)" fill="#fff" fill-rule="evenodd"/><path d="M134.644,308.667Z" transform="translate(-130.738 -272.289)" fill="#fff" fill-rule="evenodd"/><path d="M133.481,310.528c-.016,0-.064.367-.149.737s-.207.742-.355.768C133.057,312.023,133.084,310.59,133.481,310.528Z" transform="translate(-130.329 -272.755)" fill="#fff" fill-rule="evenodd"/><path d="M134.426,307.677c.086-.011.118.291.032.3S134.342,307.688,134.426,307.677Z" transform="translate(-130.68 -272.042)" fill="#fff" fill-rule="evenodd"/><path d="M134.165,308.326c.079-.01.11.215.064.22C134.151,308.557,134.119,308.332,134.165,308.326Z" transform="translate(-130.622 -272.204)" fill="#fff" fill-rule="evenodd"/><path d="M136.5,301.957c.238-.02-.475,1.339-.132.326C136.381,302.234,136.428,301.963,136.5,301.957Z" transform="translate(-131.153 -270.611)" fill="#fff" fill-rule="evenodd"/><path d="M135.106,304.8c.271.091-.039.461-.166.407S134.77,304.688,135.106,304.8Z" transform="translate(-130.798 -271.318)" fill="#fff" fill-rule="evenodd"/><path d="M136.293,301.355c-.125.895.139-1,0,0Z" transform="translate(-131.15 -270.386)" fill="#fff" fill-rule="evenodd"/><path d="M135.649,303.089c.084-.008.128.223.079.228C135.646,303.325,135.6,303.094,135.649,303.089Z" transform="translate(-130.993 -270.894)" fill="#fff" fill-rule="evenodd"/><path d="M135.825,302.022c.1-.009.136.381.018.392C135.749,302.422,135.706,302.032,135.825,302.022Z" transform="translate(-131.024 -270.628)" fill="#fff" fill-rule="evenodd"/><path d="M134.646,304.447c.091-.01.127.377.012.389C134.568,304.847,134.532,304.46,134.646,304.447Z" transform="translate(-130.729 -271.234)" fill="#fff" fill-rule="evenodd"/><path d="M133.784,306.111c.085-.01.125.3.039.306S133.7,306.122,133.784,306.111Z" transform="translate(-130.52 -271.65)" fill="#fff" fill-rule="evenodd"/><path d="M132.722,307.146Z" transform="translate(-130.245 -271.879)" fill="#fff" fill-rule="evenodd"/><path d="M132.433,307.738c-.148.334-.331-.408-.038-.305C132.534,307.481,132.468,307.661,132.433,307.738Z" transform="translate(-130.145 -271.978)" fill="#fff" fill-rule="evenodd"/><path d="M132.812,306.338s.07.458-.022.471a.363.363,0,0,1-.046-.067.77.77,0,0,1-.07-.152C132.64,306.479,132.646,306.361,132.812,306.338Z" transform="translate(-130.25 -271.707)" fill="#fff" fill-rule="evenodd"/><path d="M131.976,308.641Z" transform="translate(-130.071 -272.282)" fill="#fff" fill-rule="evenodd"/><path d="M131.676,308.895c.081-.013.116.29.035.3S131.595,308.908,131.676,308.895Z" transform="translate(-129.993 -272.346)" fill="#fff" fill-rule="evenodd"/><path d="M134.422,300.241c.091-.008.151.307.059.315S134.33,300.249,134.422,300.241Z" transform="translate(-130.68 -270.182)" fill="#fff" fill-rule="evenodd"/><path d="M133.909,301.679Z" transform="translate(-130.553 -270.541)" fill="#fff" fill-rule="evenodd"/><path d="M139.426,284.886c.1,0,.19.251.131.251C139.456,285.137,139.367,284.886,139.426,284.886Z" transform="translate(-131.938 -266.342)" fill="#fff" fill-rule="evenodd"/><path d="M139.057,285.782c.12.055.22.634-.04.752C138.569,286.742,139,285.754,139.057,285.782Z" transform="translate(-131.79 -266.566)" fill="#fff" fill-rule="evenodd"/><path d="M132.408,305.244Z" transform="translate(-130.178 -271.433)" fill="#fff" fill-rule="evenodd"/><path d="M138.162,287.576a.418.418,0,0,1-.249.755C137.66,288.326,138.2,287.606,138.162,287.576Z" transform="translate(-131.547 -267.015)" fill="#fff" fill-rule="evenodd"/><path d="M137.772,288.807c.344.144.017.477-.26.172C137.434,288.9,137.79,288.814,137.772,288.807Z" transform="translate(-131.461 -267.323)" fill="#fff" fill-rule="evenodd"/><path d="M137.513,289.813Z" transform="translate(-131.453 -267.574)" fill="#fff" fill-rule="evenodd"/><path d="M137.29,290.483Z" transform="translate(-131.397 -267.742)" fill="#fff" fill-rule="evenodd"/><path d="M131.311,307.707Z" transform="translate(-129.904 -272.049)" fill="#fff" fill-rule="evenodd"/><path d="M136.475,292.17c.093,0,.167.24.112.243C136.5,292.417,136.421,292.172,136.475,292.17Z" transform="translate(-131.2 -268.164)" fill="#fff" fill-rule="evenodd"/><path d="M129.466,312.273c.071-.014.1.209.058.217C129.454,312.5,129.424,312.281,129.466,312.273Z" transform="translate(-129.447 -273.191)" fill="#fff" fill-rule="evenodd"/><path d="M136.544,291.174c.095,0,.17.242.115.244C136.566,291.421,136.49,291.176,136.544,291.174Z" transform="translate(-131.217 -267.915)" fill="#fff" fill-rule="evenodd"/><path d="M135.847,292.853c-.131.01,0,1.89-.451,1.916C135.6,294.76,135.26,292.886,135.847,292.853Z" transform="translate(-130.935 -268.335)" fill="#fff" fill-rule="evenodd"/></g><g transform="translate(257.442 271.257)"><path d="M310.03,283.336c.268-.009.487-.1.487-.182,0-.043-.053-.074-.137-.094a.034.034,0,0,0-.038.016.707.707,0,0,1-.5.164h-.074a.035.035,0,0,0-.01.068A.9.9,0,0,0,310.03,283.336Z" transform="translate(-305.222 -282.649)" fill="#fff"/><path d="M311.465,283.345a1.329,1.329,0,0,0,.139.012c.268.01.451-.07.415-.155a.12.12,0,0,0-.043-.047.062.062,0,0,0-.083.01.6.6,0,0,1-.42.1.042.042,0,0,0-.044.038A.043.043,0,0,0,311.465,283.345Z" transform="translate(-305.647 -282.67)" fill="#fff"/><path d="M307.547,284.356a.792.792,0,0,0,.575-.4c.036-.116-.035-.189-.167-.209a.073.073,0,0,0-.083.076.207.207,0,0,1-.01.068.7.7,0,0,1-.357.345.065.065,0,0,0,.041.123Z" transform="translate(-304.657 -282.82)" fill="#fff"/><path d="M309.078,284.174l.057,0c.295-.024.556-.2.574-.353.011-.094-.056-.163-.165-.2a.035.035,0,0,0-.043.046.161.161,0,0,1,.01.081c-.016.138-.2.288-.443.35a.04.04,0,0,0,.01.079Z" transform="translate(-305.049 -282.788)" fill="#fff"/><path d="M310.884,284.138c.307,0,.539-.151.521-.309a.2.2,0,0,0-.066-.122.042.042,0,0,0-.07.038l0,.012c.015.128-.124.253-.333.3a.432.432,0,0,1-.057.008.035.035,0,0,0,0,.069Z" transform="translate(-305.502 -282.808)" fill="#fff"/><path d="M306.465,285.764l.039-.006a.8.8,0,0,0,.547-.547.245.245,0,0,0-.283-.325.061.061,0,0,0-.048.032.058.058,0,0,0,0,.058.322.322,0,0,1,.027.235.836.836,0,0,1-.322.464.05.05,0,0,0,.036.09Z" transform="translate(-304.391 -283.105)" fill="#fff"/><path d="M308.208,285.4a.048.048,0,0,0,.042.085.683.683,0,0,0,.484-.5.3.3,0,0,0-.205-.329.066.066,0,0,0-.078.1.322.322,0,0,1,.046.22A.647.647,0,0,1,308.208,285.4Z" transform="translate(-304.836 -283.049)" fill="#fff"/><path d="M310.292,285.3a.049.049,0,0,0,.063.014.479.479,0,0,0,.274-.394.356.356,0,0,0-.172-.3.048.048,0,0,0-.065.069.362.362,0,0,1,.07.217.455.455,0,0,1-.163.33A.048.048,0,0,0,310.292,285.3Z" transform="translate(-305.36 -283.036)" fill="#fff"/><path d="M305.745,286.462a.093.093,0,0,0-.041.139.486.486,0,0,1,.065.343.9.9,0,0,1-.172.421.058.058,0,0,0,0,.065.059.059,0,0,0,.059.028.7.7,0,0,0,.454-.6c.036-.291-.121-.467-.325-.41Z" transform="translate(-304.186 -283.494)" fill="#fff"/><path d="M307.18,286.207a.05.05,0,0,0,.024.052.45.45,0,0,1,.2.448.754.754,0,0,1-.178.413.05.05,0,0,0,.061.077.73.73,0,0,0,.4-.566.4.4,0,0,0-.459-.465A.05.05,0,0,0,307.18,286.207Z" transform="translate(-304.584 -283.424)" fill="#fff"/><path d="M309.324,286.567a.626.626,0,0,1-.074.271.058.058,0,0,0,.016.074.059.059,0,0,0,.077-.005.618.618,0,0,0,.187-.41.505.505,0,0,0-.571-.517.03.03,0,0,0-.028.027.03.03,0,0,0,.021.033A.519.519,0,0,1,309.324,286.567Z" transform="translate(-305.022 -283.379)" fill="#fff"/><path d="M306.309,288.152a.563.563,0,0,1,.282.554.8.8,0,0,1-.074.311.06.06,0,0,0,.013.067.059.059,0,0,0,.068.008.669.669,0,0,0,.307-.56c.012-.334-.2-.575-.439-.545a.4.4,0,0,0-.166.061.06.06,0,0,0-.026.054A.057.057,0,0,0,306.309,288.152Z" transform="translate(-304.358 -283.881)" fill="#fff"/><path d="M307.851,287.853a.563.563,0,0,0-.155.033.054.054,0,0,0,.009.1.6.6,0,0,1,.469.632.743.743,0,0,1-.047.247.054.054,0,0,0,.089.058.684.684,0,0,0,.2-.475A.556.556,0,0,0,307.851,287.853Z" transform="translate(-304.704 -283.847)" fill="#fff"/><path d="M309.563,287.821a.044.044,0,0,0-.028.049.043.043,0,0,0,.043.035.671.671,0,0,1,.681.68.716.716,0,0,1-.008.106.051.051,0,0,0,.034.057.052.052,0,0,0,.063-.025.651.651,0,0,0,.078-.308.633.633,0,0,0-.647-.636A.651.651,0,0,0,309.563,287.821Z" transform="translate(-305.173 -283.829)" fill="#fff"/><path d="M317.2,288.989a.03.03,0,0,0,.026-.031c-.009-.237.049-.423.125-.445a.043.043,0,0,0,.026-.023.044.044,0,0,0,0-.034.176.176,0,0,0-.077-.1c-.085-.037-.166.147-.156.415a1.23,1.23,0,0,0,.022.191A.03.03,0,0,0,317.2,288.989Z" transform="translate(-307.077 -283.973)" fill="#fff"/><path d="M307.392,290.645a.619.619,0,0,0-.552-.631.421.421,0,0,0-.266.092.082.082,0,0,0-.03.085.084.084,0,0,0,.066.061.683.683,0,0,1,.5.666.726.726,0,0,1-.01.147.057.057,0,0,0,.028.06.058.058,0,0,0,.067-.005A.582.582,0,0,0,307.392,290.645Z" transform="translate(-304.425 -284.388)" fill="#fff"/><path d="M308.692,289.848a.582.582,0,0,0-.377.136.058.058,0,0,0,.046.1.713.713,0,0,1,.09-.006.7.7,0,0,1,.676.7c0,.014,0,.029,0,.042a.058.058,0,0,0,.04.059.059.059,0,0,0,.068-.023.634.634,0,0,0,.1-.353A.661.661,0,0,0,308.692,289.848Z" transform="translate(-304.863 -284.346)" fill="#fff"/><path d="M311.27,290.713a.046.046,0,0,0,.041.042.047.047,0,0,0,.05-.03.657.657,0,0,0-1.063-.7.058.058,0,0,0,.058.1.692.692,0,0,1,.913.592Z" transform="translate(-305.359 -284.347)" fill="#fff"/><path d="M312.337,290.2a.643.643,0,0,1,.372-.121.619.619,0,0,1,.58.4.049.049,0,0,0,.055.031.05.05,0,0,0,.041-.049.6.6,0,0,0-.6-.619.64.64,0,0,0-.523.284.05.05,0,0,0,.07.069Z" transform="translate(-305.854 -284.346)" fill="#fff"/><path d="M314.195,290.7a.544.544,0,0,1,.418-.223.46.46,0,0,1,.394.226.041.041,0,0,0,.05.016.04.04,0,0,0,.025-.046.482.482,0,0,0-.46-.428.578.578,0,0,0-.51.409.047.047,0,0,0,.022.057A.047.047,0,0,0,314.195,290.7Z" transform="translate(-306.318 -284.447)" fill="#fff"/><path d="M315.721,290.247c.075-.217.228-.37.384-.37a.25.25,0,0,1,.121.031.063.063,0,0,0,.074-.011.064.064,0,0,0,.012-.073.286.286,0,0,0-.252-.177c-.2,0-.4.263-.409.583v0a.036.036,0,0,0,.029.037A.036.036,0,0,0,315.721,290.247Z" transform="translate(-306.703 -284.296)" fill="#fff"/><path d="M316.927,290.464a.04.04,0,0,0,.043-.033c.041-.228.148-.4.249-.4h0a.063.063,0,0,0,.05-.025.06.06,0,0,0,.009-.055c-.03-.091-.077-.149-.14-.149-.116,0-.242.234-.253.52a.88.88,0,0,0,0,.1A.04.04,0,0,0,316.927,290.464Z" transform="translate(-307.012 -284.336)" fill="#fff"/><path d="M308.192,292.838a.048.048,0,0,0,.051-.007.456.456,0,0,0,.164-.4.7.7,0,0,0-.62-.62.448.448,0,0,0-.426.2.083.083,0,0,0,.076.127.728.728,0,0,1,.724.65A.052.052,0,0,0,308.192,292.838Z" transform="translate(-304.627 -284.838)" fill="#fff"/><path d="M309.682,291.9a.583.583,0,0,0-.556.328.051.051,0,0,0,.011.056.049.049,0,0,0,.056.01.669.669,0,0,1,.289-.058.7.7,0,0,1,.67.54.051.051,0,0,0,.038.039.05.05,0,0,0,.052-.018.439.439,0,0,0,.088-.292A.645.645,0,0,0,309.682,291.9Z" transform="translate(-305.07 -284.86)" fill="#fff"/><path d="M312.193,292.736a.05.05,0,0,0,.094,0,.533.533,0,0,0,.03-.147.556.556,0,0,0-.6-.571.668.668,0,0,0-.613.424.05.05,0,0,0,.017.057.051.051,0,0,0,.059,0,.715.715,0,0,1,.416-.144A.608.608,0,0,1,312.193,292.736Z" transform="translate(-305.565 -284.889)" fill="#fff"/><path d="M313.047,292.356a.051.051,0,0,0,.027.055.051.051,0,0,0,.06-.013.7.7,0,0,1,.476-.25.467.467,0,0,1,.463.247.037.037,0,0,0,.037.019.036.036,0,0,0,.03-.028.453.453,0,0,0-.484-.569A.7.7,0,0,0,313.047,292.356Z" transform="translate(-306.051 -284.838)" fill="#fff"/><path d="M314.775,292.271a.572.572,0,0,0,0,.094.035.035,0,0,0,.029.034.035.035,0,0,0,.04-.02.684.684,0,0,1,.473-.4.3.3,0,0,1,.278.1.036.036,0,0,0,.039.011.037.037,0,0,0,.025-.033c.01-.249-.131-.431-.358-.4A.705.705,0,0,0,314.775,292.271Z" transform="translate(-306.483 -284.798)" fill="#fff"/><path d="M316.254,292.232a.036.036,0,0,0,.034.029.035.035,0,0,0,.036-.026.673.673,0,0,1,.365-.469.169.169,0,0,1,.075,0,.066.066,0,0,0,.058-.014.068.068,0,0,0,.023-.057c-.016-.166-.094-.268-.217-.241a.706.706,0,0,0-.378.582A.587.587,0,0,0,316.254,292.232Z" transform="translate(-306.851 -284.747)" fill="#fff"/><path d="M308.884,293.523c-.306-.022-.526.159-.5.4a.048.048,0,0,0,.021.035.052.052,0,0,0,.041.007.649.649,0,0,1,.2-.016.754.754,0,0,1,.6.373.051.051,0,0,0,.03.026.053.053,0,0,0,.038,0,.325.325,0,0,0,.183-.314A.649.649,0,0,0,308.884,293.523Z" transform="translate(-304.886 -285.265)" fill="#fff"/><path d="M310.76,293.592c-.338,0-.6.22-.583.463v.011a.05.05,0,0,0,.073.039.731.731,0,0,1,.348-.085.65.65,0,0,1,.553.269.05.05,0,0,0,.037.023.048.048,0,0,0,.041-.014.377.377,0,0,0,.114-.243C311.359,293.812,311.1,293.591,310.76,293.592Z" transform="translate(-305.334 -285.283)" fill="#fff"/><path d="M312.593,293.935c-.355.025-.659.312-.616.577a.049.049,0,0,0,.031.039.049.049,0,0,0,.049-.008.791.791,0,0,1,.448-.183.518.518,0,0,1,.441.155.05.05,0,0,0,.08-.006C313.211,294.217,313,293.906,312.593,293.935Z" transform="translate(-305.783 -285.368)" fill="#fff"/><path d="M314.319,293.269a.753.753,0,0,0-.589.537.34.34,0,0,0,.005.147.049.049,0,0,0,.038.035.051.051,0,0,0,.049-.017.818.818,0,0,1,.476-.286.377.377,0,0,1,.294.056.05.05,0,0,0,.076-.02A.3.3,0,0,0,314.319,293.269Z" transform="translate(-306.221 -285.2)" fill="#fff"/><path d="M315.73,293.205a.829.829,0,0,0-.493.553.311.311,0,0,0,.012.214.049.049,0,0,0,.087,0,.831.831,0,0,1,.426-.37.257.257,0,0,1,.148,0,.048.048,0,0,0,.038,0,.051.051,0,0,0,.025-.03c0-.012.007-.025.01-.037C316.036,293.3,315.935,293.148,315.73,293.205Z" transform="translate(-306.596 -285.183)" fill="#fff"/><path d="M313.335,291.249l-.009.006a5.387,5.387,0,0,0-7.7-7.461l0-.006c-.035.03-.066.064-.1.1-.094.085-.188.17-.277.261-.047.048-.091.1-.135.148-.078.086-.154.173-.227.263-.045.057-.087.115-.13.173-.065.09-.128.181-.188.275-.041.063-.079.127-.117.192-.055.095-.107.191-.157.289-.034.068-.067.136-.1.206-.045.1-.086.2-.125.307-.027.071-.055.142-.079.214-.036.11-.065.22-.094.332-.019.07-.039.14-.055.212-.027.124-.046.251-.064.379-.009.062-.022.123-.029.186a5.372,5.372,0,0,0,5.953,5.938c.064-.007.126-.019.19-.029.13-.02.26-.04.388-.068.073-.016.143-.036.214-.055.116-.032.231-.065.344-.1.072-.024.142-.05.213-.078.11-.042.217-.088.322-.137.067-.031.133-.062.2-.1.108-.055.212-.116.316-.179.058-.035.116-.067.172-.1.117-.077.229-.16.34-.245.037-.029.077-.056.113-.085a5.11,5.11,0,0,0,.418-.378c.023-.022.042-.047.064-.07.107-.112.211-.227.309-.349C313.315,291.272,313.326,291.261,313.335,291.249Zm-4.226-8.448a5.1,5.1,0,0,1,3.528,8.78.572.572,0,0,1-.29,0c-.262-.086-.7.275-.772.411a.114.114,0,0,1-.194.016c-.224-.224-.782-.026-.905.181a.153.153,0,0,1-.254.006c-.184-.3-.76-.16-.949,0a.223.223,0,0,1-.331-.047.753.753,0,0,0-.853-.217c-.089.037-.323.063-.411-.044a.778.778,0,0,0-.481-.243c-.218-.039-.27-.136-.253-.287a.681.681,0,0,0-.551-.683.34.34,0,0,1-.269-.41.709.709,0,0,0-.55-.793c-.148-.013-.28-.268-.194-.469a.824.824,0,0,0-.33-.908.32.32,0,0,1-.154-.47.746.746,0,0,0-.006-.851c-.156-.157-.23-.234-.17-.421a.727.727,0,0,0,.051-.491.63.63,0,0,1,.126-.445c.64-.68.245-.6.441-.933l0,0A5.081,5.081,0,0,1,309.109,282.8Z" transform="translate(-303.719 -282.512)" fill="#fff"/></g><g transform="translate(138.727 301.81)"><path d="M145.417,323.36h3.491v.591H146.08v1.717h2.771v.591H146.08v2.429h-.663Z" transform="translate(-145.417 -323.28)" fill="#fff"/><path d="M157.665,323.36h.663v5.328h-.663Z" transform="translate(-148.48 -323.28)" fill="#fff"/><path d="M167.8,323.951h-1.685v-.591h4.041v.591H168.46v4.737H167.8Z" transform="translate(-150.592 -323.28)" fill="#fff"/><path d="M179.726,324.39v4.3h-.663V323.36h.679l3.067,4.209V323.36h.663v5.328h-.64Z" transform="translate(-153.831 -323.28)" fill="#fff"/><path d="M192.993,323.36h3.491v.591h-2.828v1.717h2.772v.591h-2.772V328.1h2.828v.591h-3.491Z" transform="translate(-157.314 -323.28)" fill="#fff"/><path d="M205.409,327.407a2.255,2.255,0,0,0,1.678.759c.95,0,1.254-.511,1.254-.919,0-.64-.647-.815-1.35-1.007-.855-.223-1.805-.463-1.805-1.509,0-.879.782-1.478,1.829-1.478a2.5,2.5,0,0,1,1.893.743l-.4.487a2.038,2.038,0,0,0-1.54-.638c-.64,0-1.095.343-1.095.847,0,.535.615.694,1.294.878.871.232,1.861.5,1.861,1.621,0,.775-.527,1.566-1.966,1.566a2.639,2.639,0,0,1-2.044-.847Z" transform="translate(-160.321 -323.253)" fill="#fff"/><path d="M218.041,327.407a2.255,2.255,0,0,0,1.678.759c.95,0,1.253-.511,1.253-.919,0-.64-.646-.815-1.349-1.007-.855-.223-1.806-.463-1.806-1.509,0-.879.783-1.478,1.83-1.478a2.5,2.5,0,0,1,1.893.743l-.4.487a2.038,2.038,0,0,0-1.541-.638c-.639,0-1.095.343-1.095.847,0,.535.616.694,1.294.878.871.232,1.861.5,1.861,1.621,0,.775-.526,1.566-1.965,1.566a2.639,2.639,0,0,1-2.044-.847Z" transform="translate(-163.48 -323.253)" fill="#fff"/></g></g></g></svg>