<svg xmlns="http://www.w3.org/2000/svg" width="200" height="200" viewBox="0 0 200 200"><g transform="translate(-292 -108)"><rect width="200" height="200" transform="translate(292 108)" opacity="0"/><g transform="translate(162.455 77)"><g transform="translate(173.99 146.397)"><g transform="translate(0 0)"><path d="M238.5,357.5v.634h-2.644V354.72h2.581v.634h-1.8v.742h1.585v.615h-1.585v.79Z" transform="translate(-235.858 -354.661)" fill="#fff"/><path d="M250.57,357.612l.268-.6a2.011,2.011,0,0,0,1.127.356c.468,0,.659-.156.659-.366,0-.639-1.986-.2-1.986-1.469,0-.581.468-1.063,1.439-1.063a2.292,2.292,0,0,1,1.186.3l-.244.6a1.928,1.928,0,0,0-.946-.268c-.468,0-.649.176-.649.39,0,.629,1.985.2,1.985,1.449,0,.571-.473,1.059-1.449,1.059A2.437,2.437,0,0,1,250.57,357.612Z" transform="translate(-247.052 -354.475)" fill="#fff"/><path d="M266.335,355.364h-1.093v-.644h2.976v.644h-1.093v2.771h-.79Z" transform="translate(-258.215 -354.661)" fill="#fff"/></g><g transform="translate(98.946 0)"><path d="M652.364,357.3v.644h-2.581v-.513l1.317-1.244c.3-.288.356-.463.356-.629,0-.268-.185-.424-.546-.424a.836.836,0,0,0-.708.341l-.575-.371a1.586,1.586,0,0,1,1.356-.634c.761,0,1.268.39,1.268,1.01a1.362,1.362,0,0,1-.571,1.078l-.785.742Z" transform="translate(-649.627 -354.475)" fill="#fff"/><path d="M664.585,356.241c0-1.127.624-1.766,1.463-1.766s1.464.639,1.464,1.766-.62,1.766-1.464,1.766S664.585,357.368,664.585,356.241Zm2.132,0c0-.776-.273-1.1-.668-1.1s-.663.322-.663,1.1.273,1.1.663,1.1S666.717,357.017,666.717,356.241Z" transform="translate(-661.008 -354.475)" fill="#fff"/><path d="M681.107,354.719v3.415h-.79v-2.781h-.683v-.634Z" transform="translate(-672.458 -354.661)" fill="#fff"/><path d="M692.778,354.719v.512l-1.268,2.9h-.859l1.225-2.771h-1.132v.556h-.7v-1.2Z" transform="translate(-680.377 -354.661)" fill="#fff"/></g></g><g transform="translate(170.21 175.694)"><path d="M223.394,478.605c0,.909-.659,1.458-1.745,1.458H220.5v1.349h-.451v-4.271h1.6C222.735,477.141,223.394,477.69,223.394,478.605Zm-.451,0c0-.684-.452-1.074-1.306-1.074H220.5v2.135h1.135C222.491,479.667,222.943,479.276,222.943,478.605Z" transform="translate(-220.051 -477.104)" fill="#fff"/><path d="M244.7,481.412l-.976-1.373a3.052,3.052,0,0,1-.342.018h-1.147v1.354h-.452v-4.271h1.6c1.086,0,1.745.549,1.745,1.464a1.324,1.324,0,0,1-.976,1.342l1.043,1.464Zm-.024-2.806c0-.684-.452-1.074-1.306-1.074h-1.135v2.142h1.135C244.219,479.673,244.671,479.276,244.671,478.605Z" transform="translate(-236.583 -477.104)" fill="#fff"/><path d="M267.056,481.021v.39h-3.02v-4.271h2.928v.39h-2.477v1.519H266.7v.384h-2.209v1.586Z" transform="translate(-253.518 -477.104)" fill="#fff"/><path d="M288.676,477.141v4.271h-.433V478l-1.678,2.873h-.214l-1.678-2.855v3.4h-.433v-4.271h.372l1.855,3.166,1.836-3.166Z" transform="translate(-268.891 -477.104)" fill="#fff"/><path d="M312.218,477.141h.451v4.271h-.451Z" transform="translate(-290.178 -477.104)" fill="#fff"/><path d="M323.369,479.588v-2.447h.452v2.428c0,1.013.476,1.476,1.305,1.476s1.312-.464,1.312-1.476v-2.428h.439v2.447a1.757,1.757,0,1,1-3.508,0Z" transform="translate(-298.662 -477.104)" fill="#fff"/><path d="M351.77,477.141v4.271h-.433V478l-1.678,2.873h-.214l-1.678-2.855v3.4h-.433v-4.271h.372l1.854,3.166,1.836-3.166Z" transform="translate(-316.897 -477.104)" fill="#fff"/><path d="M385.17,479.16a2.144,2.144,0,0,1,2.239-2.172,2.067,2.067,0,0,1,1.562.622l-.286.287a1.693,1.693,0,0,0-1.263-.506,1.77,1.77,0,1,0,0,3.538,1.675,1.675,0,0,0,1.263-.512l.286.287a2.076,2.076,0,0,1-1.568.628A2.142,2.142,0,0,1,385.17,479.16Z" transform="translate(-345.684 -476.988)" fill="#fff"/><path d="M406.955,479.16a2.243,2.243,0,1,1,2.245,2.172A2.149,2.149,0,0,1,406.955,479.16Zm4.033,0a1.794,1.794,0,1,0-1.787,1.769A1.73,1.73,0,0,0,410.987,479.16Z" transform="translate(-362.26 -476.988)" fill="#fff"/><path d="M433.795,477.141h.452v3.88h2.391v.39h-2.843Z" transform="translate(-382.682 -477.104)" fill="#fff"/><path d="M450.3,479.16a2.243,2.243,0,1,1,2.245,2.172A2.149,2.149,0,0,1,450.3,479.16Zm4.033,0a1.794,1.794,0,1,0-1.788,1.769A1.73,1.73,0,0,0,454.332,479.16Z" transform="translate(-395.239 -476.988)" fill="#fff"/><path d="M481.576,477.141v4.271h-.433V478l-1.678,2.873h-.213l-1.678-2.855v3.4h-.433v-4.271h.372l1.855,3.166,1.837-3.166Z" transform="translate(-415.662 -477.104)" fill="#fff"/><path d="M508.693,480.271c0,.726-.537,1.141-1.6,1.141h-1.965v-4.271h1.842c.952,0,1.5.4,1.5,1.1a.991.991,0,0,1-.653.97A1.02,1.02,0,0,1,508.693,480.271Zm-3.117-2.758v1.55h1.36c.683,0,1.08-.263,1.08-.775s-.4-.775-1.08-.775Zm2.666,2.721c0-.555-.409-.8-1.159-.8h-1.507v1.6h1.507C507.833,481.039,508.242,480.8,508.242,480.234Z" transform="translate(-436.953 -477.104)" fill="#fff"/><path d="M528.254,477.141h.452v4.271h-.452Z" transform="translate(-454.552 -477.104)" fill="#fff"/><path d="M540.318,480.271h-2.38l-.512,1.141h-.47l1.952-4.271h.445l1.952,4.271h-.476Zm-.165-.366-1.025-2.294L538.1,479.9Z" transform="translate(-461.173 -477.104)" fill="#fff"/><path d="M565.58,477.141v4.271h-.372l-2.746-3.465v3.465h-.451v-4.271h.372l2.751,3.466v-3.466Z" transform="translate(-480.237 -477.104)" fill="#fff"/><path d="M596.223,479.16a2.144,2.144,0,0,1,2.239-2.172,2.067,2.067,0,0,1,1.562.622l-.287.287a1.692,1.692,0,0,0-1.263-.506,1.77,1.77,0,1,0,0,3.538,1.674,1.674,0,0,0,1.263-.512l.287.287a2.076,2.076,0,0,1-1.568.628A2.143,2.143,0,0,1,596.223,479.16Z" transform="translate(-506.268 -476.988)" fill="#fff"/><path d="M618.008,479.16a2.243,2.243,0,1,1,2.245,2.172A2.149,2.149,0,0,1,618.008,479.16Zm4.032,0a1.794,1.794,0,1,0-1.787,1.769A1.73,1.73,0,0,0,622.04,479.16Z" transform="translate(-522.843 -476.988)" fill="#fff"/><path d="M645.3,477.531v1.678h2.209v.391H645.3v1.812h-.451v-4.271h2.928v.39Z" transform="translate(-543.265 -477.104)" fill="#fff"/><path d="M664.86,477.531v1.678h2.209v.391H664.86v1.812h-.451v-4.271h2.928v.39Z" transform="translate(-558.148 -477.104)" fill="#fff"/><path d="M686.989,481.021v.39h-3.02v-4.271H686.9v.39H684.42v1.519h2.209v.384H684.42v1.586Z" transform="translate(-573.03 -477.104)" fill="#fff"/><path d="M707.2,481.021v.39h-3.02v-4.271H707.1v.39h-2.477v1.519h2.209v.384h-2.209v1.586Z" transform="translate(-588.405 -477.104)" fill="#fff"/></g><g transform="translate(192.84 81)"><path d="M385.27,263.728c.318.359.648.711.945,1.092a7.324,7.324,0,0,1,.13-.721,5.873,5.873,0,0,0-2.628-1.95,3.383,3.383,0,0,0-1.052-.189,2.112,2.112,0,0,0-1.356.436,2.64,2.64,0,0,0-.834,2.327,6.149,6.149,0,0,0,1.294,3.236c.07.093.144.18.217.268a6.629,6.629,0,0,1,.663-.021c-.018-.022-.039-.043-.057-.066a15.336,15.336,0,0,1-1.01-1.484.167.167,0,0,1,.045-.228.158.158,0,0,1,.216.038l.012.016a14.787,14.787,0,0,0,1.061,1.368c.128.142.265.274.4.408a5.332,5.332,0,0,1,.789.163c.036.01.069.025.1.036.017-.019.034-.038.052-.055-.452-.536-.881-1.088-1.278-1.666a.167.167,0,0,1,.039-.23.159.159,0,0,1,.216.029l0,0c.432.534.9,1.043,1.38,1.53a4.233,4.233,0,0,1,.362-.264c.027-.017.055-.031.082-.048l-1.028-1.489a.167.167,0,0,1,.039-.23.159.159,0,0,1,.216.028l1.21,1.458a4.075,4.075,0,0,1,.493-.193,20.51,20.51,0,0,0-1.248-1.987l0,0a.167.167,0,0,1,.036-.23.159.159,0,0,1,.217.026,21.157,21.157,0,0,1,1.288,1.726,5.849,5.849,0,0,1-.12-1.348c-.033-.055-.062-.113-.1-.167a14.865,14.865,0,0,0-1.031-1.392l-.012-.016a.166.166,0,0,1,.026-.23A.158.158,0,0,1,385.27,263.728Zm-2.9.072c-.32.252-.72.269-.893.039a.675.675,0,0,1,.265-.873c.32-.252.72-.269.893-.039A.675.675,0,0,1,382.37,263.8Z" transform="translate(-364.735 -218.686)" fill="#fff"/><path d="M392.175,320.337a.16.16,0,0,1-.194.12.164.164,0,0,1-.12-.188l0-.02a15.215,15.215,0,0,0,.262-1.726c.026-.34.031-.679.023-1.018a6.307,6.307,0,0,1-.1-.657c-.132-.005-.265-.016-.4-.035a21.281,21.281,0,0,1-.372,2.416.161.161,0,0,1-.191.126.164.164,0,0,1-.126-.182v-.006a20.718,20.718,0,0,0,.18-2.46,4.133,4.133,0,0,1-.457-.153l-.458,2.2a.161.161,0,0,1-.191.127.165.165,0,0,1-.126-.181l.282-2.378a4.036,4.036,0,0,1-.373-.236c-.012.034-.026.066-.037.1a20.2,20.2,0,0,0-.7,2.661v.005a.161.161,0,0,1-.189.129.165.165,0,0,1-.128-.181,20.921,20.921,0,0,1,.461-2.6,6.987,6.987,0,0,1-.606.355,9.988,9.988,0,0,0-.43,1.3,15.256,15.256,0,0,0-.3,1.72l0,.02a.161.161,0,0,1-.183.137.164.164,0,0,1-.135-.177,15.593,15.593,0,0,1,.2-1.8q.086-.456.211-.906c-.142.057-.285.112-.433.162-.03.01-.06.016-.09.026a7.171,7.171,0,0,0-.329,1.277,6.2,6.2,0,0,0,.36,3.477,2.566,2.566,0,0,0,1.813,1.643,2.521,2.521,0,0,0,2.235-.951,6.033,6.033,0,0,0,1.4-2.92,7.569,7.569,0,0,1-.4-.84C392.451,319.269,392.3,319.8,392.175,320.337Zm-1.949,1.985c-.046.287-.406.466-.8.4s-.684-.353-.638-.64.406-.466.8-.4S390.271,322.034,390.225,322.322Z" transform="translate(-369.734 -259.868)" fill="#fff"/><path d="M428.494,286.342a14.692,14.692,0,0,1-1.642.67,9.842,9.842,0,0,1-1.377.327c.141.107.28.223.416.345a6.622,6.622,0,0,0,1.746-.359c2.389-.833,3.9-2.8,3.377-4.384a2.563,2.563,0,0,0-1.877-1.564,4.882,4.882,0,0,0-1.271-.171,6.384,6.384,0,0,0-2.015.332,7.19,7.19,0,0,1-.542.77,14.917,14.917,0,0,1,1.681-.488.16.16,0,0,1,.2.118.165.165,0,0,1-.1.2l-.019.006a14.257,14.257,0,0,0-1.61.581,9.164,9.164,0,0,0-1.483.834c-.132.092-.259.189-.385.289.061.1.119.207.171.315.036-.017.072-.036.109-.053a19.446,19.446,0,0,1,2.6-.957.161.161,0,0,1,.2.112.166.166,0,0,1-.1.2l-.005,0A19.136,19.136,0,0,0,424.1,284.6c-.047.027-.092.056-.139.083q.062.186.107.378l2.476-.739a.161.161,0,0,1,.2.112.166.166,0,0,1-.1.2l-2.484.994c.012.119.017.239.019.361.121-.016.242-.029.363-.049a19.015,19.015,0,0,0,2.621-.631h0a.16.16,0,0,1,.2.11.166.166,0,0,1-.095.2,19.492,19.492,0,0,1-2.627.863c-.164.039-.329.073-.494.107a5.176,5.176,0,0,1,.581.274c.108,0,.216,0,.324-.01a9.031,9.031,0,0,0,1.672-.265,14.331,14.331,0,0,0,1.622-.545l.018-.007a.159.159,0,0,1,.2.1A.166.166,0,0,1,428.494,286.342Zm1.132-3.708c.269-.093.592.149.721.54s.015.784-.255.877-.592-.149-.721-.541S429.357,282.727,429.626,282.634Z" transform="translate(-397.543 -233.33)" fill="#fff"/><path d="M413.4,258.812a6.2,6.2,0,0,0,.451-3.466,2.6,2.6,0,0,0-1.382-2.034,1.938,1.938,0,0,0-.769-.16,2.944,2.944,0,0,0-1.623.545,6.563,6.563,0,0,0-2.53,6.472,7.211,7.211,0,0,1,.13-1.171,10.126,10.126,0,0,1,.511-1.745,15.434,15.434,0,0,1,.776-1.625.159.159,0,0,1,.216-.07.166.166,0,0,1,.073.211l-.008.019a15.079,15.079,0,0,0-.653,1.614,9.646,9.646,0,0,0-.385,1.687,6.136,6.136,0,0,0-.035,1.38l.114.016c.073-.322.156-.638.252-.948a20.558,20.558,0,0,1,1.039-2.616.159.159,0,0,1,.215-.077.166.166,0,0,1,.08.208l0,.005a20.161,20.161,0,0,0-.812,2.627c-.071.311-.127.624-.171.935.059.018.119.033.177.054l1.426-3.035a.16.16,0,0,1,.215-.077.167.167,0,0,1,.081.207l-1.157,3.157c.055.029.111.055.164.086.187-.247.368-.5.538-.769a19.962,19.962,0,0,0,1.292-2.417l0,0a.159.159,0,0,1,.214-.08.167.167,0,0,1,.083.207,20.492,20.492,0,0,1-1.128,2.577c-.152.286-.319.567-.5.844.03.024.061.048.09.073a5.921,5.921,0,0,0,.951-.982,9.487,9.487,0,0,0,.924-1.451,15.073,15.073,0,0,0,.688-1.6l.007-.018a.159.159,0,0,1,.21-.089.166.166,0,0,1,.091.2,15.489,15.489,0,0,1-.61,1.7,10.015,10.015,0,0,1-.878,1.585,6.966,6.966,0,0,1-.74.91A5.91,5.91,0,0,0,413.4,258.812Zm-.739-4.056a.642.642,0,0,1-.874.188c-.371-.164-.58-.513-.467-.78a.643.643,0,0,1,.874-.188C412.559,254.139,412.769,254.488,412.656,254.755Z" transform="translate(-385.23 -211.984)" fill="#fff"/><path d="M366.461,293.568a2.652,2.652,0,0,0-.588,2.4,2.566,2.566,0,0,0,1.856,1.59,5.8,5.8,0,0,0,3.414-.151,6.6,6.6,0,0,0,1.755-.888q-.126-.149-.238-.31a10.172,10.172,0,0,1-1.072.467,14.649,14.649,0,0,1-1.706.47.16.16,0,0,1-.194-.121.164.164,0,0,1,.108-.2l.019-.006a14.35,14.35,0,0,0,1.617-.558,9.815,9.815,0,0,0,.961-.49,4.378,4.378,0,0,1-.241-.515q-.85.319-1.722.563a.161.161,0,0,1-.2-.116.166.166,0,0,1,.1-.2l.005,0c.567-.209,1.123-.452,1.67-.712a4.27,4.27,0,0,1-.1-.584l-1.546.437a.16.16,0,0,1-.2-.115.166.166,0,0,1,.1-.2l1.617-.621a4.377,4.377,0,0,1,.04-.577,19.737,19.737,0,0,0-2.167.516l-.005,0a.161.161,0,0,1-.2-.112.167.167,0,0,1,.1-.2,19.826,19.826,0,0,1,2.389-.762,4.309,4.309,0,0,1,.146-.445c-.1,0-.2,0-.3.005a9.044,9.044,0,0,0-1.675.242,14.336,14.336,0,0,0-1.629.522l-.018.006a.159.159,0,0,1-.2-.1.166.166,0,0,1,.091-.2,14.716,14.716,0,0,1,1.651-.646,9.53,9.53,0,0,1,1.744-.366c.205-.022.413-.034.622-.039.022-.038.046-.075.07-.113a4.978,4.978,0,0,0-1.15-.147,6.444,6.444,0,0,0-2.067.341A5.933,5.933,0,0,0,366.461,293.568Zm.8,2.728c-.27.091-.591-.154-.718-.546s-.01-.784.261-.875.591.154.718.546S367.533,296.206,367.262,296.3Z" transform="translate(-353.561 -241.007)" fill="#fff"/><path d="M417.094,309.19a6,6,0,0,0-2.579-2.334c-.007.021-.014.041-.021.061a7.322,7.322,0,0,1,.667.611,9.91,9.91,0,0,1,1.128,1.409,15.382,15.382,0,0,1,.883,1.567.166.166,0,0,1-.064.223.158.158,0,0,1-.212-.056l-.011-.017a15.067,15.067,0,0,0-.943-1.456,9.414,9.414,0,0,0-1.152-1.269,6.757,6.757,0,0,0-.531-.434c-.049.1-.1.2-.159.29.047.059.1.116.142.175a20.263,20.263,0,0,1,1.54,2.344.167.167,0,0,1-.058.225.159.159,0,0,1-.213-.048l0,0a19.734,19.734,0,0,0-1.675-2.157c-.019-.021-.039-.041-.059-.062a4.108,4.108,0,0,1-.283.32l1.2,2.1a.167.167,0,0,1-.057.225.159.159,0,0,1-.213-.047l-1.332-1.915a4.192,4.192,0,0,1-.368.258,20.194,20.194,0,0,0,1.187,2.336l0,0a.167.167,0,0,1-.055.226.159.159,0,0,1-.214-.045,20.515,20.515,0,0,1-1.384-2.267,4.056,4.056,0,0,1-.384.155c.02.071.037.142.059.213a9.581,9.581,0,0,0,.659,1.6,14.991,14.991,0,0,0,.911,1.477l.011.017a.167.167,0,0,1-.045.228.159.159,0,0,1-.216-.038,15.235,15.235,0,0,1-1.034-1.466,10.052,10.052,0,0,1-.793-1.631c-.031-.082-.058-.167-.086-.25-.071.014-.143.027-.215.037a6.545,6.545,0,0,0,.989,2.7c1.371,2.169,3.6,3.194,4.977,2.284a2.628,2.628,0,0,0,1.025-2.245A6.166,6.166,0,0,0,417.094,309.19Zm-.389,4.977a.642.642,0,0,1-.893-.039.673.673,0,0,1,.337-.847.642.642,0,0,1,.893.039A.673.673,0,0,1,416.705,314.167Z" transform="translate(-388.062 -252.846)" fill="#fff"/><path d="M397.091,293.762a3.414,3.414,0,0,0,4.074-2.645,3.5,3.5,0,0,0-2.584-4.17,3.325,3.325,0,0,0-2.572.458,3.468,3.468,0,0,0-1.5,2.186,3.536,3.536,0,0,0,.448,2.633A3.388,3.388,0,0,0,397.091,293.762Zm.5-4.67a.773.773,0,0,1,.974.457c.068.349-.257.71-.726.806a.773.773,0,0,1-.974-.457C396.794,289.549,397.119,289.188,397.588,289.092Z" transform="translate(-375.356 -237.633)" fill="#fff"/><path d="M472.331,200.944l.018-.008a14.4,14.4,0,0,0,1.555-.72c.142-.08.277-.17.415-.256.048-.125.1-.247.152-.367-.045-.064-.093-.127-.135-.194-.026-.042-.047-.086-.072-.129q-.69.329-1.4.608a.16.16,0,0,1-.208-.095.166.166,0,0,1,.08-.207l.005,0c.446-.218.885-.455,1.316-.705a4.331,4.331,0,0,1-.224-.608l-1.155.457a.16.16,0,0,1-.208-.094.167.167,0,0,1,.079-.207l1.187-.6a4.361,4.361,0,0,1-.055-.642c-.576.179-1.147.385-1.7.614l0,0a.16.16,0,0,1-.209-.092.167.167,0,0,1,.078-.209q.682-.347,1.383-.643a6.206,6.206,0,0,1-1.066-.317c-.489.175-.953.412-1.427.631l-.018.008a.158.158,0,0,1-.212-.082.166.166,0,0,1,.07-.213c.353-.192.7-.4,1.065-.576-.2-.1-.4-.209-.6-.33a5.848,5.848,0,0,0-2.345,2.063,2.659,2.659,0,0,0-.352,2.451c.657,1.533,3.071,1.936,5.383.9.077-.034.15-.073.224-.11.042-.229.1-.451.157-.668l-.009,0a14.649,14.649,0,0,1-1.653.641.159.159,0,0,1-.2-.1A.166.166,0,0,1,472.331,200.944Zm-2.578-.275c-.261.116-.6-.1-.763-.476s-.08-.78.181-.9.6.1.763.476S470.014,200.552,469.753,200.668Z" transform="translate(-431.475 -168.476)" fill="#fff"/><path d="M523.573,212.949c-.507-.181-1.024-.345-1.516-.575-.032.183-.071.363-.115.539.115.059.231.117.35.171,2.313,1.032,4.727.625,5.382-.909.57-1.336-.38-3.091-2.161-4.2a7.013,7.013,0,0,1-2.012.3,5.859,5.859,0,0,1-1.073-.106c-.033.067-.066.134-.1.2.63.244,1.243.522,1.847.827a.167.167,0,0,1,.073.221.16.16,0,0,1-.2.08l-.005,0a19.944,19.944,0,0,0-1.991-.7c-.05.067-.1.136-.151.2q.056.19.1.387l1.47.738a.166.166,0,0,1,.074.221.16.16,0,0,1-.2.081l-1.24-.488a7.312,7.312,0,0,1,.073.764c.364.2.732.4,1.106.581l0,0a.167.167,0,0,1,.076.22.16.16,0,0,1-.2.083c-.331-.129-.657-.268-.981-.412,0,.221-.016.445-.039.671,0,.029-.008.056-.012.085a14.507,14.507,0,0,0,1.55.713l.018.008a.166.166,0,0,1,.085.215A.16.16,0,0,1,523.573,212.949Zm2.511-1.483c.16-.379.5-.593.762-.477s.343.517.183.9-.5.593-.762.477S525.924,211.845,526.084,211.466Z" transform="translate(-472.345 -177.607)" fill="#fff"/><path d="M504.766,156.614a2.71,2.71,0,0,0-1.894.907,6.12,6.12,0,0,0-1.557,3.113c-.005.025-.008.049-.012.073a6.839,6.839,0,0,1,.432.592,17.069,17.069,0,0,1,.425-1.659.16.16,0,0,1,.2-.113.164.164,0,0,1,.113.192l0,.02a15.206,15.206,0,0,0-.324,1.715c-.019.169-.026.339-.037.508a5.658,5.658,0,0,1,.28.675c.033.1.057.2.083.295l.12-.016a21.569,21.569,0,0,1,.424-2.136.161.161,0,0,1,.2-.119.165.165,0,0,1,.119.187v.006c-.113.672-.2,1.354-.246,2.035a4.1,4.1,0,0,1,.562.047l.4-1.64a.161.161,0,0,1,.2-.12.165.165,0,0,1,.12.186l-.259,1.67a4.136,4.136,0,0,1,.536.181c.217-.644.4-1.3.555-1.968v-.005a.16.16,0,0,1,.194-.122.165.165,0,0,1,.122.186c-.1.647-.224,1.288-.379,1.923a6.28,6.28,0,0,1,.841-.716c.025-.08.056-.157.08-.237a15.2,15.2,0,0,0,.361-1.707l0-.02a.161.161,0,0,1,.188-.13.164.164,0,0,1,.129.182c-.065.522-.113,1.05-.22,1.568q.3-.172.616-.317a6.2,6.2,0,0,0-.236-3.486,2.571,2.571,0,0,0-1.753-1.71A1.885,1.885,0,0,0,504.766,156.614Zm.844,1.416c-.058.285-.425.447-.82.363s-.668-.384-.611-.669.425-.447.82-.363S505.668,157.745,505.61,158.03Z" transform="translate(-456.677 -138.532)" fill="#fff"/><path d="M474.3,166.892a14.91,14.91,0,0,1,1.46,1.019,9.823,9.823,0,0,1,1.288,1.258,7.084,7.084,0,0,1,.654.909h0c-.02-.074-.038-.148-.063-.223a6.062,6.062,0,0,0-2.068-2.784,5.857,5.857,0,0,0-3.175-1.292q-.1-.006-.2-.007a2.438,2.438,0,0,0-2.062.884,2.66,2.66,0,0,0-.218,2.468,6.448,6.448,0,0,0,5.037,4.061c.009-.041.022-.08.032-.121-.215-.081-.426-.169-.631-.267a9.677,9.677,0,0,1-1.529-.933,14.974,14.974,0,0,1-1.351-1.166.167.167,0,0,1-.014-.232.158.158,0,0,1,.218-.021l.016.012a14.541,14.541,0,0,0,1.371,1.041,9.174,9.174,0,0,0,1.5.793c.2.08.4.149.6.209.04-.1.085-.2.132-.294-.074-.045-.15-.088-.223-.134a19.784,19.784,0,0,1-2.226-1.668.167.167,0,0,1-.02-.232.159.159,0,0,1,.216-.029l0,0a19.291,19.291,0,0,0,2.292,1.446c.078.041.159.078.238.118.068-.1.141-.2.217-.293l-2.047-1.744a.167.167,0,0,1-.021-.232.159.159,0,0,1,.216-.03l2.24,1.586c.083-.078.166-.155.256-.226-.087-.1-.173-.205-.263-.3a19.556,19.556,0,0,0-1.976-1.872l0,0a.167.167,0,0,1-.024-.232.159.159,0,0,1,.216-.032,19.866,19.866,0,0,1,2.167,1.748c.125.118.247.241.368.364.071-.042.141-.087.213-.124a6.576,6.576,0,0,0-.511-.8,9.355,9.355,0,0,0-1.15-1.271,14.586,14.586,0,0,0-1.347-1.072l-.016-.012a.166.166,0,0,1-.033-.23A.159.159,0,0,1,474.3,166.892Zm-2.784.838c-.245.328-.627.451-.853.274a.678.678,0,0,1,.035-.914c.245-.328.627-.451.853-.274A.678.678,0,0,1,471.516,167.729Z" transform="translate(-432.648 -145.499)" fill="#fff"/><path d="M495.7,214.077a4.155,4.155,0,0,1-.346-.3,7.029,7.029,0,0,0-.408,1.743c-.27,2.568.833,4.8,2.458,4.983s3.17-1.764,3.441-4.331a6.918,6.918,0,0,0-.1-2.162c-.1.08-.2.157-.313.228-.01.007-.021.011-.031.017a10.784,10.784,0,0,1-.022,1.2,15.534,15.534,0,0,1-.28,1.786.161.161,0,0,1-.187.132.164.164,0,0,1-.13-.181l0-.02a15.173,15.173,0,0,0,.164-1.739c.006-.306,0-.611-.023-.915a4.08,4.08,0,0,1-.607.231q-.063.722-.174,1.438a.162.162,0,0,1-.184.137.164.164,0,0,1-.136-.175v-.006c.032-.432.051-.866.058-1.3a4.04,4.04,0,0,1-.686.065l-.13.865a.162.162,0,0,1-.183.138.165.165,0,0,1-.137-.173l.052-.85a4.21,4.21,0,0,1-.509-.078c-.057-.013-.111-.031-.167-.046-.074.389-.14.779-.193,1.17v.005a.162.162,0,0,1-.182.14.165.165,0,0,1-.138-.173q.038-.639.111-1.273a4.084,4.084,0,0,1-.59-.275c-.054.21-.108.421-.149.635a15.275,15.275,0,0,0-.2,1.735l0,.02a.162.162,0,0,1-.175.148.163.163,0,0,1-.145-.169,15.583,15.583,0,0,1,.1-1.806C495.594,214.644,495.643,214.36,495.7,214.077Zm1.889,4.666c.4.043.7.312.673.6s-.379.489-.78.446-.7-.312-.673-.6S497.189,218.7,497.591,218.743Z" transform="translate(-451.81 -182.029)" fill="#fff"/><path d="M524.588,184a14.683,14.683,0,0,1-1.642.67,9.54,9.54,0,0,1-1.739.39c-.114.014-.229.023-.344.033-.016.067-.034.133-.053.2a6.124,6.124,0,0,0,2.92-.309,5.936,5.936,0,0,0,2.822-1.973,2.653,2.653,0,0,0,.555-2.412,2.561,2.561,0,0,0-1.877-1.564,4.879,4.879,0,0,0-1.271-.171,6.419,6.419,0,0,0-2.141.37,6.211,6.211,0,0,0-2.418,1.5c.057.046.114.093.169.142.068-.044.135-.09.2-.132a9.631,9.631,0,0,1,1.61-.777,14.614,14.614,0,0,1,1.7-.495.161.161,0,0,1,.2.118.165.165,0,0,1-.105.2l-.019.006a14.332,14.332,0,0,0-1.61.581,9.2,9.2,0,0,0-1.483.834c-.035.024-.067.05-.1.075a4.326,4.326,0,0,1,.271.357,19.884,19.884,0,0,1,2.32-.838.16.16,0,0,1,.2.113.165.165,0,0,1-.1.2l-.005,0a19.671,19.671,0,0,0-2.143.98,4.3,4.3,0,0,1,.2.455l1.931-.576a.16.16,0,0,1,.2.112.166.166,0,0,1-.1.2l-1.886.755a4.327,4.327,0,0,1,.09.5,19.467,19.467,0,0,0,2.314-.575h0a.16.16,0,0,1,.2.11.166.166,0,0,1-.095.2,19.83,19.83,0,0,1-2.391.8c0,.147-.007.293-.022.441.066,0,.131,0,.2-.006a9.017,9.017,0,0,0,1.672-.265,14.263,14.263,0,0,0,1.622-.545l.018-.007a.16.16,0,0,1,.2.1A.166.166,0,0,1,524.588,184Zm1.132-3.708c.269-.093.592.149.72.541s.015.784-.255.877-.592-.149-.721-.541S525.451,180.385,525.72,180.292Z" transform="translate(-470.447 -155.461)" fill="#fff"/><path d="M500.615,187.692a3.387,3.387,0,0,0-2.856-1.609,3.328,3.328,0,0,0-1.857.553,3.465,3.465,0,0,0-1.492,2.193,3.534,3.534,0,0,0,.46,2.631,3.369,3.369,0,0,0,4.713,1.056A3.545,3.545,0,0,0,500.615,187.692Zm-1.8,1.834a.765.765,0,0,1-1.07.05.8.8,0,0,1-.378-1.026.765.765,0,0,1,1.07-.05A.8.8,0,0,1,498.812,189.526Z" transform="translate(-451.371 -160.954)" fill="#fff"/><path d="M435.17,235.32c-.02.049-.043.095-.064.143a6.649,6.649,0,0,1,2.126-.129c4.2-3.922,8.108-7.913,11.521-11.713a7.648,7.648,0,0,1-.076-1.744,7.243,7.243,0,0,1-1.754.484c-3.269,3.7-7.087,7.736-11.36,11.747A7.948,7.948,0,0,1,435.17,235.32Z" transform="translate(-406.31 -188.189)" fill="#fff"/><path d="M544.361,184.348l-.234.1a2.88,2.88,0,0,1,.058.96l.507-.21c1.072-.439,3.715-.666,4.641.3a4.075,4.075,0,0,0,2.363,1,5.651,5.651,0,0,1,.953.227,6.117,6.117,0,0,1,.824.448,6.243,6.243,0,0,0,3.137,1.128,4.306,4.306,0,0,1,1.243.293,8.992,8.992,0,0,0,4.883.405,4.751,4.751,0,0,1-.652.422,8.3,8.3,0,0,1-1.821.69,16.683,16.683,0,0,1-3.92.459,34.151,34.151,0,0,1-5.081-.364,5.086,5.086,0,0,0,.555-.58,4.8,4.8,0,0,1,.561-.6,2.3,2.3,0,0,1,.675-.4l0,0a.181.181,0,0,0,.108-.212.175.175,0,0,0-.213-.13,2.673,2.673,0,0,0-.835.378,5.163,5.163,0,0,0-.683.583,4,4,0,0,1-.614.514,1.972,1.972,0,0,1-.674.272h0q-.87-.14-1.737-.3-1.1-.2-2.2-.379a5.34,5.34,0,0,0,.808-.663c.648-.643,1.1-1.446,1.867-1.7h0a.18.18,0,0,0,.116-.213.175.175,0,0,0-.212-.132,2.761,2.761,0,0,0-1.2.728c-.33.314-.622.639-.94.917a4.561,4.561,0,0,1-1.022.693,4.254,4.254,0,0,1-.529.2c-1.092-.161-2.188-.293-3.286-.409a7.351,7.351,0,0,1-1.069.574,6.811,6.811,0,0,1,.647.555c1.141.084,2.281.186,3.419.319a3.147,3.147,0,0,1,.55.265,3.564,3.564,0,0,1,1.062.975c.3.4.53.873.84,1.344a2.44,2.44,0,0,0,1.339,1.068h.005a.207.207,0,0,0,.248-.135.214.214,0,0,0-.127-.271,1.971,1.971,0,0,1-1.025-.95c-.25-.437-.457-.949-.765-1.426a4.362,4.362,0,0,0-.52-.671q.918.125,1.833.267,1.117.177,2.245.32a1.989,1.989,0,0,1,.367.233,5.483,5.483,0,0,1,.765.815,6.3,6.3,0,0,0,.838.893,2.545,2.545,0,0,0,1.13.547.177.177,0,0,0,.2-.13.18.18,0,0,0-.125-.22,2.156,2.156,0,0,1-.919-.539,5.91,5.91,0,0,1-.708-.886c-.136-.193-.278-.393-.436-.588a33.988,33.988,0,0,0,4.752.183,17.33,17.33,0,0,0,4.065-.591,8.908,8.908,0,0,0,1.934-.8,5.408,5.408,0,0,0,.623-.421c-.507,1.013-1.886,2.53-5.611,3.758l-.153.053a27.822,27.822,0,0,0-2.915,1.14,6.07,6.07,0,0,1-3.012.375,5.707,5.707,0,0,0-1.342.028,8.786,8.786,0,0,0-1,.3,8.886,8.886,0,0,1-2.3.523,5.21,5.21,0,0,1-3.94-1.509v0a2.722,2.722,0,0,1-.494.758,6.14,6.14,0,0,0,4.028,1.675c.157,0,.316,0,.477-.018a9.751,9.751,0,0,0,2.507-.566,8.04,8.04,0,0,1,.9-.269,5.435,5.435,0,0,1,1.12-.01,6.756,6.756,0,0,0,3.449-.468,27.156,27.156,0,0,1,2.8-1.094l.149-.051c6.966-2.3,6.522-5.738,6.5-5.883l-.075-.489-.47.117a8.524,8.524,0,0,1-5.481-.16,4.961,4.961,0,0,0-1.508-.337,5.456,5.456,0,0,1-2.694-1,6.536,6.536,0,0,0-.962-.515,6.14,6.14,0,0,0-1.111-.271,3.366,3.366,0,0,1-1.885-.741C548.7,183.533,545.643,183.824,544.361,184.348Z" transform="translate(-486.685 -159.298)" fill="#fff"/><path d="M522.38,115.954c.249-.958,1.455-2.877,2.6-3.015a3.5,3.5,0,0,0,1.911-1.1,4.8,4.8,0,0,1,.649-.534,5.2,5.2,0,0,1,.735-.332,5.371,5.371,0,0,0,2.407-1.569,5.644,5.644,0,0,1,1.2-.938,14.087,14.087,0,0,0,2.92-2.43,11.849,11.849,0,0,1-.861,1.744,28.269,28.269,0,0,1-2.107,3.036c-.847,1.081-1.739,2.129-2.648,3.165a4.123,4.123,0,0,0-.213-.681,3.64,3.64,0,0,1-.217-.679,1.44,1.44,0,0,1,.032-.668v0a.156.156,0,0,0-.086-.187.15.15,0,0,0-.2.082,1.8,1.8,0,0,0-.126.823,4.035,4.035,0,0,0,.162.782,3.16,3.16,0,0,1,.138.686,1.2,1.2,0,0,1-.094.526q-.8.9-1.6,1.792l-.724.805a2.89,2.89,0,0,0-.216-.953c-.141-.35-.329-.658-.468-.962a1.207,1.207,0,0,1-.108-.9.157.157,0,0,0-.08-.192.15.15,0,0,0-.2.077,1.559,1.559,0,0,0,.038,1.166c.132.35.29.66.39.977a2.3,2.3,0,0,1,.117.943,2.366,2.366,0,0,1-.16.613q-1.054,1.176-2.088,2.38c-.012.206-.03.413-.059.621a7.474,7.474,0,0,1,1.221-.286q.855-1.048,1.729-2.085a2.631,2.631,0,0,1,.446-.234,2.8,2.8,0,0,1,1.048-.2c.368-.006.745.055,1.153.071a1.863,1.863,0,0,0,1.211-.325.158.158,0,0,0,.039-.207.149.149,0,0,0-.208-.048,1.523,1.523,0,0,1-1.017.193c-.367-.038-.756-.129-1.166-.152a3.352,3.352,0,0,0-.777.044l.587-.693q.9-1.06,1.793-2.13a1.707,1.707,0,0,1,.278-.106,4.905,4.905,0,0,1,.957-.1,5.512,5.512,0,0,0,1.044-.111,2.2,2.2,0,0,0,.972-.493.159.159,0,0,0,.021-.209.149.149,0,0,0-.212-.03,1.847,1.847,0,0,1-.854.351,5.17,5.17,0,0,1-.972.024c-.215-.007-.439-.014-.668,0,.81-.985,1.6-1.986,2.366-3.017a28.933,28.933,0,0,0,2.069-3.175,12.735,12.735,0,0,0,.833-1.806,38.413,38.413,0,0,1-.774,5.161l-.04.125a23.684,23.684,0,0,0-.721,2.6,5.139,5.139,0,0,1-1.292,2.246,4.892,4.892,0,0,0-.678.938,7.638,7.638,0,0,0-.315.845,7.51,7.51,0,0,1-.822,1.838,4.1,4.1,0,0,1-2,1.608,2.956,2.956,0,0,1,.537.614,4.769,4.769,0,0,0,2.108-1.794,8.29,8.29,0,0,0,.906-2.015,6.83,6.83,0,0,1,.281-.756,4.565,4.565,0,0,1,.569-.767,5.839,5.839,0,0,0,1.464-2.616,23.232,23.232,0,0,1,.7-2.493l.051-.167c1.212-5.86.767-7.372.712-7.525l-.268-.75-.417.675a11.764,11.764,0,0,1-3.847,3.749,5.879,5.879,0,0,0-1.382,1.109A4.677,4.677,0,0,1,528,110.239a5.644,5.644,0,0,0-.853.392,5.311,5.311,0,0,0-.764.622,2.881,2.881,0,0,1-1.488.907c-1.569.188-2.949,2.439-3.25,3.592v0a3.073,3.073,0,0,1,.66.56C522.327,116.193,522.348,116.079,522.38,115.954Z" transform="translate(-472.15 -98.03)" fill="#fff"/><path d="M468.872,101.164a4.517,4.517,0,0,1-.867-3.724,10.582,10.582,0,0,1,.571-1.64,5.323,5.323,0,0,0,.335-.947,13.381,13.381,0,0,0,.151-2.362,12.429,12.429,0,0,1,.163-2.392,14.454,14.454,0,0,1,1.528-2.775c.128-.2.227-.351.281-.446,1.4-2.634,2.658-3.748,3.463-4.221a14.75,14.75,0,0,0-1.914,6.511,29.341,29.341,0,0,0,.012,4.378,8.638,8.638,0,0,0-.821-.652,6.628,6.628,0,0,1-.959-.792,2.266,2.266,0,0,1-.576-1.045.144.144,0,0,0-.164-.111.147.147,0,0,0-.117.169,2.612,2.612,0,0,0,.589,1.233,6.982,6.982,0,0,0,.965.9,6.458,6.458,0,0,1,.9.842,2.118,2.118,0,0,1,.255.387l0,.021c0,.006,0,.012-.006.018l-.006.026a.339.339,0,0,0,.036.211q.1,1.005.242,2c.031.219.07.436.1.655a4.878,4.878,0,0,0-.842-.539c-.465-.237-.946-.4-1.383-.612a1.9,1.9,0,0,1-1-.9l0,0a.168.168,0,0,0-.213-.092.175.175,0,0,0-.1.223,2.281,2.281,0,0,0,1.127,1.161c.457.25.917.441,1.334.687a3.649,3.649,0,0,1,1.076.9,2.963,2.963,0,0,1,.178.257c.218,1.273.468,2.537.731,3.8.046.034.093.065.138.1a7.723,7.723,0,0,1,.62.542,7.835,7.835,0,0,1,.276-.857c-.23-.975-.455-1.95-.66-2.927a3.115,3.115,0,0,1,.189-.66,3.21,3.21,0,0,1,.653-.946c.274-.288.6-.542.911-.844a2.067,2.067,0,0,0,.681-1.177.173.173,0,0,0-.131-.191.168.168,0,0,0-.2.132v0a1.678,1.678,0,0,1-.629.91c-.305.256-.656.494-.98.788a3.916,3.916,0,0,0-.721.858c-.091-.468-.182-.937-.263-1.407q-.2-1.215-.349-2.438a1.3,1.3,0,0,1,.153-.237,2.8,2.8,0,0,1,.685-.545,3.527,3.527,0,0,0,.8-.635,2.142,2.142,0,0,0,.465-.948.169.169,0,0,0-.108-.2.163.163,0,0,0-.207.106v.005a1.74,1.74,0,0,1-.444.74,3.1,3.1,0,0,1-.748.487,4.044,4.044,0,0,0-.678.417,28.43,28.43,0,0,1-.117-4.148A14.207,14.207,0,0,1,474.894,83a11.151,11.151,0,0,0,1.2,5.294,4.5,4.5,0,0,1,.541,1.718,5.392,5.392,0,0,0,.618,2.956,5.427,5.427,0,0,1,.307.8,4.73,4.73,0,0,1,.078.875,3.545,3.545,0,0,0,.6,2.24,2.611,2.611,0,0,1,.347,1.862,2.655,2.655,0,0,1,.727.048,3.3,3.3,0,0,0-.511-2.38,2.923,2.923,0,0,1-.438-1.794,5.238,5.238,0,0,0-.1-1.026,5.864,5.864,0,0,0-.35-.932,4.71,4.71,0,0,1-.564-2.538,4.519,4.519,0,0,0-.594-2.133,9.508,9.508,0,0,1-1-5.974l.1-.447-.447-.006h0c-.122,0-2.414.053-5.008,4.944-.045.076-.136.218-.256.4a14.393,14.393,0,0,0-1.625,3,12.794,12.794,0,0,0-.186,2.57,13.251,13.251,0,0,1-.134,2.209,4.657,4.657,0,0,1-.292.813,11.216,11.216,0,0,0-.608,1.749,5.205,5.205,0,0,0,.929,4.249A2.952,2.952,0,0,1,468.872,101.164Z" transform="translate(-430.701 -81.43)" fill="#fff"/><path d="M316.423,102.085c-.4,2.106-.817,4.282,1.572,6.623.723.708,1.432,1.3,2.117,1.877,2.826,2.37,4.867,4.082,4.538,10.88-.246,5.08,3.343,7.425,6.978,8.812a7.4,7.4,0,0,1-.828-1.712l-.043-.018c-3.508-3.171-3.35-6.4-3.165-10.089.025-.506.05-1.017.068-1.535a.011.011,0,0,1,0,0c.028-.835.032-1.691-.018-2.578,0-.006,0-.011,0-.017-.029-.5-.077-1.009-.149-1.531a6.491,6.491,0,0,0,1.2.633,9.959,9.959,0,0,0,1,.336,9.247,9.247,0,0,0,1.01.226c.916,1.5,1.8,3,2.6,4.537q.369.711.713,1.432a7.552,7.552,0,0,0-.853-.218c-.731-.141-1.439-.193-2.1-.313a3.227,3.227,0,0,1-1.727-.754l-.007-.007a.3.3,0,0,0-.411-.014.322.322,0,0,0-.04.446,3.942,3.942,0,0,0,1.985,1.179c.71.213,1.4.345,2.044.548a4.674,4.674,0,0,1,1.672.857,3.305,3.305,0,0,1,.339.333q.414,1.051.718,2.119a6.957,6.957,0,0,1,1.744,1.4c.047-.132.094-.264.149-.4a7.892,7.892,0,0,1,.594-1.143,24.989,24.989,0,0,0-1.272-3.438,9.65,9.65,0,0,1,1.06-1.91,8.9,8.9,0,0,0,1.177-2.491,7.766,7.766,0,0,0,.19-2.757.326.326,0,0,0-.651.032v.019a6.953,6.953,0,0,1-.376,2.427,7.841,7.841,0,0,1-1.242,2.113c-.267.358-.566.72-.844,1.128-.292-.576-.6-1.143-.907-1.7-.764-1.36-1.58-2.673-2.414-3.965a3.2,3.2,0,0,1-.1-.72,7.313,7.313,0,0,1,.687-2.572,14.165,14.165,0,0,0,.879-2.92,12.549,12.549,0,0,0,.085-3.052.337.337,0,0,0-.672.026v.016a11.678,11.678,0,0,1-.32,2.809,13.035,13.035,0,0,1-1.048,2.621,13.37,13.37,0,0,0-.8,1.832c-.142-.213-.282-.426-.424-.638-1.015-1.51-2.034-3.009-3.035-4.515a2.89,2.89,0,0,1-.115-.98,7.735,7.735,0,0,1,.649-2.276,13.7,13.7,0,0,0,.833-2.529,5.885,5.885,0,0,0-.1-2.72.276.276,0,0,0-.312-.2.282.282,0,0,0-.224.327v.006a5.162,5.162,0,0,1-.148,2.388,12.8,12.8,0,0,1-1.014,2.261,11.692,11.692,0,0,0-.813,1.824c-1.367-2.113-2.673-4.254-3.849-6.47a48.691,48.691,0,0,1-3.045-6.921,35.2,35.2,0,0,1-1.359-5.276c4.013,5.3,7.237,6.6,9.47,7.494,1.435.575,2.141.891,2.509,1.794,1.943,4.759,3.579,5.97,5.022,7.038a8.427,8.427,0,0,1,1.582,1.394,9.134,9.134,0,0,1,1.439,3.244c.526,1.727,1.07,3.512,2.658,4.579,4.882,3.281,4.643,7.7,2.792,10.733-.043.071-.086.135-.129.2a3.493,3.493,0,0,1,.72,1.208c.155-.234.311-.475.469-.735,2.065-3.388,2.474-8.689-3.167-12.479-1.215-.816-1.67-2.31-2.151-3.891a10.2,10.2,0,0,0-1.686-3.7,9.726,9.726,0,0,0-1.8-1.6c-1.373-1.017-2.793-2.068-4.6-6.5-.589-1.443-1.744-1.905-3.207-2.491-2.429-.974-6.1-2.445-10.788-9.748L316.887,81l-.283,1.567c-.071.393-1.72,9.69-.149,14.848A9.163,9.163,0,0,1,316.423,102.085Zm3.589,6.752c-.326-.283-.656-.58-.985-.9a8.915,8.915,0,0,0,1.238.624Zm1.008.855.118-.128a.163.163,0,0,0-.005-.226.155.155,0,0,0-.221.006l-.134.144-.346-.291.386-.416c.419.154.845.294,1.268.427l-.72.775Zm1.338,1.164.651-.7a.163.163,0,0,0-.006-.226.154.154,0,0,0-.221.006l-.658.708q-.167-.15-.338-.3l.885-.952c.436.136.864.274,1.271.423l-1.256,1.353C322.578,111.062,322.468,110.959,322.358,110.856Zm1.225,1.284,1.2-1.289a.163.163,0,0,0-.006-.226.154.154,0,0,0-.221.006l-1.177,1.267q-.15-.171-.3-.335l1.421-1.53a6.318,6.318,0,0,1,1.114.593l-1.741,1.875Q323.728,112.316,323.583,112.14Zm1.017,1.51,1.561-1.68a.163.163,0,0,0-.006-.226.155.155,0,0,0-.221.006l-1.5,1.611c-.08-.137-.163-.268-.248-.4l1.849-1.991a2.767,2.767,0,0,1,.711,1.026l-1.934,2.082C324.747,113.933,324.675,113.789,324.6,113.65Zm.741,1.806,1.282-1.381a.163.163,0,0,0-.006-.226.155.155,0,0,0-.221.006l-1.165,1.255c-.055-.164-.115-.321-.175-.475l1.863-2.006c.083.549.136,1.084.169,1.61l-1.606,1.729C325.439,115.792,325.391,115.622,325.341,115.456Zm.44,2.129.9-.966a.163.163,0,0,0-.005-.226.155.155,0,0,0-.221.006l-.727.783q-.045-.287-.1-.558l1.5-1.611c.017.612.01,1.211-.008,1.8l-1.269,1.366Q325.819,117.875,325.782,117.586Zm1.3.076q-.018.386-.037.768c-.019.378-.037.75-.052,1.119l-1.068,1.15q.007-.343.005-.669l.63-.678a.163.163,0,0,0-.005-.226.155.155,0,0,0-.221.006l-.407.439c-.005-.218-.014-.43-.025-.637Zm-1.162,4.984.621-.669a.163.163,0,0,0-.005-.226.155.155,0,0,0-.221.006l-.419.452c-.007-.217-.008-.437,0-.667l1.07-1.152c-.011.593,0,1.175.039,1.75L326,123.225C325.966,123.037,325.939,122.844,325.921,122.645Zm.733,2.477c-.076-.14-.147-.285-.213-.433l.414-.446a.163.163,0,0,0-.006-.226.155.155,0,0,0-.221.006l-.321.346c-.06-.159-.112-.323-.16-.491l.933-1a10.234,10.234,0,0,0,.3,1.47Zm1.75,1.533a9.859,9.859,0,0,0,.74,1.017,9.044,9.044,0,0,1-1-.741Zm-.834-1.707a8.664,8.664,0,0,0,.543,1.207l-.371.4c-.107-.107-.211-.217-.31-.33l.091-.1a.163.163,0,0,0-.006-.226.155.155,0,0,0-.221.006l-.068.073q-.143-.18-.273-.37ZM317.42,85.7a36.4,36.4,0,0,0,1.287,5.78,50.273,50.273,0,0,0,2.927,7.229c1.084,2.2,2.288,4.321,3.541,6.4-.383-.04-.756-.051-1.111-.061a8.294,8.294,0,0,1-1.776-.176,4.564,4.564,0,0,1-1.59-.737l-.005,0a.238.238,0,0,0-.317.037.252.252,0,0,0,.016.35,5.213,5.213,0,0,0,1.683,1.061,9.075,9.075,0,0,0,1.9.45,6.95,6.95,0,0,1,1.693.407,3.025,3.025,0,0,1,.47.258c1.1,1.78,2.221,3.538,3.325,5.293.088.14.174.28.261.42-.251-.012-.5-.031-.75-.065a4.6,4.6,0,0,1-1.714-.546c-.679-1.769-2.7-2.4-4.657-3.015-2.322-.725-4.552-1.422-5.211-3.712a9.1,9.1,0,0,1,.254-2.744,10.36,10.36,0,0,0,0-5.3C316.689,93.88,317.047,88.859,317.42,85.7Z" transform="translate(-315.518 -81)" fill="#fff"/><path d="M471.869,278.235a9.335,9.335,0,0,0-2.548-.784,10.629,10.629,0,0,1-5.2-2.509,8.327,8.327,0,0,0-3.845-1.9c-1.395-.391-2.836-.8-3.644-1.865-2.133-2.825-8.362-2.238-10.875-1.538a22.359,22.359,0,0,0-5.576,2.4,2.97,2.97,0,0,1,.871,1.006,21.433,21.433,0,0,1,5.047-2.121c2.579-.72,7.959-.978,9.5,1.068,1.073,1.421,2.8,1.906,4.329,2.334a11.208,11.208,0,0,1,1.882.64,11.406,11.406,0,0,1,1.536,1.046,11.671,11.671,0,0,0,5.833,2.759,8.3,8.3,0,0,1,2.2.7,14.4,14.4,0,0,0,9.847.806,10.423,10.423,0,0,1-.916.6A12.92,12.92,0,0,1,477,282.163a24.637,24.637,0,0,1-7.205.485c-1.916-.12-3.829-.355-5.741-.651.107-.081.217-.16.319-.245.375-.3.723-.623,1.072-.919a3.753,3.753,0,0,1,1.091-.7l.013,0a.215.215,0,0,0,.136-.24.209.209,0,0,0-.243-.172,4.16,4.16,0,0,0-1.362.585c-.408.247-.8.5-1.188.727a7.6,7.6,0,0,1-1.543.695c-1.912-.329-3.824-.7-5.738-1.08a5.928,5.928,0,0,0,.724-.688c.512-.567.9-1.135,1.39-1.578a5.568,5.568,0,0,1,1.684-1.061l.005,0a.284.284,0,0,0,.163-.329.275.275,0,0,0-.333-.207,6.231,6.231,0,0,0-2.046.908c-.636.432-1.146.985-1.659,1.4a4.432,4.432,0,0,1-1.628.9,5.959,5.959,0,0,1-.8.169c-2.372-.462-4.756-.912-7.164-1.285a12.83,12.83,0,0,0,1.73-1.018c.764-.531,1.452-1.139,2.126-1.712a7.328,7.328,0,0,1,2.161-1.379l.006,0a.248.248,0,0,0,.151-.289.24.24,0,0,0-.29-.182,7.851,7.851,0,0,0-2.483,1.22c-.749.508-1.466,1.014-2.22,1.425a11.739,11.739,0,0,1-2.345.974,14.878,14.878,0,0,1-2.477.473c-1-.113-2-.211-3-.28-.438-.029-.877-.051-1.316-.07a7.279,7.279,0,0,1-2.918,1.117,7.719,7.719,0,0,1,.64.872c.121.192.23.388.333.585q1.562-.047,3.137.009c1.306.048,2.613.142,3.922.267a6.18,6.18,0,0,1,.587.4,7.256,7.256,0,0,1,1.694,1.89c.474.739.842,1.577,1.287,2.426a5.15,5.15,0,0,0,1.95,2.21.31.31,0,0,0,.407-.105.325.325,0,0,0-.087-.444l-.005,0a4.44,4.44,0,0,1-1.479-2.05c-.347-.832-.649-1.739-1.1-2.613a8.87,8.87,0,0,0-.935-1.454c1.849.224,3.7.5,5.554.79.023.008.044.02.069.026l.042.011a7.152,7.152,0,0,1,2.142.864,4.584,4.584,0,0,1,1.48,1.743,9.439,9.439,0,0,0,1.529,2.333,6.244,6.244,0,0,0,2.4,1.441.368.368,0,0,0,.456-.2.382.382,0,0,0-.178-.5l-.014-.006a5.417,5.417,0,0,1-1.933-1.426,8.543,8.543,0,0,1-1.14-2.216,7.18,7.18,0,0,0-.773-1.41c1.727.283,3.459.567,5.2.822a.785.785,0,0,0,.175.114l.01,0a7.125,7.125,0,0,1,1.406.833,12.332,12.332,0,0,1,1.273,1.19,5.314,5.314,0,0,0,1.569,1.191,5.21,5.21,0,0,0,1.878.435.3.3,0,0,0,.312-.244.3.3,0,0,0-.233-.359l-.009,0a4.529,4.529,0,0,1-1.553-.587,4.42,4.42,0,0,1-1.157-1.171c-.244-.326-.5-.676-.793-1.017,1.852.221,3.717.384,5.6.443a26,26,0,0,0,7.6-.759,14.185,14.185,0,0,0,3.588-1.531,11.656,11.656,0,0,0,1.143-.811c-1.26,2.408-4.555,6.154-13.1,7.884l-.329.073a61.533,61.533,0,0,0-6.213,1.635,13.164,13.164,0,0,1-6.343.16,11.721,11.721,0,0,0-2.641-.206,18.957,18.957,0,0,0-2.086.375,19.645,19.645,0,0,1-4.875.576c-4.241-.08-7.265-2.782-9.132-5.885a2.791,2.791,0,0,1-.862.924c-.023.015-.047.025-.07.039,2.081,3.316,5.4,6.164,10.039,6.253l.225,0a20.86,20.86,0,0,0,4.943-.608,17.927,17.927,0,0,1,1.946-.352,11.219,11.219,0,0,1,2.329.2,14.188,14.188,0,0,0,6.956-.221,60.718,60.718,0,0,1,6.058-1.59l.319-.071c14.005-2.834,14.865-10.927,14.895-11.27l.085-.984-.923.289C476.947,280.335,474.132,279.171,471.869,278.235Z" transform="translate(-407.044 -224.091)" fill="#fff"/><path d="M329.868,321.091a93.4,93.4,0,0,1-14.318,8.464,1.493,1.493,0,0,0-.723,1.982,1.509,1.509,0,0,0,2.081.689,114.509,114.509,0,0,0,14.334-9.372,8.049,8.049,0,0,1,.1-.953,7.866,7.866,0,0,1,.214-.931,6.906,6.906,0,0,1-1.355.134C330.087,321.1,329.977,321.1,329.868,321.091Z" transform="translate(-314.687 -263.585)" fill="#fff"/></g><g transform="translate(154.545 153.936)"><path d="M188.953,407.72l-.053-.067-.035-.048-.071-.094-.073-.094c-.018-.036-.036-.072-.056-.108a2.532,2.532,0,0,1-.2-.455,4.517,4.517,0,0,1-.16-1.082,14.1,14.1,0,0,1,.2-2.425,4.9,4.9,0,0,0-.659,1.106,5.109,5.109,0,0,0-.377,1.26,3.986,3.986,0,0,0,.014,1.387,3.12,3.12,0,0,0,.249.7l.085.17.111.156.213.288a2.966,2.966,0,0,1,.307.425c.043.075.1.145.133.223s.066.159.1.237a3.282,3.282,0,0,1,.22,1.037,6.659,6.659,0,0,1-.4,2.341,3.866,3.866,0,0,0,1.238-2.292,3.334,3.334,0,0,0-.1-1.41A3.515,3.515,0,0,0,188.953,407.72Z" transform="translate(-179.555 -399.199)" fill="#fff"/><path d="M163.6,386c-5.322,0-9.054,3.6-9.054,8.96,0,5.487,3.614,8.68,9.03,8.68,5.311,0,9.054-3.6,9.054-8.961C172.629,389.193,169.014,386,163.6,386Zm.07,17.207c-2.246,0-5.607-3.24-5.607-8.341,0-4.96,3.045-8.434,5.443-8.434,2.246,0,5.607,3.24,5.607,8.34C169.112,399.733,166.067,403.207,163.669,403.207Z" transform="translate(-154.545 -386)" fill="#fff"/><path d="M257.96,403.421c-.55,0-.842-.363-1.077-1.556l-.5-2.492c-.374-1.953-1.965-2.936-5.241-3.123,4.574-.445,5.861-2.539,5.861-4.644,0-2.819-2.351-4.164-7.218-4.164-.62,0-2.246.047-3.849.047-1.532,0-3.217-.024-4.129-.07v.479c1.439.071,1.708.316,1.708,2.059v11.885c0,1.743-.245,1.989-1.708,2.059v.48c.912-.047,2.538-.07,4.27-.07,1.485,0,3.064.023,4,.07v-.48c-1.439-.07-1.708-.316-1.708-2.059v-5.509h1.088c1.217,0,1.626,1.439,1.907,3.4l.363,2.386c.292,1.965,1.6,2.6,3.7,2.6a4.675,4.675,0,0,0,3.591-1.3l-.316-.316A.933.933,0,0,1,257.96,403.421Zm-8.937-7.569h-.655v-5.9c0-1.65.223-2.059,1.3-2.059,1.7,0,2.3,1.462,2.3,3.977C251.971,394.075,251.468,395.853,249.023,395.853Z" transform="translate(-220.939 -387.08)" fill="#fff"/><path d="M328.453,387.489c-1.719,0-5.6,0-8.387-.07v.479c1.439.071,1.708.316,1.708,2.059v11.885c0,1.743-.246,1.989-1.708,2.059v.48c1.3-.023,2.831-.07,4.293-.07,1.989,0,3.861.047,4.936.07v-.549c-2.211,0-2.667-.27-2.667-2.235v-5.509h.245a3.465,3.465,0,0,1,3.334,3.17h.55c-.117-1.824-.152-2.62-.152-3.4,0-.34-.011-.666-.011-1.076,0-.562.023-1.275.093-2.328h-.55c-.292,1.392-1.462,3.158-3.263,3.158h-.245v-6.129c0-1.31.222-1.509,1.462-1.509h.316c1.731,0,3.567,1.228,4.41,5.2h.55a17.119,17.119,0,0,1-.071-1.731c0-.8.047-2.422.164-4.024C331.974,387.489,329.915,387.489,328.453,387.489Z" transform="translate(-280.484 -387.08)" fill="#fff"/><path d="M400.757,398.157h-.549c-.772,4.328-2.831,5.673-4.41,5.673H395c-1.24,0-1.462-.187-1.462-1.509v-6.235h.246a3.465,3.465,0,0,1,3.334,3.17h.55c-.117-1.824-.152-2.62-.152-3.4,0-.34-.012-.666-.012-1.076,0-.562.023-1.275.094-2.328h-.55c-.292,1.392-1.462,3.158-3.264,3.158h-.246v-6.129c0-1.31.223-1.509,1.462-1.509h.316c1.965,0,3.813,1.228,4.41,5.2h.55c-.046-.409-.07-1.064-.07-1.731,0-.8.047-2.422.163-4.024-1.485.07-3.544.07-5.006.07-1.72,0-5.6,0-8.387-.07v.479c1.439.071,1.708.316,1.708,2.059v11.885c0,1.743-.245,1.989-1.708,2.059v.48c2.784-.07,6.667-.07,8.387-.07,1.6,0,3.86,0,5.486.07a40.23,40.23,0,0,1-.164-4.024C400.688,399.491,400.711,398.73,400.757,398.157Z" transform="translate(-331.395 -387.08)" fill="#fff"/><path d="M467.034,395.49v-.047c3.79-.48,5.533-2.538,5.533-4.235,0-2.21-2.129-3.766-6.492-3.766-.62,0-2.246.047-3.849.047-1.532,0-3.217-.024-4.129-.07v.479c1.439.071,1.708.316,1.708,2.059v11.885c0,1.743-.245,1.989-1.708,2.059v.48c.912-.047,2.562-.07,4.176-.07,2.082,0,3.591.07,4.351.07,4.457,0,7.194-1.439,7.194-4.644C473.819,397.795,471.97,395.736,467.034,395.49Zm4.272-4.282c0,.741-.753,1.922-2.666,2.585a9.568,9.568,0,0,0,.251-2.327,9.807,9.807,0,0,0-.26-2.513C469.987,389.246,471.306,389.874,471.306,391.209Zm-6.647-1.251c0-1.65.223-2.059,1.3-2.059,1.228,0,1.673,1.217,1.673,3.568,0,2.082-.445,3.907-2.316,3.907h-.655Zm-2.386,13.092-.875,0,.771-.771a.3.3,0,0,0-.425-.425l-.705.7c.017-.226.027-.463.027-.718v-.291l1.1-1.1a.3.3,0,0,0-.425-.425l-.678.678v-.982l1.1-1.1a.3.3,0,0,0-.425-.425l-.678.678v-.982l1.1-1.1a.3.3,0,0,0-.425-.425l-.678.678v-.982l1.1-1.1a.3.3,0,0,0-.425-.425l-.678.678v-.982l1.1-1.1a.3.3,0,0,0-.425-.425l-.678.678v-.982l1.1-1.1a.3.3,0,0,0-.425-.425l-.678.678v-.982l1.1-1.1a.3.3,0,0,0-.425-.425l-.685.685a6.976,6.976,0,0,0-.074-.963c.432,0,.856,0,1.242,0,.416,0,.836,0,1.239-.008a7.988,7.988,0,0,0-.067,1.215v11.885a7.233,7.233,0,0,0,.082,1.215C463.1,403.052,462.7,403.049,462.273,403.049Zm3.953.782c-1.3,0-1.568-.316-1.568-1.989v-6.059H465c2.714,0,3.79,1.415,3.79,3.848C468.788,402.322,468.017,403.831,466.227,403.831Zm3.291-.982a8.371,8.371,0,0,0,.531-3.218,6.377,6.377,0,0,0-.451-2.5c2.14.577,2.959,1.67,2.959,2.605C472.558,400.406,472.558,402.17,469.518,402.848Z" transform="translate(-385.507 -387.08)" fill="#fff"/><path d="M550.8,403.421c-.55,0-.842-.363-1.077-1.556l-.5-2.492c-.374-1.953-1.965-2.936-5.24-3.123,4.574-.445,5.861-2.539,5.861-4.644,0-2.819-2.351-4.164-7.217-4.164-.62,0-2.246.047-3.849.047-1.532,0-3.217-.024-4.129-.07v.479c1.439.071,1.707.316,1.707,2.059v11.885c0,1.743-.245,1.989-1.707,2.059v.48c.912-.047,2.538-.07,4.27-.07,1.485,0,3.065.023,4,.07v-.48c-1.439-.07-1.708-.316-1.708-2.059v-5.509H542.3c1.216,0,1.626,1.439,1.907,3.4l.363,2.386c.292,1.965,1.6,2.6,3.7,2.6a4.675,4.675,0,0,0,3.591-1.3l-.316-.316A.933.933,0,0,1,550.8,403.421Zm-11.885-.372-.992,0,.772-.772a.3.3,0,1,0-.426-.425l-.68.68c.016-.219.024-.448.024-.693v-.314l1.081-1.081a.3.3,0,1,0-.426-.425l-.655.655v-.982l1.081-1.081a.3.3,0,0,0-.426-.425l-.655.655v-.982l1.081-1.081a.3.3,0,1,0-.426-.425l-.655.655v-.982l1.081-1.081a.3.3,0,1,0-.426-.425l-.655.655V394.2l1.081-1.081a.3.3,0,1,0-.426-.425l-.655.655v-.982l1.081-1.081a.3.3,0,0,0-.426-.425l-.655.655v-.982l1.081-1.081a.3.3,0,1,0-.426-.425l-.663.663a6.919,6.919,0,0,0-.073-.941c.433,0,.856,0,1.242,0,.416,0,.836,0,1.239-.008a7.98,7.98,0,0,0-.067,1.215v11.885a7.544,7.544,0,0,0,.081,1.212C539.666,403.05,539.292,403.049,538.916,403.049Zm6.737-14.1c2.927.582,2.927,2.028,2.927,2.654s0,2.319-2.946,3.088a7.928,7.928,0,0,0,.438-2.819A8.758,8.758,0,0,0,545.653,388.952Zm-3.79,6.9h-.655v-5.9c0-1.65.223-2.059,1.3-2.059,1.7,0,2.3,1.462,2.3,3.977C544.811,394.075,544.308,395.853,541.863,395.853Zm6.4,7.606c-2.059,0-2.321-.66-2.45-1.526l-.361-2.375a13.107,13.107,0,0,0-.388-1.935c2.613.385,2.816,1.447,2.922,2l.5,2.485a5.248,5.248,0,0,0,.407,1.324C548.7,403.45,548.487,403.459,548.262,403.459Z" transform="translate(-443.751 -387.08)" fill="#fff"/><path d="M626.685,398.157h-.55c-.772,4.328-2.831,5.673-4.41,5.673h-.8c-1.24,0-1.462-.187-1.462-1.509v-6.235h.245a3.465,3.465,0,0,1,3.334,3.17h.549c-.117-1.824-.152-2.62-.152-3.4,0-.34-.011-.666-.011-1.076,0-.562.023-1.275.094-2.328h-.55c-.292,1.392-1.462,3.158-3.263,3.158h-.245v-6.129c0-1.31.222-1.509,1.462-1.509h.316c1.965,0,3.813,1.228,4.41,5.2h.55a17.223,17.223,0,0,1-.07-1.731c0-.8.047-2.422.164-4.024-1.486.07-3.545.07-5.007.07-1.719,0-5.6,0-8.387-.07v.479c1.439.071,1.708.316,1.708,2.059v11.885c0,1.743-.246,1.989-1.708,2.059v.48c2.784-.07,6.667-.07,8.387-.07,1.6,0,3.861,0,5.486.07a40.23,40.23,0,0,1-.164-4.024C626.616,399.491,626.639,398.73,626.685,398.157Zm-8.436,4.9c-.661,0-1.364.007-2.071.014l.788-.788a.3.3,0,1,0-.425-.425l-.692.691c.016-.222.025-.455.025-.7v-.3l1.092-1.092a.3.3,0,0,0-.425-.425l-.666.666v-.982l1.092-1.092a.3.3,0,0,0-.425-.425l-.666.666v-.982l1.092-1.092a.3.3,0,1,0-.425-.425l-.666.666v-.981l1.092-1.092a.3.3,0,0,0-.425-.425l-.667.666v-.982l1.092-1.092a.3.3,0,1,0-.425-.425l-.667.666v-.982l1.092-1.092a.3.3,0,0,0-.425-.425l-.667.666v-.982l1.092-1.092a.3.3,0,0,0-.425-.425l-.674.674a6.905,6.905,0,0,0-.077-.969c.836.008,1.677.014,2.459.017a5.879,5.879,0,0,0-.042.733v12.844A5.875,5.875,0,0,0,618.249,403.054Z" transform="translate(-503.296 -387.08)" fill="#fff"/><path d="M701.2,387.489c-1.1,0-1.942-.024-3.135-.07v.479c1.275.047,2.071.679,2.071,2.351a11.94,11.94,0,0,1-.632,3.346l-1.848,5.919-3.159-9.6a3.573,3.573,0,0,1-.245-1.1c0-.714.538-.878,1.638-.913v-.479c-.819.046-2.211.07-3.72.07s-3.065-.024-4.141-.07v.479c.55.047.959.293,1.216,1.123l1.626,4.972-2.094,5.685L685.3,389.91a3.068,3.068,0,0,1-.2-1.052c0-.457.152-.866.632-.96v-.479c-.667.046-1.766.07-3.182.07s-3.088-.024-4.246-.07v.479c.433.024,1.006.433,1.415,1.532l5.557,14.95c.386-.023.819-.047,1.251-.047s.889.024,1.263.047l3.381-9.51,3.111,9.51c.386-.023.819-.047,1.252-.047s.889.024,1.264.047l4.024-13.124c.631-2.059,1.485-2.995,2.234-3.358v-.479C702.573,387.465,701.825,387.489,701.2,387.489Zm-14.292,15.589c-.128,0-.259-.005-.388-.005s-.262,0-.39.005l-.016-.041.816-.816a.3.3,0,1,0-.426-.426l-.622.621-.289-.778.835-.835a.3.3,0,1,0-.425-.425l-.64.64-.289-.778.853-.853a.3.3,0,1,0-.425-.426l-.658.658-.289-.778.871-.871a.3.3,0,1,0-.426-.426l-.676.677-.289-.778.89-.89a.3.3,0,0,0-.426-.425l-.695.695-.289-.778.908-.908a.3.3,0,0,0-.425-.426l-.713.713-.289-.778.926-.926a.3.3,0,1,0-.425-.425l-.732.731-.289-.778.945-.944a.3.3,0,1,0-.426-.426l-.75.749-.289-.778.963-.963a.3.3,0,1,0-.426-.425l-.768.768-.289-.779.981-.981a.3.3,0,0,0-.425-.425l-.786.786-.31-.836c-.032-.087-.066-.171-.1-.252.573.007,1.167.011,1.749.011q.7,0,1.291-.007c0,.038,0,.077,0,.116a4.3,4.3,0,0,0,.276,1.489l3.482,9.755.188.527Zm8.963,0c-.114,0-.23,0-.345,0s-.235,0-.351,0l-2.813-8.6-1.149-3.512,0,.008-.731-2.234c.54.006,1.109.01,1.689.01l.822,0c0,.021,0,.042,0,.064a4.6,4.6,0,0,0,.308,1.493l3.159,9.6.2.606Z" transform="translate(-553.053 -387.08)" fill="#fff"/></g></g></g></svg>