<svg xmlns="http://www.w3.org/2000/svg" width="200" height="200" viewBox="0 0 200 200"><g transform="translate(-1400 -328)"><rect width="200" height="200" transform="translate(1400 328)" fill="#070707" opacity="0"/><g transform="translate(-934.578 -214.217)"><g transform="translate(2364.578 624.946)"><path d="M2387.63,634.011c-.162,9.743-6.855,20.809-15.816,20.809-6.18,0-10.769-6.72-3.562-16.841,5.533-7.773,11.983-9.77,15.06-9.77,2.564,0,3.482,1.808,3.212,3.995A1.855,1.855,0,0,1,2387.63,634.011ZM2383.2,637.9a11.02,11.02,0,0,1-.917.621,2.029,2.029,0,0,1-3.077-.918c3.59-2.429,5.83-6.99,3.725-6.99s-6.424,2.834-10.148,8.88-4.912,13.279-.378,13.279C2376.564,652.769,2381.422,644.915,2383.2,637.9Z" transform="translate(-2364.578 -628.208)" fill="#fff"/></g><g transform="translate(2377.616 632.638)"><path d="M2459.554,682c-2.834,4.372-7.017,6.262-9.419,6.262a2.989,2.989,0,0,1-3.211-2.7l-6.64,12.415h-4.291l14.3-26.612h4.264l-.971,1.808c1.565-1.565,3.455-2.834,5.29-2.834C2462.55,670.341,2464.439,674.47,2459.554,682Zm-2.7-8.61c-1.4,0-3.94,2.375-5.668,5.29-1.754,2.942-2.024,5.29-.621,5.29,1.377,0,3.914-2.348,5.668-5.29C2457.962,675.766,2458.259,673.391,2456.855,673.391Z" transform="translate(-2435.993 -670.341)" fill="#fff"/></g><g transform="translate(2401.067 624.217)"><path d="M2583.068,636.9c-.756.783-9.662,9.743-11.821,11.794-2.348,2.213-3.806,2.861-4.939,2.861-1.781,0-2.591-1.3-1.052-4.1,1.106-2.024,7.395-13.792,7.395-13.792l4.292-.027s-3.859,7.179-5.02,9.365c-.4.729-1.134,2.213-.917,2.429.216.243.864-.351,1.565-.945,1.026-.864,9.2-8.637,10.2-9.689C2583.284,634.257,2583.338,636.605,2583.068,636.9Zm-8.475-9.689a5.3,5.3,0,0,1,4.318-3c1.673,0,2.4,1.35,1.673,3a5.228,5.228,0,0,1-4.318,2.969C2574.62,630.182,2573.865,628.859,2574.593,627.213Z" transform="translate(-2564.442 -624.217)" fill="#fff"/></g><g transform="translate(2411.677 633.636)"><path d="M2646.148,678.969c-3.968,6.451-10.769,14.763-17.408,14.763-6.1,0-7.989-5.1-4.292-11.012,3.023-4.8,6.72-6.909,9.123-6.909,3.886,0,6.18,3.59,2.456,8.555-1.377,1.808-3.7-.863-3.7-.863,1.727-1.458,3.212-4.615,1.809-4.615s-3.94,2.348-5.668,5.29c-2.213,3.724-1.593,6.342,1.593,6.342,4.642,0,10.444-6.288,15.627-13.549C2646.121,676.378,2646.364,678.618,2646.148,678.969Z" transform="translate(-2622.56 -675.811)" fill="#fff"/></g><g transform="translate(2426.232 633.636)"><path d="M2729.347,679.077c-.756.783-9.662,9.743-11.822,11.794-2.321,2.213-3.805,2.861-4.939,2.861-1.511,0-2.321-.918-1.592-2.915-1.592,1.592-3.508,2.915-5.371,2.915-3.67,0-4.777-4.318-.945-10.148s7.288-7.773,9.662-7.773c1.539,0,2.672,1.43,3,3.022.944-1.754,1.592-3,1.592-3l4.291-.027s-3.86,7.179-5.02,9.365c-.405.729-1.133,2.213-.918,2.429.243.243.864-.351,1.565-.945,1.053-.864,9.2-8.637,10.2-9.689C2729.59,676.432,2729.617,678.78,2729.347,679.077Zm-15.06,5.1c1.754-2.915,2.024-5.29.647-5.29-1.4,0-3.94,2.375-5.694,5.29-1.727,2.915-2,5.29-.621,5.29C2710.022,689.468,2712.559,687.093,2714.287,684.178Z" transform="translate(-2702.286 -675.811)" fill="#fff"/></g><g transform="translate(2444.084 633.636)"><path d="M2827.39,679.077c-.756.783-9.663,9.743-11.822,11.794-2.348,2.213-3.805,2.861-4.939,2.861-1.781,0-2.591-1.3-1.053-4.1.189-.378.567-1.053,1.053-1.943-2.888,3.185-6.234,6.046-7.989,6.046-2.7,0-3.265-2.888-1.727-5.722,1.107-2.024,6.532-12.172,6.532-12.172l4.291-.027s-3.859,7.179-5.02,9.365c-.4.729-1.215,2.429.351,2.429,1.511,0,6.073-4.8,7.691-7.611,1.242-2.348,2.213-4.156,2.213-4.156l4.291-.027s-3.859,7.179-5.02,9.365c-.4.729-1.133,2.213-.917,2.429.216.243.864-.351,1.565-.945,1.026-.864,9.2-8.637,10.2-9.689C2827.605,676.432,2827.66,678.78,2827.39,679.077Z" transform="translate(-2800.071 -675.811)" fill="#fff"/></g><g transform="translate(2462.794 633.636)"><path d="M2926.138,678.969c-3.967,6.451-10.769,14.763-17.408,14.763-6.1,0-7.989-5.1-4.291-11.012,3.023-4.8,6.72-6.909,9.123-6.909,3.886,0,6.18,3.59,2.456,8.555-1.377,1.808-3.7-.863-3.7-.863,1.727-1.458,3.211-4.615,1.808-4.615s-3.94,2.348-5.668,5.29c-2.213,3.724-1.592,6.342,1.593,6.342,4.642,0,10.445-6.288,15.626-13.549C2926.112,676.378,2926.354,678.618,2926.138,678.969Z" transform="translate(-2902.551 -675.811)" fill="#fff"/></g><g transform="translate(2477.349 633.636)"><path d="M3009.338,679.077c-.756.783-9.662,9.743-11.821,11.794-2.321,2.213-3.806,2.861-4.939,2.861-1.511,0-2.321-.918-1.592-2.915-1.593,1.592-3.509,2.915-5.371,2.915-3.671,0-4.777-4.318-.945-10.148s7.287-7.773,9.662-7.773c1.538,0,2.672,1.43,3,3.022.945-1.754,1.592-3,1.592-3l4.291-.027s-3.859,7.179-5.02,9.365c-.4.729-1.133,2.213-.918,2.429.243.243.864-.351,1.566-.945,1.052-.864,9.2-8.637,10.2-9.689C3009.581,676.432,3009.608,678.78,3009.338,679.077Zm-15.06,5.1c1.754-2.915,2.024-5.29.648-5.29-1.4,0-3.94,2.375-5.7,5.29-1.727,2.915-2,5.29-.62,5.29C2990.014,689.468,2992.551,687.093,2994.278,684.178Z" transform="translate(-2982.277 -675.811)" fill="#fff"/></g></g></g></svg>