<svg xmlns="http://www.w3.org/2000/svg" width="200" height="200" viewBox="0 0 200 200"><g transform="translate(-512 -548)"><rect width="200" height="200" transform="translate(512 548)" fill="#070707" opacity="0"/><g transform="translate(352.466 524.202)"><path d="M194.806,127.362l-.2.05a37.8,37.8,0,0,1-7.427.911c-.157-1.308-.2-2.777-.264-4.215-.084-2.931-.03-5.938-.157-8.962a68.794,68.794,0,0,0-.822-9.116l-.019-.111a2.179,2.179,0,0,0-4.187-.386,31.24,31.24,0,0,0-1.283,4.691,47.361,47.361,0,0,0-.682,4.7,56.492,56.492,0,0,0-.061,9.579c.082.823.13,1.626.262,2.464l.179,1.248.255,1.283c.072.415.217.886.331,1.327l.094.335.048.167.1.306a4.686,4.686,0,0,0,4.394,3.179,3.92,3.92,0,0,0,.711-.054l.305-.055.609-.115a34.954,34.954,0,0,0,4.807-1.319,17.616,17.616,0,0,0,4.677-2.4,1.982,1.982,0,0,0-1.67-3.511Zm-9.379,1.025c-.179.01.021-.02.133-.022a1.759,1.759,0,0,1,.2.014l-.063,0Z" transform="translate(0 -0.521)" fill="#fff"/><path d="M219.965,117.745a12.468,12.468,0,0,0-1.366-3.633,8.313,8.313,0,0,0-1.411-1.819,6.186,6.186,0,0,0-2.195-1.328,5.906,5.906,0,0,0-2.377-.277,8.225,8.225,0,0,0-1.988.416,18.231,18.231,0,0,0-3.128,1.471,1.836,1.836,0,0,0,1.673,3.267l.008,0a10.524,10.524,0,0,1,2.5-.857,2.091,2.091,0,0,1,1.626.186,1.17,1.17,0,0,1,.278.409,3.866,3.866,0,0,1,.221.742,11.018,11.018,0,0,1,.177,1.929,13.874,13.874,0,0,0-4.064-.019,11.522,11.522,0,0,0-4.5,1.561,7.155,7.155,0,0,0-2,1.887,7.062,7.062,0,0,0-1.121,2.677,4.514,4.514,0,0,0-.016,1.851,4.307,4.307,0,0,0,1.113,2.127,5.01,5.01,0,0,0,1.7,1.146,7.145,7.145,0,0,0,1.5.44,12.745,12.745,0,0,0,4.778-.169,16.7,16.7,0,0,0,2.841-.87c.047.365.092.729.159,1.1l.009.05a2.064,2.064,0,0,0,3.859.577,19.055,19.055,0,0,0,1.9-6.136A18.823,18.823,0,0,0,219.965,117.745Zm-12.624,7.28c0-.033,0-.064,0-.1a.646.646,0,0,1,.036.129C207.4,125.18,207.348,125.251,207.341,125.025Zm2.79-.926a11.267,11.267,0,0,1-2.738.348,2.337,2.337,0,0,1,.627-1.167,4.46,4.46,0,0,1,2.484-1.174,6.056,6.056,0,0,1,2.946.23,3.441,3.441,0,0,1,.505.231c0,.081,0,.162,0,.242-.246.122-.526.246-.814.361A22.49,22.49,0,0,1,210.131,124.1Z" transform="translate(-5.093 -1.994)" fill="#fff"/><path d="M254.438,112.743a15.712,15.712,0,0,0-1.556-5.513l-.058-.122a3.25,3.25,0,0,0-.3-.491,3.209,3.209,0,1,0-5.173,3.8,9.509,9.509,0,0,1,1.443,6.849,15.406,15.406,0,0,1-1,3.829,14.625,14.625,0,0,1-1.55,2.965c-.081-.512-.152-1.04-.207-1.584-.151-1.415-.2-2.887-.282-4.358l-.12-2.215-.057-1.109-.037-.552,0-.069-.008-.105a3.243,3.243,0,0,0-6.4-.457l-.05.292,0,.033-.008.067-.016.134a76.842,76.842,0,0,1-1.388,8.541,14.818,14.818,0,0,1-.605,1.924,6.8,6.8,0,0,1-.787,1.529,2.025,2.025,0,0,1-.252.312.806.806,0,0,0-.124-.08,4.242,4.242,0,0,1-1.239-2.442,15.742,15.742,0,0,1-.309-3.911,27.3,27.3,0,0,1,.468-4.176,24.469,24.469,0,0,1,1.065-4,3.429,3.429,0,0,0,.15-.511,3.2,3.2,0,0,0-6.276-1.286l-.009.044a41.037,41.037,0,0,0-.715,4.987,43.769,43.769,0,0,0-.143,4.962,23.047,23.047,0,0,0,.7,5.177,11.913,11.913,0,0,0,1.085,2.729,7.827,7.827,0,0,0,2.234,2.567,7.334,7.334,0,0,0,.789.484,5.489,5.489,0,0,0,.925.393,4.538,4.538,0,0,0,2.512.11,5.029,5.029,0,0,0,2.03-1.043,7.546,7.546,0,0,0,1.2-1.273,15.715,15.715,0,0,0,1.2-1.946,10.568,10.568,0,0,0,.691,1.421l.3.443c.136.171.283.342.434.5a4.608,4.608,0,0,0,.7.558,3.282,3.282,0,0,0,1.115.441,3.155,3.155,0,0,0,1.306,0,2.338,2.338,0,0,0,.441-.122l.331-.128a5.21,5.21,0,0,0,.945-.547,10.726,10.726,0,0,0,2.16-2.17,23.469,23.469,0,0,0,4.162-9.486A18.99,18.99,0,0,0,254.438,112.743ZM236.2,126.54h.007C236.221,126.551,236.213,126.547,236.2,126.54Zm9.18-11.75,0-.033,0-.019C245.383,114.753,245.4,114.677,245.38,114.791Z" transform="translate(-11.092 -0.789)" fill="#fff"/><path d="M278.61,132.352a1.484,1.484,0,0,0,1.288-1.657l-.136-1.079c-.01-.084-.122-.4-.186-.794a10.222,10.222,0,0,1-.119-1.357c-.026-.984,0-2.044.03-3.128s.075-2.2.061-3.357a21.98,21.98,0,0,0-.271-3.674,9.431,9.431,0,0,0-.629-2.167,5.741,5.741,0,0,0-.748-1.255,4.74,4.74,0,0,0-1.391-1.186,4.636,4.636,0,0,0-.864-.373,6.493,6.493,0,0,0-.683-.175,8.238,8.238,0,0,0-1.168-.153,11.533,11.533,0,0,0-2.149.084,11.4,11.4,0,0,0-1.608.353c.1-.238.191-.479.3-.705a3.114,3.114,0,0,0,.312-1.464,3.073,3.073,0,0,0-6.142.219l0,.074c.061,1.732,0,3.267-.095,4.867-.044.7-.1,1.405-.161,2.107a2.365,2.365,0,0,0-.023.288q-.1,1.169-.229,2.338c-.174,1.578-.317,3.167-.511,4.775s-.328,3.242-.585,4.934l-.011.07a3.6,3.6,0,1,0,6.939-.74,18.865,18.865,0,0,1-1.019-4.29,28.2,28.2,0,0,1-.225-4.456c.009-.418.029-.836.055-1.253a4.879,4.879,0,0,1,1.521-1.215,6.647,6.647,0,0,1,2.166-.637,6.308,6.308,0,0,1,1.156-.049c.18.009.35.022.474.042h0a4.313,4.313,0,0,1,.353.984,48.924,48.924,0,0,1,.75,6.165,33.271,33.271,0,0,0,.479,3.477,13.439,13.439,0,0,0,.523,1.889,5.2,5.2,0,0,0,1.337,2.108A1.493,1.493,0,0,0,278.61,132.352Zm-4.7-15.107c-.07-.062-.057-.074,0,0Z" transform="translate(-18.735 -1.238)" fill="#fff"/><path d="M311,130.754a8.827,8.827,0,0,0,2.806-5.442,6.88,6.88,0,0,0-1.462-5.107,9.02,9.02,0,0,0-.63-.659,3.648,3.648,0,0,0-.682-.561c-.238-.163-.479-.325-.722-.471l-.736-.342a7.416,7.416,0,0,0-1.466-.469c-.041-.01-.079-.012-.12-.021a12.918,12.918,0,0,0,.9-1.006,10.373,10.373,0,0,0,2.177-4.738,7.62,7.62,0,0,0-.087-3.035,6.477,6.477,0,0,0-1.508-2.953,6.329,6.329,0,0,0-2.76-1.806,6.9,6.9,0,0,0-2.907-.28,8.769,8.769,0,0,0-4.081,1.6c-.006-.431-.007-.854-.016-1.289a2.423,2.423,0,0,0-4.845-.03v.03c-.072,2.286-.186,4.648-.293,6.983l-.336,7.03-.337,7.039-.16,3.529c-.048,1.2-.106,2.306-.123,3.645,0,.05,0,.112,0,.162a3.132,3.132,0,0,0,6.236.28c.342.12.688.233,1.045.327a11.765,11.765,0,0,0,5.146.118A10.372,10.372,0,0,0,311,130.754Zm-9.759-21.515a5.786,5.786,0,0,1,2.664-.2,1.6,1.6,0,0,1,.74.318.639.639,0,0,1,.219.356,2.359,2.359,0,0,1-.079,1.056,6.156,6.156,0,0,1-1.032,1.9A15.135,15.135,0,0,1,301.8,114.7c-.622.523-1.306,1.029-2.016,1.533l-.013-4.964q0-.766-.008-1.529A13.587,13.587,0,0,1,301.244,109.24Zm.1,19.886a12.929,12.929,0,0,1-1.515.02c0-.094,0-.19,0-.282l-.019-3.51-.007-2.618a24.645,24.645,0,0,1,5.405-.057,4.377,4.377,0,0,1,2.342.891.485.485,0,0,0,.079.058l.043.07c.026.045.074.075.1.115.024.091.088.151.1.243a1.237,1.237,0,0,1,.059.653,2.688,2.688,0,0,1-.075.457c-.081.163-.1.335-.205.508a4.664,4.664,0,0,1-.675,1.041,6.5,6.5,0,0,1-2.341,1.649A10.4,10.4,0,0,1,301.344,129.126Z" transform="translate(-25.649)" fill="#fff"/><path d="M322.53,128.231a7.92,7.92,0,0,0,2.359,4.109,8.066,8.066,0,0,0,2.048,1.349,8.843,8.843,0,0,0,1.135.433,6.9,6.9,0,0,0,1.362.263,6.159,6.159,0,0,0,3-.488,7.037,7.037,0,0,0,2.416-1.738,8.688,8.688,0,0,0,2.17-4.638,10.8,10.8,0,0,0-.411-4.8,9.751,9.751,0,0,0-2.684-4.226,8.743,8.743,0,0,0-4.573-2.187,4.612,4.612,0,0,0-1.942.067,4.967,4.967,0,0,0-1.591.742,6.84,6.84,0,0,0-1.912,2.122,11.357,11.357,0,0,0-1.475,4.655l.022,0A11.217,11.217,0,0,0,322.53,128.231Zm3.087-3.857.022,0a7.362,7.362,0,0,1,1.4-3.018,2.811,2.811,0,0,1,.964-.8c.3-.118.364-.037.41.015,1.561.565,2.11,2.012,2.3,3.64a13.728,13.728,0,0,1-.364,4.626c-.194.57-.3.923-.8,1.035a1.208,1.208,0,0,1-.448.015,4.281,4.281,0,0,1-.608-.122,4.014,4.014,0,0,1-1.106-.482C326.033,128.489,325.345,126.431,325.617,124.374Z" transform="translate(-32.095 -3.247)" fill="#fff"/><path d="M381.172,123.785A6.982,6.982,0,0,0,379,121.313a8.784,8.784,0,0,0-2.736-1.233,9.141,9.141,0,0,0-1.357-.248l-.335-.041c-.112-.013-.1-.018-.149-.026a.926.926,0,0,1-.208-.042,1.2,1.2,0,0,1-.464-.205c-.1-.053-.132-.133-.213-.242a1.082,1.082,0,0,1-.092-.425.827.827,0,0,1,.115-.461,1.344,1.344,0,0,1,.652-.5,7.187,7.187,0,0,1,3.122-.217l.126.01a1.429,1.429,0,0,0,.977-2.556,7.708,7.708,0,0,0-4.753-1.715,5.862,5.862,0,0,0-3.1.9,5.727,5.727,0,0,0-2.263,2.739,6.114,6.114,0,0,0,1.539,6.756,6.677,6.677,0,0,0,3.125,1.57,6.094,6.094,0,0,0,.792.119l.522.053a4.984,4.984,0,0,1,.641.083,2.556,2.556,0,0,1,1.566.769,1.7,1.7,0,0,1,.295,1.484,1.853,1.853,0,0,1-1.312,1.332,6.15,6.15,0,0,1-3.2-.167l-.084-.022a1.107,1.107,0,0,0-.993,1.915,8.192,8.192,0,0,0,1.966,1.3,6.476,6.476,0,0,0,2.55.649,5.766,5.766,0,0,0,2.923-.642,5.874,5.874,0,0,0,2.3-2.178A6.47,6.47,0,0,0,381.172,123.785Z" transform="translate(-42.349 -2.611)" fill="#fff"/><path d="M350.391,115.451A2.9,2.9,0,0,0,347,117.76l-.027.144a31.443,31.443,0,0,1-.724,3.4,16.706,16.706,0,0,1-1.128,3.075,8.823,8.823,0,0,1-1.6,2.339,3.61,3.61,0,0,1-.824.621,3.053,3.053,0,0,1-.326.15c-.081,0-.167.045-.225.037a.736.736,0,0,1-.424-.09,2.294,2.294,0,0,1-.59-.684,6.848,6.848,0,0,1-.727-2.786,15.932,15.932,0,0,1,.136-3.456,32.654,32.654,0,0,1,.688-3.623l.018-.08a1.383,1.383,0,0,0-2.581-.922,20.94,20.94,0,0,0-2.536,8.036,10.908,10.908,0,0,0,.621,4.817,7.382,7.382,0,0,0,1.649,2.467,5.87,5.87,0,0,0,3.062,1.5,6.529,6.529,0,0,0,1.715.032,7.371,7.371,0,0,0,1.537-.4,5.58,5.58,0,0,0,.881-.395c-.033.319-.071.637-.1.956l-.095.951c-.028.353-.061.526-.093.792A11.212,11.212,0,0,1,345,136.06a7.561,7.561,0,0,1-1.085,2.283,6.653,6.653,0,0,1-1.8,1.674,12,12,0,0,1-2.654,1.261,37.031,37.031,0,0,1-6.77,1.4c-2.414.292-4.911.51-7.434.721-5.049.42-10.21.823-15.32,1.735a1.7,1.7,0,0,0,.208,3.377c5.079.275,10.126.559,15.28.7,2.577.06,5.183.083,7.852-.082a35.153,35.153,0,0,0,8.269-1.3,18.482,18.482,0,0,0,4.307-1.875,12.885,12.885,0,0,0,5.869-8.131,18.236,18.236,0,0,0,.407-2.339c.081-.839.11-1.429.129-2.07.163-4.24.257-8.485.154-12.743.125-.671.227-1.342.312-2.008A2.907,2.907,0,0,0,350.391,115.451Z" transform="translate(-29.005 -2.998)" fill="#fff"/><path d="M202.572,153.219h1.558v3.951h1.126v-3.951h1.558V152.3h-4.242Z" transform="translate(-5.18 -11.355)" fill="#fff"/><path d="M212.169,154.221h-2.212V152.3H208.83v4.868h1.126v-2h2.212v2H213.3V152.3h-1.126Z" transform="translate(-6.587 -11.355)" fill="#fff"/><path d="M217.206,155.139h2.26v-.876h-2.26v-1.058h2.559v-.9h-3.679v4.868h3.769v-.9h-2.65Z" transform="translate(-8.218 -11.355)" fill="#fff"/><path d="M226.989,153.153a1.649,1.649,0,0,1,1.259.55l.723-.667a2.592,2.592,0,0,0-2.038-.841,2.522,2.522,0,1,0-.02,5.035,3.362,3.362,0,0,0,1.968-.619v-1.975h-1.029v1.426a1.782,1.782,0,0,1-.876.209,1.558,1.558,0,1,1,.013-3.116Z" transform="translate(-10.055 -11.331)" fill="#fff"/><path d="M235.8,154.068c0-1.091-.814-1.766-2.115-1.766h-2.107v4.868H232.7v-1.357h1.036l.939,1.357h1.211L234.8,155.6A1.583,1.583,0,0,0,235.8,154.068Zm-2.177.849H232.7v-1.7h.918c.688,0,1.036.313,1.036.849S234.308,154.917,233.62,154.917Z" transform="translate(-11.701 -11.355)" fill="#fff"/><path d="M239.295,155.139h2.26v-.876h-2.26v-1.058h2.559v-.9h-3.679v4.868h3.769v-.9h-2.649Z" transform="translate(-13.185 -11.355)" fill="#fff"/><path d="M245.319,155.139h2.26v-.876h-2.26v-1.058h2.559v-.9H244.2v4.868h3.769v-.9h-2.649Z" transform="translate(-14.539 -11.355)" fill="#fff"/><path d="M253.577,155.257l-2.42-2.955h-.932v4.868h1.113v-2.956l2.427,2.956h.925V152.3h-1.113Z" transform="translate(-15.894 -11.355)" fill="#fff"/><path d="M262.007,152.3h-1.252l-2.156,2.274V152.3h-1.12v4.868h1.12v-1.231l.653-.682,1.558,1.913h1.315l-2.136-2.7Z" transform="translate(-17.525 -11.355)" fill="#fff"/><path d="M265.244,155.139h2.26v-.876h-2.26v-1.058H267.8v-.9h-3.679v4.868h3.769v-.9h-2.649Z" transform="translate(-19.019 -11.355)" fill="#fff"/><path d="M271.269,155.139h2.26v-.876h-2.26v-1.058h2.559v-.9H270.15v4.868h3.769v-.9h-2.649Z" transform="translate(-20.374 -11.355)" fill="#fff"/><path d="M278.282,152.3h-2.107v4.868H277.3v-1.343h.981c1.3,0,2.114-.674,2.114-1.76S279.583,152.3,278.282,152.3Zm-.062,2.608H277.3v-1.691h.919c.688,0,1.036.313,1.036.849S278.907,154.91,278.22,154.91Z" transform="translate(-21.728 -11.355)" fill="#fff"/><path d="M283.777,155.139h2.26v-.876h-2.26v-1.058h2.559v-.9h-3.679v4.868h3.769v-.9h-2.649Z" transform="translate(-23.186 -11.355)" fill="#fff"/><path d="M292.9,154.068c0-1.091-.814-1.766-2.114-1.766h-2.107v4.868h1.126v-1.357h1.036l.939,1.357h1.21L291.9,155.6A1.582,1.582,0,0,0,292.9,154.068Zm-2.176.849h-.919v-1.7h.919c.688,0,1.036.313,1.036.849S291.415,154.917,290.728,154.917Z" transform="translate(-24.541 -11.355)" fill="#fff"/><path d="M296.006,153.654c0-.306.257-.557.925-.557a2.745,2.745,0,0,1,1.349.382l.348-.855a3.263,3.263,0,0,0-1.69-.431c-1.384,0-2.052.688-2.052,1.515,0,1.808,2.831,1.183,2.831,2.094,0,.3-.271.522-.939.522a2.864,2.864,0,0,1-1.607-.508l-.383.849a3.478,3.478,0,0,0,1.983.563c1.391,0,2.065-.7,2.065-1.508C298.836,153.932,296.006,154.551,296.006,153.654Z" transform="translate(-25.913 -11.331)" fill="#fff"/></g></g></svg>