<svg xmlns="http://www.w3.org/2000/svg" width="200" height="200" viewBox="0 0 200 200"><g transform="translate(-512 -328)"><rect width="200" height="200" transform="translate(512 328)" fill="#070707" opacity="0"/><g transform="translate(400.277 264.393)"><g transform="translate(141.723 188.01)"><path d="M141.727,290.326a1.733,1.733,0,0,1,.385-1.2,1.433,1.433,0,0,1,1.126-.43v9.877H155.53v-8.248a1.722,1.722,0,0,1,.385-1.215,1.482,1.482,0,0,1,1.126-.415v19.636a1.733,1.733,0,0,1-.385,1.2,1.433,1.433,0,0,1-1.126.43V299.9H143.238v8.4a1.722,1.722,0,0,1-.385,1.215,1.482,1.482,0,0,1-1.126.415Z" transform="translate(-141.723 -288.664)" fill="#fff"/><path d="M186.985,290.508a1.833,1.833,0,0,1,.494-1.378,1.977,1.977,0,0,1,1.422-.494v19.4a1.853,1.853,0,0,1-.494,1.393,1.975,1.975,0,0,1-1.437.494Z" transform="translate(-164.624 -288.634)" fill="#fff"/><path d="M208.108,309.016a7.058,7.058,0,0,1-3-2.529,6.612,6.612,0,0,1-1.067-3.7V295.74a6.466,6.466,0,0,1,1.067-3.674,7.132,7.132,0,0,1,2.963-2.5,9.94,9.94,0,0,1,4.326-.9,11.3,11.3,0,0,1,4.321.785,7,7,0,0,1,2.963,2.178,5.076,5.076,0,0,1,1.067,3.171,1.576,1.576,0,0,1-.533,1.259,2.055,2.055,0,0,1-1.393.454,2.277,2.277,0,0,1-.415-.025,5.892,5.892,0,0,0,.059-.988,4.158,4.158,0,0,0-.77-2.469,4.981,4.981,0,0,0-2.148-1.674,7.9,7.9,0,0,0-3.151-.593,7.267,7.267,0,0,0-3.111.637,4.977,4.977,0,0,0-2.114,1.778,4.551,4.551,0,0,0-.761,2.593v7.048a4.681,4.681,0,0,0,.77,2.637,5.01,5.01,0,0,0,2.163,1.788,7.547,7.547,0,0,0,3.171.637,7.635,7.635,0,0,0,3.121-.608,4.987,4.987,0,0,0,2.148-1.7,4.223,4.223,0,0,0,.77-2.469v-1.926H214.39a1.7,1.7,0,0,1-1.334-.563,2.1,2.1,0,0,1-.494-1.452h7.225a1.067,1.067,0,0,1,1.126,1,.992.992,0,0,1,0,.122V303.1a6.133,6.133,0,0,1-1.091,3.506,7.1,7.1,0,0,1-2.963,2.43,11.216,11.216,0,0,1-8.751-.03Z" transform="translate(-173.263 -288.645)" fill="#fff"/><path d="M249.486,290.953a2.109,2.109,0,0,1,.711-1.719,3.166,3.166,0,0,1,2.074-.593v9.329h10.514v-7.018a2.11,2.11,0,0,1,.711-1.719,3.166,3.166,0,0,1,2.074-.593v18.94a2.122,2.122,0,0,1-.711,1.719,3.167,3.167,0,0,1-2.074.593v-9.462H252.271v7.151a2.11,2.11,0,0,1-.711,1.719,3.167,3.167,0,0,1-2.074.593Z" transform="translate(-196.263 -288.634)" fill="#fff"/><path d="M294.294,309.16a1.6,1.6,0,0,1-.494-1.17V291.169q0-2.519,3.2-2.519v18.214h8.712a2.232,2.232,0,0,1,1.773.711,3.06,3.06,0,0,1,.622,2.074H295.459A1.6,1.6,0,0,1,294.294,309.16Z" transform="translate(-218.694 -288.642)" fill="#fff"/><path d="M333.267,291.368a2.386,2.386,0,0,1,.933-2.015,4.235,4.235,0,0,1,2.618-.711v18.51a2.439,2.439,0,0,1-.919,2.03,4.165,4.165,0,0,1-2.632.726Z" transform="translate(-238.668 -288.634)" fill="#fff"/><path d="M352.57,291a1.68,1.68,0,0,1,.583-1.274,1.974,1.974,0,0,1,1.4-.533h13.418a4.379,4.379,0,0,1-.607,2.593,2.3,2.3,0,0,1-1.975.815h-8.85V297.6h7.877a4.382,4.382,0,0,1-.608,2.588,2.281,2.281,0,0,1-1.975.815h-5.294v6.361a2.438,2.438,0,0,1-.948,2.148,5.348,5.348,0,0,1-3.022.667Z" transform="translate(-248.44 -288.914)" fill="#fff"/><path d="M392.729,291.175a1.827,1.827,0,0,1,.637-1.408,2.234,2.234,0,0,1,1.556-.578h13.241a4.817,4.817,0,0,1-.652,2.845,2.434,2.434,0,0,1-2.1.889h-8.322V297.6h7.759a4.877,4.877,0,0,1-.652,2.84,2.434,2.434,0,0,1-2.1.889h-5v4.86h8.944a2.411,2.411,0,0,1,2.074.884,4.874,4.874,0,0,1,.652,2.845H394.927a2.268,2.268,0,0,1-1.58-.578,1.818,1.818,0,0,1-.637-1.422Z" transform="translate(-268.755 -288.914)" fill="#fff"/></g><path d="M252.572,114.131l-.019-.621h-.621a27.827,27.827,0,0,0-7.07,1.006c.181-10.7-5.355-20.133-5.6-20.541l-.282-.485-.521.243A44.959,44.959,0,0,0,224.259,105a44.99,44.99,0,0,0-14.205-11.264l-.518-.243-.307.489c-.243.408-5.779,9.84-5.6,20.541a27.826,27.826,0,0,0-7.07-1.006h-.621l-.019.621v.88A27.937,27.937,0,0,0,223.4,142.842h1.744a27.936,27.936,0,0,0,27.469-27.828C252.592,114.717,252.572,114.422,252.572,114.131Zm-3.411,2.912a24.41,24.41,0,0,1-6.983,15.169h0a24.56,24.56,0,0,1-12.167,6.714c4.854-3.375,11.29-9.154,13.749-17.2a24.686,24.686,0,0,0,.812-3.64,24.467,24.467,0,0,1,4.592-1.035Zm-13.7-17.629L230.064,117.6a24.238,24.238,0,0,0-.773-3.381,26.061,26.061,0,0,0-2.987-6.381A38.993,38.993,0,0,1,235.458,99.415Zm5.98,16.3a27.942,27.942,0,0,0-9.164,6.3l6.384-21.492a36.559,36.559,0,0,1,2.78,15.192Zm-.608,3.98c-.087.359-.184.709-.291,1.055-2.152,7.044-8.07,12.28-12.128,15.173a24.269,24.269,0,0,1,6.472-11.788,24.546,24.546,0,0,1,5.947-4.44Zm-33.769-3.98a36.506,36.506,0,0,1,2.831-15.273l6.866,22.146a27.851,27.851,0,0,0-9.7-6.873Zm12.144-1.488a24.623,24.623,0,0,0-.663,2.725l-5.423-17.473a38.552,38.552,0,0,1,9.06,8.377A26.061,26.061,0,0,0,219.2,114.228Zm.88,21.68c-4.058-2.893-9.976-8.128-12.131-15.173-.1-.34-.2-.692-.288-1.055a24.592,24.592,0,0,1,12.419,16.228Zm2.343-20.709a21.882,21.882,0,0,1,1.822-4.229,22.05,22.05,0,0,1,1.818,4.229c2.233,7.306.058,15.208-1.825,20.023-.052-.129-.1-.262-.152-.392l-1.7-5.468a26.959,26.959,0,0,1,.032-14.147Zm-23.1,1.838a24.424,24.424,0,0,1,4.592,1.045,24.692,24.692,0,0,0,.812,3.64c2.459,8.044,8.9,13.823,13.749,17.2a24.56,24.56,0,0,1-12.18-6.7h0a24.434,24.434,0,0,1-6.973-15.169Z" transform="translate(-12.514 24.117)" fill="#fff"/></g></g></svg>