<svg xmlns="http://www.w3.org/2000/svg" width="200" height="200" viewBox="0 0 200 200"><g transform="translate(-72 -328)"><rect width="200" height="200" transform="translate(72 328)" fill="#070707" opacity="0"/><g transform="translate(-197.213 279.72)"><g transform="translate(320.024 95.28)"><g transform="translate(0)"><g transform="translate(8.456 25.17)"><path d="M368.776,134.918H357.511v8.089H356.8v1.184H369.49v-1.184h-.714Zm-.215,7.693H365.5v-2.2h3.065Zm-3.831,0h-3.173v-2.2h3.173Zm-7-4.359h3.065v1.942h-3.065ZM365.6,136.6h.578v.745H365.6Zm.792,0h.578v.745H366.4Zm.793,0h.578v.745h-.578Zm1.371-.215h-.578v-.745h.578Zm-.793,0h-.578v-.745h.578Zm.215.215h.578v.745h-.578Zm-1.586-.96h.578v.745H366.4Zm-.215.745H365.6v-.745h.578Zm-.686,1.87h3.065v1.942H365.5Zm-6.184-1.655h.578v.745h-.578Zm.578-.215h-.578v-.745h.578Zm.215.215h.578v.745h-.578Zm.578-.215h-.578v-.745h.578Zm-2.164-.745h.578v.745h-.578Zm.578.96v.745h-.578V136.6Zm2.568,0h.578v.745h-.578Zm2.957-.215h-.578v-.745h.578Zm-.578.215h.578v.745h-.578Zm-.215-.215h-.578v-.745h.578Zm0,.215v.745h-.578V136.6Zm-1.371,0h.578v.745h-.578Zm0-.96h.578v.745h-.578Zm-.215.745h-.578v-.745h.578Zm-.686,1.87h3.173v1.942h-3.173Zm-3.831-2.615h.578v.745h-.578Zm0,.96h.578v.745h-.578Zm0,3.811h3.065v2.2h-3.065Z" transform="translate(-356.798 -134.918)" fill="#fff"/></g><g transform="translate(9.085 34.854)"><path d="M357.789,170.166l.029.005h.616V150.813h10.107v19.011h.616l.029-.005V150.168h-11.4Z" transform="translate(-357.789 -150.168)" fill="#fff"/></g><g transform="translate(76.553 54.653)"><path d="M464.037,181.386h1.082l-1.082-.038Z" transform="translate(-464.037 -181.348)" fill="#fff"/></g><g transform="translate(81.776 38.992)"><path d="M476.662,156.685c-2.467,0-4.4.972-4.4,2.214v6.909h8.8V158.9C481.062,157.657,479.129,156.685,476.662,156.685Zm1.517.464a6.761,6.761,0,0,1,.715.178v.655h-.715Zm-.945,1.063h.716v.974h-.716Zm1.661.974h-.715v-.974h.715Zm-1.661-1.2v-.954c.246.016.484.044.716.081v.873Zm-1.859,1.2v-.974h.716v.974Zm-.945,0v-.974h.715v.974Zm.945-2.077c.231-.037.47-.065.716-.081v.954h-.716Zm-.945.218a6.76,6.76,0,0,1,.715-.178v.833h-.715Zm-.945.4a4.4,4.4,0,0,1,.716-.326v.578h-.716Zm.716.481v.974h-.716v-.974Zm2.005,1.3v.592h-3.62v-.592Zm.914,0h3.62v.592h-3.62Zm2.721-.323h-.716v-.974h.716Zm-.716-1.2V157.4a4.4,4.4,0,0,1,.716.326v.251Zm.945-.1c.048.034.095.069.138.1h-.138Zm-6.815,0v.1h-.138C473.16,157.946,473.206,157.911,473.254,157.877Zm-.669,1.022a1.051,1.051,0,0,1,.29-.687h.378v.974h-.669Zm3.62,1.524v2.085h-3.62v-2.085Zm.914,4.6v-2.3h3.62v2.3Zm-.914,0h-3.62v-2.3h3.62Zm4.534-2.516h-3.62v-2.085h3.62Zm0-3.322h-.669v-.974h.378a1.048,1.048,0,0,1,.291.687Z" transform="translate(-472.263 -156.685)" fill="#fff"/></g><g transform="translate(56.599 40.714)"><path d="M435.463,159.4a2.662,2.662,0,0,0-2.846,2.22h0V166.6h5.7v-4.984h0A2.661,2.661,0,0,0,435.463,159.4Zm2.631,2.22H435.82v-1.985A2.37,2.37,0,0,1,438.094,161.616Zm0,2.373H435.82V162.6H438.1Zm0,1.584H435.82v-1.385H438.1Zm-5.269-2.969h2.278v1.385h-2.278Zm2.278,2.969h-2.278v-1.385h2.278Zm0-5.942v1.985h-2.274A2.37,2.37,0,0,1,435.106,159.631Z" transform="translate(-432.614 -159.396)" fill="#fff"/></g><g transform="translate(62.97 40.714)"><path d="M445.5,159.4a2.662,2.662,0,0,0-2.846,2.22h0V166.6h5.7v-4.984h0A2.662,2.662,0,0,0,445.5,159.4Zm2.631,2.22h-2.274v-1.985A2.37,2.37,0,0,1,448.126,161.616Zm0,2.373h-2.277V162.6h2.277Zm0,1.584h-2.277v-1.385h2.277Zm-5.268-2.969h2.277v1.385h-2.277Zm2.277,2.969h-2.277v-1.385h2.277Zm0-5.942v1.985h-2.274A2.37,2.37,0,0,1,445.138,159.631Z" transform="translate(-442.646 -159.396)" fill="#fff"/></g><g transform="translate(69.34 40.714)"><path d="M455.527,159.4a2.662,2.662,0,0,0-2.846,2.22h0V166.6h5.7v-4.984h0A2.662,2.662,0,0,0,455.527,159.4Zm2.631,2.22h-2.274v-1.985A2.37,2.37,0,0,1,458.158,161.616Zm0,2.373h-2.277V162.6h2.277Zm0,1.584h-2.277v-1.385h2.277Zm-5.268-2.969h2.277v1.385h-2.277Zm2.277,2.969h-2.277v-1.385h2.277Zm0-5.942v1.985H452.9A2.37,2.37,0,0,1,455.17,159.631Z" transform="translate(-452.678 -159.396)" fill="#fff"/></g><g transform="translate(36.69 23.869)"><rect width="15.214" height="0.52" fill="#fff"/></g><g transform="translate(81.095 24.944)"><path d="M480.616,137.537v-2.975h-8.691v8.476h-.735v1.046h10.161v-1.046h-.735Zm-.215,5.036h-3.673V140.4H480.4Zm-8.261-4.229h3.673v1.836H472.14Zm1.89-1.9h.73v.878h-.73Zm.73-.215h-.73v-.878h.73Zm.215.215h.73v.878h-.73Zm.73-.215h-.73v-.878h.73Zm-2.621-.878h.73v.878h-.73Zm.73,1.093v.878h-.73v-.878Zm3.019,0h.73v.878h-.73Zm.945,0h.73v.878h-.73Zm.946,0h.73v.878h-.73Zm0-.215v-.878h.73v.878Zm-.946-.878h.73v.878h-.73Zm-.215.878h-.73v-.878h.73Zm2.836,1.093h-.73v-.878h.73Zm0-1.093h-.73v-.878h.73Zm-8.261-.878h.73v.878h-.73Zm0,1.093h.73v.878h-.73Zm0,3.951h3.673v2.177H472.14Zm8.261-.215h-3.673v-1.836H480.4Z" transform="translate(-471.19 -134.562)" fill="#fff"/></g><g transform="translate(39.746 26.224)"><path d="M414.5,139.243v-2.666h-7.746v7.59h-.679v1.045h9.1v-1.045H414.5Zm-6.691-.971h.625v.756h-.625Zm.84,0h.625v.756h-.625Zm.625-.215h-.625V137.3h.625Zm.215.215h.625v.756h-.625Zm.625-.215h-.625V137.3h.625Zm-2.3-.756h.625v.756h-.625Zm-.215.756h-.624V137.3h.624Zm-.624.215h.624v.756h-.624Zm4.171,0h.624v.756h-.624Zm.839,0h.625v.756h-.625Zm.84,0h.625v.756h-.625Zm.625-.215h-.625V137.3h.625Zm.215.215h.625v.756h-.625Zm.625-.215h-.625V137.3h.625Zm-2.3-.756h.625v.756h-.625Zm-.215.756h-.624V137.3h.624Zm-1.544,1.891v1.771h-3.252v-1.771Zm-3.252,1.986h3.252v1.771h-3.252Zm4.063,1.771v-1.771h3.252v1.771Zm3.252-1.986H411.03v-1.771h3.252Z" transform="translate(-406.073 -136.577)" fill="#fff"/></g><g transform="translate(10.341 40.643)"><path d="M359.766,159.732v7.687h8.886v-8.135h-8.886Zm7.3.215h.578v.639h-.578Zm-.793.855h.578v.64h-.578Zm.793,0h.578v.64h-.578Zm-.215-.215h-.578v-.639h.578Zm1.586.855h-.578v-.64h.578Zm0-.855h-.578v-.639h.578Zm-2.271,1.678h2.271v2.158h-2.271Zm0,4.6v-2.226h2.271v2.226Zm-6.184-6.06h.578v.64h-.578Zm3.146,0h.578v.64h-.578Zm2.164-.215h-.578v-.639h.578Zm0,.215v.64h-.578v-.64Zm-1.371,0h.578v.64h-.578Zm0-.855h.578v.639h-.578Zm-.215.639h-.578v-.639h.578Zm-2.137.215h.578v.64h-.578Zm.578-.215h-.578v-.639h.578Zm-1.371-.639h.578v.639h-.578Zm.578.855v.64h-.578v-.64Zm.9,1.462v2.158h-2.271v-2.158Zm-2.271,2.372h2.271v2.226h-2.271Zm3.039,0H365.4v2.226H363.02Zm0-.215v-2.158H365.4v2.158Zm-3.039-4.475h.578v.639h-.578Z" transform="translate(-359.766 -159.284)" fill="#fff"/></g><g transform="translate(29.259 39.316)"><path d="M389.558,157.7V165.8h4.387v-8.6h-4.387Zm4.171,7.475h-1.572v-2.5h1.572Zm-3.117-6.289h.625v.756h-.625Zm2.277.756h-.625v-.756h.625Zm-.625-.972v-.756h.625v.756Zm-1.652-.756h.625v.756h-.625Zm-.215.756h-.624v-.756h.624Zm-.624.215h.624v.756h-.624Zm1.572,1.676v1.9h-1.572v-1.9Zm-1.572,2.112h1.572v2.5h-1.572Zm2.384-.215v-1.9h1.572v1.9Zm1.572-2.816H393.1v-.756h.625Zm0-.972H393.1v-.756h.625Z" transform="translate(-389.558 -157.195)" fill="#fff"/></g><g transform="translate(29.053 30.795)"><path d="M393.406,143.776H389.86v3.433h-.625v.733h4.8v-.733h-.626Zm-1.666,2.812v-1.145h1.451v1.145Zm-.215,0h-1.45v-1.145h1.45Zm1.666-1.36h-1.451v-1.236h1.451Zm-3.117-1.236h1.45v1.236h-1.45Z" transform="translate(-389.235 -143.776)" fill="#fff"/></g><path d="M441.43,121.747v-3.055h.215v-.717h-.215v-1.962h.054a.162.162,0,0,0,.152-.214l-1.039-3.028a.161.161,0,0,0-.3,0l-1.04,3.028a.162.162,0,0,0,.152.214h.054v1.9L429.9,106.754a.323.323,0,0,0-.49,0l-1.143,1.335-2.883,2.638h-6.247v-4.188h.29a.108.108,0,0,0,.091-.05l.323-.511.005-.011,0-.009a.1.1,0,0,0,.008-.036h0v-.511a.107.107,0,0,0-.107-.108h-1.263v-1.841c0-.07,0-.215-.712-.215s-.712.145-.712.215V105.3H415.8a.108.108,0,0,0-.108.108v.511h0a.1.1,0,0,0,.007.036l0,.009,0,.011.323.511a.109.109,0,0,0,.091.05h.29v4.188H372.763v-4.188h.29a.11.11,0,0,0,.091-.05l.322-.511.005-.011,0-.009a.1.1,0,0,0,.007-.036h0v-.511a.108.108,0,0,0-.108-.108h-1.263v-1.841c0-.07,0-.215-.712-.215s-.712.145-.712.215V105.3h-1.263a.107.107,0,0,0-.107.108v.511h0a.088.088,0,0,0,.008.036l0,.009.005.011.323.511a.108.108,0,0,0,.091.05h.29v4.188h-3.48l-7.4-7.8v-2.2h.088l.016-.215a2.917,2.917,0,0,1-.321-.967c-.155-.651-.291-1.221-.554-1.347V97.1h.687a.108.108,0,0,0,0-.215h-.687v-.9l.43.294a.106.106,0,0,0,.06.019.108.108,0,0,0,.061-.2l-.551-.378v-.34a.107.107,0,1,0-.215,0v.192l-.411-.281a.107.107,0,1,0-.121.177l.532.365v1.047h-.686a.108.108,0,1,0,0,.215h.686v1.083c-.287.091-.429.683-.591,1.36a3.015,3.015,0,0,1-.316.966l.011.217h.077v2.209l-11.689,12.33v-1.692h.054a.161.161,0,0,0,.152-.214l-1.039-3.028a.162.162,0,0,0-.305,0l-1.039,3.028a.162.162,0,0,0,.153.214h.053v1.962h-.215v.717h.215v3.055h-.215v.717h.215v.394h.224v.394h.215v.277H345.2v28.125a.322.322,0,0,0,.323.323h1.559v-.069l.484.726v.1h.064l.079.119a.213.213,0,0,0,.14.091.2.2,0,0,0,.039.005.216.216,0,0,0,.215-.215v-.288l.108.02v-6.4l4.093.447v-8.147h-4.093v-5.3l2.015,3.082,2.339-3.575h-4.354V118.9h20.105v11.236h-4.354l2.339,3.575,2.016-3.082v5.3h-4.093v8.147l4.093-.447v5.708l.143-.026v.295a.215.215,0,0,0,.153.206.208.208,0,0,0,.062.01h0a.215.215,0,0,0,.175-.1l.08-.119h.028v-.043l.484-.031v.015H418.88l.556.225,0,0a.3.3,0,0,0,.047.059l.01.008a.311.311,0,0,0,.05.037l.02.011a.3.3,0,0,0,.051.02l.019.006a.333.333,0,0,0,.076.01l.323.011V118.906H439.28v31.065H421.116l18.486.645a.323.323,0,0,0,.323-.323V123.531h.627v-.278h.43v-.394h.448v-.394h.43v-.717Zm-.323,0h-1.326v-3.055h1.326Zm-69.94-5.492h1.326v3.055h-1.326Zm.663-5.372.813,2.37h-1.627Zm-.663,2.693h1.326v1.962h-1.326Zm48.383,8.171h-1.327v-3.055h1.327Zm.151-6.057h-1.628l.813-2.37Zm-1.477,2.285v-1.962h1.327v1.962Zm-19.013-.045H417.9v.045h-.215v.717h.215v.456l-.417.216a.322.322,0,0,0-.175.286v11.218h-18.1V117.931Zm41.233-4.61.813,2.37h-1.627Zm.663,2.693v1.962h-1.326v-1.962Zm-2.206,2.24H420.412l5.239-6.116.752-.878h0l3.254-3.8Zm-19.531-11.93h-.231v-.3h.418Zm-3.462-.806h3.736v.3h-3.736Zm.274.806-.187-.3h.418v.3Zm-43.188,0h-.231v-.3h.418Zm-3.462-.806h3.736v.3h-3.736Zm.274.806-.187-.3h.418v.3Zm-25.124,4.56.813,2.37h-1.627Zm-.663,2.693h1.326v1.962h-1.326Zm0,2.679h1.326v3.055h-1.326Zm7.832-2,2.848,3.779h-2.848Zm4.355,1.84h4.132v1.939h-4.132Zm4.132-.8h-4.132v-1.939h4.132Zm-4.932,2.346-3.229-4.285h3.229Zm5.732,0v-4.285h3.229Zm3.554-3.386v3.779h-2.847Zm-13.641,3.779H347.94l3.111-3.848Zm14.442,0v-3.832l3.1,3.832ZM350.5,143.316v-2.1l1.588.06v2.218Zm-1.57-5.875h.35v.64h-.35Zm.916-.215H349.5v-.639h.351Zm0,.215v.64H349.5v-.64Zm-.916-.855h.35v.639h-.35Zm-.215.639h-.351v-.639h.351Zm-.351.215h.351v.64h-.351Zm1.589,1.462v2.073l-1.589-.06V138.9Zm-1.589,2.227,1.589.06v2.066l-1.589-.173Zm3.724-.074L350.5,141V138.9h1.588Zm-1.481-3.616h.351v.64h-.351Zm.916.64h-.351v-.64h.351Zm.215-.64h.35v.64h-.35Zm.35-.215h-.35v-.639h.35Zm-.916-.639h.351v.639h-.351Zm-.215.639h-.351v-.639h.351Zm15.616,6.031v-2.066l1.588-.06v1.953ZM364.44,138.9h1.589V141l-1.589.06Zm2.243-1.462h.351v.64h-.351Zm.565,0h.351v.64h-.351Zm.566,0h.35v.64h-.35Zm.35-.215h-.35v-.639h.35Zm-.916-.639h.351v.639h-.351Zm-.215.639h-.351v-.639h.351Zm-.458,1.678h1.588v2.012l-1.588.06Zm-1.57-1.462h.351v.64h-.351Zm.565,0h.35v.64h-.35Zm.35-.215h-.35v-.639h.35Zm-.916-.639h.351v.639h-.351Zm-.215.639h-.351v-.639h.351Zm-.351.215h.351v.64h-.351Zm0,3.831,1.589-.06v2.1l-1.589.174Zm6.243-18.378v26h-1.075V119.759h.973l-.806-1.29-1.805-2.157-2.853-3.529-.02-.024-6.832-5.794-6.832,5.794-4.642,5.711-.088.141-.02.032-.7,1.117h.973V148.9h-1.111v-32.64h.036v-.277l11.764-12.409.206-.217.413-.435.413.435.205.217,7.3,7.7,4.445,4.688v.3h.053v3.055h-.053v.717h.053Zm19.931,19.833v-5.058h.779v5.058Zm-5.134-5.058v5.058h-.78v-5.058Zm.65-.331h3.835v10.2H386.13Zm6.541,10.967v-.771h-.627v-10.89h-.005c-.1-1.139-1.854-2.047-3.991-2.047s-3.887.909-3.991,2.047h-.005v10.89h-.627v.771h-.78v.591H371.329V123.217h10a.323.323,0,0,0,.323-.323v-2.934h-1.77v-1.1h2.926l4.972-4.629,4.972,4.629h2.926v1.1h-1.77v2.934a.322.322,0,0,0,.323.323h4.336V148.9H393.45V148.3Zm6.54.591V133.145H418.74V148.9Zm20.178.24,0-.008V133.145h0Z" transform="translate(-343.482 -95.28)" fill="#fff"/><g transform="translate(58.311 27.318)"><path d="M448.247,145.411h-.837V138.3H436.145v7.111h-.836v.82h12.938Zm-11.887-3.922h3.065v1.667h-3.065Zm7.877-1.576h.578v.7h-.578Zm.793,0h.578v.7h-.578Zm.793,0h.578v.7h-.578Zm.578-.215h-.578V139h.578Zm.215.215h.578v.7h-.578Zm.578-.215h-.578V139h.578Zm-2.164-.7h.578v.7h-.578Zm-.215.7h-.578V139h.578Zm-.686,1.791H447.2v1.667H444.13Zm-6.184-1.576h.578v.7h-.578Zm.578-.215h-.578V139h.578Zm.215.215h.578v.7h-.578Zm.578-.215h-.578V139h.578Zm-2.164-.7h.578v.7h-.578Zm.578.917v.7h-.578v-.7Zm2.568,0h.578v.7H440.3Zm2.379,0h.578v.7h-.578Zm.578-.215h-.578V139h.578Zm-.793,0h-.578V139h.578Zm0,.215v.7h-.578v-.7Zm-1.371,0h.578v.7h-.578Zm0-.917h.578v.7h-.578Zm-.215.7H440.3V139h.578Zm2.487,1.791v1.667h-3.172v-1.667Zm-7-2.493h.578v.7h-.578Zm0,.917h.578v.7h-.578Zm0,3.458h3.065v1.666h-3.065Zm3.831,0h3.172v1.666h-3.172Zm3.939,0H447.2v1.666H444.13Z" transform="translate(-435.309 -138.3)" fill="#fff"/></g></g></g><path d="M385.674,180.239c24.02,0,45.739.575,61.361,1.5-2.3-2.019-28.9-3.612-61.361-3.612s-59.057,1.593-61.361,3.612C339.935,180.814,361.655,180.239,385.674,180.239Z" transform="translate(-16.461 -30.24)" fill="#fff"/><g transform="translate(279.213 159.133)"><g transform="translate(0.211)"><g transform="translate(16.613)"><g transform="translate(0 0.271)"><path d="M305.707,196.912a.642.642,0,0,1,.651-.651h2.384a.66.66,0,0,1,.65.651v7.317l6.829-7.7a.648.648,0,0,1,.515-.271h2.71a.577.577,0,0,1,.434.976l-7.073,7.967,7.588,9.079a.6.6,0,0,1-.488.949h-2.953a.59.59,0,0,1-.488-.19l-7.073-8.726v8.266a.659.659,0,0,1-.65.65h-2.384a.642.642,0,0,1-.651-.65Z" transform="translate(-305.707 -196.261)" fill="#fff"/></g><g transform="translate(17.967 0.271)"><path d="M334,196.777a.534.534,0,0,1,.515-.516h2.52a.533.533,0,0,1,.515.516v17.94a.533.533,0,0,1-.515.515h-2.52a.533.533,0,0,1-.515-.515Z" transform="translate(-334.001 -196.261)" fill="#fff"/></g><g transform="translate(26.788)"><path d="M347.892,196.323a.509.509,0,0,1,.515-.488h.678l11.274,11.978h.027V196.621a.515.515,0,0,1,.515-.516h2.494a.534.534,0,0,1,.515.516v18.238a.51.51,0,0,1-.515.488h-.651l-11.328-12.439h-.027v11.653a.514.514,0,0,1-.514.515h-2.466a.533.533,0,0,1-.515-.515Z" transform="translate(-347.892 -195.835)" fill="#fff"/></g><g transform="translate(46.849)"><path d="M389.214,195.835a10.242,10.242,0,0,1,6.612,2.52.525.525,0,0,1,.027.759l-1.68,1.762a.463.463,0,0,1-.7,0,6.143,6.143,0,0,0-4.092-1.572A6.249,6.249,0,0,0,389.4,211.8a8.478,8.478,0,0,0,3.225-.678v-2.3H390.46a.492.492,0,0,1-.514-.488v-2.141a.5.5,0,0,1,.514-.516h5.2a.51.51,0,0,1,.488.516v6.937a.521.521,0,0,1-.216.434,13.694,13.694,0,0,1-6.721,1.761,9.743,9.743,0,0,1,0-19.485Z" transform="translate(-379.485 -195.835)" fill="#fff"/></g><g transform="translate(66.82)"><path d="M411.063,212.42l.975-1.68a.629.629,0,0,1,.921-.19c.136.082,2.33,1.681,4.092,1.681a2.263,2.263,0,0,0,2.466-2.087c0-1.382-1.165-2.33-3.442-3.252-2.547-1.03-5.1-2.656-5.1-5.853,0-2.412,1.789-5.2,6.1-5.2a9.545,9.545,0,0,1,5.42,1.815.671.671,0,0,1,.163.894l-1.03,1.545a.712.712,0,0,1-.948.325,8.921,8.921,0,0,0-3.767-1.49,2.158,2.158,0,0,0-2.384,1.9c0,1.274,1,2.141,3.2,3.035,2.629,1.057,5.664,2.629,5.664,6.125,0,2.792-2.412,5.366-6.233,5.366a8.717,8.717,0,0,1-5.962-2.114C410.954,212.99,410.819,212.854,411.063,212.42Z" transform="translate(-410.934 -195.835)" fill="#fff"/></g><g transform="translate(88.383)"><path d="M444.947,214.371l8.428-18.239a.486.486,0,0,1,.46-.3h.271a.459.459,0,0,1,.46.3l8.347,18.239a.478.478,0,0,1-.46.7H460.1a.779.779,0,0,1-.786-.542l-1.328-2.927h-8.1l-1.327,2.927a.818.818,0,0,1-.786.542h-2.358A.479.479,0,0,1,444.947,214.371Zm11.708-5.772-2.71-5.963h-.081l-2.656,5.963Z" transform="translate(-444.893 -195.835)" fill="#fff"/></g><g transform="translate(109.382 0.271)"><path d="M477.962,196.777a.515.515,0,0,1,.515-.516h7.751a5.87,5.87,0,0,1,5.908,5.827,5.98,5.98,0,0,1-4.011,5.474l3.712,6.884a.512.512,0,0,1-.46.785h-2.845a.464.464,0,0,1-.434-.244l-3.6-7.182h-3.008v6.911a.533.533,0,0,1-.515.515h-2.494a.515.515,0,0,1-.515-.515Zm7.968,8.13a2.761,2.761,0,0,0,2.683-2.765,2.7,2.7,0,0,0-2.683-2.628h-4.418v5.393Z" transform="translate(-477.962 -196.261)" fill="#fff"/></g><g transform="translate(126.438)"><path d="M508.055,196.241a.457.457,0,0,1,.488-.406h.434a.492.492,0,0,1,.46.271L515.4,208.9h.081l5.962-12.791a.467.467,0,0,1,.46-.271h.434a.457.457,0,0,1,.488.406l3.2,18.212a.47.47,0,0,1-.487.624h-2.466a.59.59,0,0,1-.516-.407l-1.6-10.271h-.081l-4.743,10.65a.461.461,0,0,1-.46.3h-.488a.487.487,0,0,1-.461-.3l-4.8-10.65h-.081l-1.572,10.271a.526.526,0,0,1-.488.407h-2.439a.5.5,0,0,1-.514-.624Z" transform="translate(-504.822 -195.835)" fill="#fff"/></g><g transform="translate(150.506)"><path d="M542.852,212.42l.976-1.68a.629.629,0,0,1,.921-.19c.135.082,2.33,1.681,4.093,1.681a2.263,2.263,0,0,0,2.466-2.087c0-1.382-1.165-2.33-3.442-3.252-2.548-1.03-5.095-2.656-5.095-5.853,0-2.412,1.788-5.2,6.1-5.2a9.545,9.545,0,0,1,5.42,1.815.672.672,0,0,1,.163.894l-1.03,1.545a.713.713,0,0,1-.949.325,8.922,8.922,0,0,0-3.767-1.49,2.158,2.158,0,0,0-2.385,1.9c0,1.274,1,2.141,3.2,3.035,2.629,1.057,5.664,2.629,5.664,6.125,0,2.792-2.412,5.366-6.233,5.366a8.717,8.717,0,0,1-5.962-2.114C542.744,212.99,542.608,212.854,542.852,212.42Z" transform="translate(-542.724 -195.835)" fill="#fff"/></g></g><g transform="translate(0 0.271)"><g transform="translate(0 14.012)"><path d="M280.8,221.49v1.6a.2.2,0,0,1-.2.2h-.856a.2.2,0,0,1-.2-.2v-4.562a.2.2,0,0,1,.2-.2h.856a.2.2,0,0,1,.2.2v1.6h5.856a.205.205,0,0,1,.2.2v.971a.205.205,0,0,1-.2.2Z" transform="translate(-279.545 -218.327)" fill="#fff"/></g><g transform="translate(0 6.692)"><path d="M279.744,212.928a.205.205,0,0,1-.2-.2v-.971a.2.2,0,0,1,.2-.2h2.766v-3.4h-2.766a.2.2,0,0,1-.2-.2V207a.205.205,0,0,1,.2-.2h6.91a.205.205,0,0,1,.2.2v.96a.2.2,0,0,1-.2.2h-2.881v3.4h2.881a.2.2,0,0,1,.2.2v.971a.205.205,0,0,1-.2.2Z" transform="translate(-279.545 -206.8)" fill="#fff"/></g><path d="M279.744,200.907a.2.2,0,0,1-.2-.2V196.46a.2.2,0,0,1,.2-.2h.856a.2.2,0,0,1,.2.2v3.09h1.712v-2.579a.205.205,0,0,1,.2-.2h.866a.2.2,0,0,1,.2.2v2.579H285.6v-3.09a.2.2,0,0,1,.2-.2h.855a.2.2,0,0,1,.2.2v4.249a.2.2,0,0,1-.2.2Z" transform="translate(-279.545 -196.261)" fill="#fff"/></g></g><g transform="translate(23.995 32.642)"><path d="M319.662,247.24a2.593,2.593,0,0,1,1.784.685.143.143,0,0,1,.007.207l-.2.2c-.059.074-.118.067-.192-.008a2.235,2.235,0,0,0-1.408-.552,2.121,2.121,0,0,0,0,4.239,2.145,2.145,0,0,0,1.408-.553.139.139,0,0,1,.177-.022l.221.2a.14.14,0,0,1-.008.2,2.529,2.529,0,0,1-1.791.715,2.654,2.654,0,1,1,0-5.308Z" transform="translate(-317.001 -247.24)" fill="#fff"/><path d="M329.84,247.24a2.654,2.654,0,1,1-2.647,2.661A2.649,2.649,0,0,1,329.84,247.24Zm0,4.792a2.138,2.138,0,1,0-2.13-2.131A2.143,2.143,0,0,0,329.84,252.032Z" transform="translate(-320.721 -247.24)" fill="#fff"/><path d="M339.444,247.5a.144.144,0,0,1,.14-.14h.28a.14.14,0,0,1,.14.14v3.075a1.4,1.4,0,1,0,2.786.015V247.5a.14.14,0,0,1,.14-.14h.28a.145.145,0,0,1,.14.14v3.118a1.954,1.954,0,1,1-3.907,0Z" transform="translate(-325.193 -247.282)" fill="#fff"/><path d="M350.078,247.372a.138.138,0,0,1,.14-.132h.184l3.326,4.143h.015v-3.929a.14.14,0,0,1,.14-.14h.258a.144.144,0,0,1,.14.14v4.962a.138.138,0,0,1-.14.133h-.133l-3.384-4.225h-.008v4.011a.14.14,0,0,1-.14.14h-.258a.145.145,0,0,1-.14-.14Z" transform="translate(-329.074 -247.24)" fill="#fff"/><path d="M361.638,247.85h-1.283a.14.14,0,0,1-.14-.14V247.5a.14.14,0,0,1,.14-.14h3.126a.14.14,0,0,1,.14.14v.215a.14.14,0,0,1-.14.14H362.2v4.526a.146.146,0,0,1-.14.14h-.28a.146.146,0,0,1-.14-.14Z" transform="translate(-332.774 -247.282)" fill="#fff"/><path d="M369.1,247.5a.14.14,0,0,1,.14-.14h1.909a1.584,1.584,0,0,1,1.607,1.57,1.645,1.645,0,0,1-1.091,1.5l1.01,1.873a.139.139,0,0,1-.125.213h-.377a.125.125,0,0,1-.117-.067l-.98-1.953h-1.408v1.88a.145.145,0,0,1-.14.14h-.287a.14.14,0,0,1-.14-.14Zm2.012,2.514a1.058,1.058,0,1,0,0-2.116h-1.43v2.116Z" transform="translate(-336.015 -247.282)" fill="#fff"/><path d="M379.474,250.032,377.7,247.57a.137.137,0,0,1,.117-.214h.347a.161.161,0,0,1,.118.066l1.489,2.057,1.489-2.057a.159.159,0,0,1,.118-.066h.347a.137.137,0,0,1,.117.214l-1.8,2.455v2.351a.145.145,0,0,1-.14.14h-.288a.14.14,0,0,1-.14-.14Z" transform="translate(-339.147 -247.282)" fill="#fff"/><path d="M394.745,247.5a.14.14,0,0,1,.14-.14h1.629a1.644,1.644,0,1,1,.008,3.288h-1.217v1.732a.145.145,0,0,1-.14.14h-.28a.14.14,0,0,1-.14-.14Zm1.733,2.6a1.127,1.127,0,0,0,1.121-1.128,1.088,1.088,0,0,0-1.121-1.054h-1.172V250.1Z" transform="translate(-345.377 -247.282)" fill="#fff"/><path d="M403.728,247.5a.145.145,0,0,1,.14-.14h.28a.14.14,0,0,1,.14.14v3.075a1.4,1.4,0,1,0,2.786.015V247.5a.14.14,0,0,1,.14-.14h.28a.144.144,0,0,1,.14.14v3.118a1.954,1.954,0,1,1-3.907,0Z" transform="translate(-348.656 -247.282)" fill="#fff"/><path d="M414.362,247.5a.14.14,0,0,1,.14-.14h1.614a1.35,1.35,0,0,1,.789,2.536,1.3,1.3,0,0,1,.885,1.2,1.461,1.461,0,0,1-1.607,1.423H414.5a.14.14,0,0,1-.14-.14Zm1.88,4.527a.909.909,0,0,0,.928-.937.978.978,0,0,0-1.054-.906H414.9v1.843Zm-.126-2.352a.853.853,0,0,0,.885-.921.817.817,0,0,0-.885-.885h-1.2v1.806Z" transform="translate(-352.538 -247.282)" fill="#fff"/><path d="M429.809,252.283l2.241-4.962a.133.133,0,0,1,.125-.081h.074a.133.133,0,0,1,.125.081l2.226,4.962a.13.13,0,0,1-.125.192h-.3a.136.136,0,0,1-.125-.081l-.545-1.216h-2.617l-.538,1.216a.137.137,0,0,1-.126.081h-.295A.13.13,0,0,1,429.809,252.283Zm3.5-1.563c-.361-.8-.716-1.615-1.077-2.418h-.059L431.1,250.72Z" transform="translate(-358.171 -247.24)" fill="#fff"/><path d="M440.89,247.372a.139.139,0,0,1,.14-.132h.185l3.324,4.143h.015v-3.929a.14.14,0,0,1,.14-.14h.258a.144.144,0,0,1,.14.14v4.962a.138.138,0,0,1-.14.133h-.133l-3.384-4.225h-.008v4.011a.14.14,0,0,1-.14.14h-.258a.146.146,0,0,1-.14-.14Z" transform="translate(-362.22 -247.24)" fill="#fff"/><path d="M452.062,247.5a.138.138,0,0,1,.133-.14h1.652a2.58,2.58,0,1,1,0,5.161h-1.652a.139.139,0,0,1-.133-.14Zm1.666,4.512a2.076,2.076,0,1,0,0-4.151h-1.105v4.151Z" transform="translate(-366.298 -247.282)" fill="#fff"/><path d="M470.048,247.5a.145.145,0,0,1,.14-.14h.288a.14.14,0,0,1,.14.14v2.153h2.993V247.5a.14.14,0,0,1,.14-.14h.288a.144.144,0,0,1,.14.14v4.881a.145.145,0,0,1-.14.14h-.288a.14.14,0,0,1-.14-.14v-2.234h-2.993v2.234a.14.14,0,0,1-.14.14h-.288a.146.146,0,0,1-.14-.14Z" transform="translate(-372.863 -247.282)" fill="#fff"/><path d="M483.2,247.24a2.654,2.654,0,1,1-2.647,2.661A2.649,2.649,0,0,1,483.2,247.24Zm0,4.792a2.138,2.138,0,1,0-2.13-2.131A2.143,2.143,0,0,0,483.2,252.032Z" transform="translate(-376.697 -247.24)" fill="#fff"/><path d="M492.829,247.85h-1.283a.14.14,0,0,1-.14-.14V247.5a.14.14,0,0,1,.14-.14h3.125a.139.139,0,0,1,.14.14v.215a.14.14,0,0,1-.14.14h-1.283v4.526a.145.145,0,0,1-.14.14h-.28a.145.145,0,0,1-.14-.14Z" transform="translate(-380.659 -247.282)" fill="#fff"/><path d="M500.285,247.5a.14.14,0,0,1,.14-.14h2.905a.14.14,0,0,1,.14.14v.215a.14.14,0,0,1-.14.14h-2.477v1.8h2.116a.144.144,0,0,1,.14.14V250a.14.14,0,0,1-.14.14h-2.116v1.88h2.477a.14.14,0,0,1,.14.14v.213a.14.14,0,0,1-.14.14h-2.905a.14.14,0,0,1-.14-.14Z" transform="translate(-383.899 -247.282)" fill="#fff"/><path d="M509.136,247.5a.14.14,0,0,1,.14-.14h.288a.145.145,0,0,1,.14.14v4.527h2.123a.139.139,0,0,1,.14.14v.213a.14.14,0,0,1-.14.14h-2.551a.14.14,0,0,1-.14-.14Z" transform="translate(-387.13 -247.282)" fill="#fff"/></g><g transform="translate(0 28.004)"><path d="M459,240.359H279.424a.211.211,0,0,1,0-.423H459a.211.211,0,0,1,0,.423Z" transform="translate(-279.213 -239.936)" fill="#fff"/></g><g transform="translate(0 41.52)"><path d="M459,261.642H279.424a.211.211,0,0,1,0-.422H459a.211.211,0,1,1,0,.422Z" transform="translate(-279.213 -261.22)" fill="#fff"/></g></g></g></g></svg>