<svg xmlns="http://www.w3.org/2000/svg" xmlns:xlink="http://www.w3.org/1999/xlink" width="200" height="200" viewBox="0 0 200 200"><defs><clipPath id="a"><rect width="160" height="53.767" fill="#fff"/></clipPath></defs><g transform="translate(-960 -548)"><rect width="200" height="200" transform="translate(960 548)" fill="#070707" opacity="0"/><g transform="translate(980 621)"><g clip-path="url(#a)"><path d="M538.106,592.384a.968.968,0,0,1,.377.809,1,1,0,0,1-.213.651,1.006,1.006,0,0,1-.6.341,1.191,1.191,0,0,1,.743.365,1.081,1.081,0,0,1,.264.749,1.036,1.036,0,0,1-.422.876,1.9,1.9,0,0,1-1.165.318h-1.885v-4.4h1.854a1.664,1.664,0,0,1,1.044.293m-2.394,1.607h1.326a1.124,1.124,0,0,0,.691-.186.628.628,0,0,0,.245-.532.6.6,0,0,0-.245-.516,1.144,1.144,0,0,0-.691-.181h-1.326Zm0,2.023h1.326a1.464,1.464,0,0,0,.837-.2.665.665,0,0,0,.3-.582.634.634,0,0,0-.3-.559,1.491,1.491,0,0,0-.833-.2h-1.326Z" transform="translate(-490.607 -542.75)" fill="#fff"/><path d="M610.331,592.237a2.251,2.251,0,0,1,.836.8,2.1,2.1,0,0,1,.309,1.114,2.123,2.123,0,0,1-.309,1.12,2.253,2.253,0,0,1-.836.807,2.4,2.4,0,0,1-2.318,0,2.251,2.251,0,0,1-.836-.807,2.186,2.186,0,0,1,0-2.239,2.222,2.222,0,0,1,.836-.8,2.356,2.356,0,0,1,1.164-.293,2.321,2.321,0,0,1,1.154.3m-2.051.416a1.811,1.811,0,0,0-.657.63,1.621,1.621,0,0,0-.246.872,1.643,1.643,0,0,0,.246.878,1.812,1.812,0,0,0,1.554.862,1.785,1.785,0,0,0,1.54-.862,1.659,1.659,0,0,0,.243-.878,1.635,1.635,0,0,0-.243-.873,1.8,1.8,0,0,0-.651-.628,1.764,1.764,0,0,0-.89-.233,1.79,1.79,0,0,0-.9.233" transform="translate(-556.297 -542.613)" fill="#fff"/><path d="M697.793,596.031a2.137,2.137,0,0,1-2.715,0,1.811,1.811,0,0,1-.493-1.349v-2.591h.5v2.591a1.331,1.331,0,0,0,.362.993,1.344,1.344,0,0,0,2.33-.993v-2.591h.5v2.591a1.813,1.813,0,0,1-.491,1.349" transform="translate(-636.703 -542.75)" fill="#fff"/><path d="M778.309,595.089q-.187.013-.295.012h-1.169v1.391h-.5v-4.4h1.673a1.919,1.919,0,0,1,1.279.387,1.355,1.355,0,0,1,.456,1.093,1.539,1.539,0,0,1-.255.9,1.406,1.406,0,0,1-.731.524l1.028,1.495h-.571Zm.631-.734a.939.939,0,0,0,.324-.773.9.9,0,0,0-.324-.752,1.468,1.468,0,0,0-.926-.255h-1.169v2.044h1.169a1.431,1.431,0,0,0,.926-.264" transform="translate(-711.647 -542.749)" fill="#fff"/><path d="M856.632,596.493l-2.64-3.533v3.533h-.5v-4.4h.522l2.64,3.539v-3.539h.5v4.4Z" transform="translate(-782.365 -542.75)" fill="#fff"/><path d="M936.59,592.576v1.446h2.22v.485h-2.22v1.507h2.566v.479h-3.069v-4.4h2.987v.485Z" transform="translate(-858.079 -542.75)" fill="#fff"/><path d="M1011.806,596.493l-.009-3.628-1.6,3.162h-.3l-1.6-3.162v3.628h-.479v-4.4h.623l1.608,3.171,1.6-3.171h.617v4.4Z" transform="translate(-923.834 -542.75)" fill="#fff"/><path d="M1098.412,592.237a2.252,2.252,0,0,1,.836.8,2.1,2.1,0,0,1,.309,1.114,2.12,2.12,0,0,1-.309,1.12,2.253,2.253,0,0,1-.836.807,2.4,2.4,0,0,1-2.318,0,2.248,2.248,0,0,1-.836-.807,2.186,2.186,0,0,1,0-2.239,2.219,2.219,0,0,1,.836-.8,2.357,2.357,0,0,1,1.164-.293,2.321,2.321,0,0,1,1.154.3m-2.051.416a1.811,1.811,0,0,0-.657.63,1.62,1.62,0,0,0-.245.872,1.642,1.642,0,0,0,.245.878,1.813,1.813,0,0,0,1.554.862,1.785,1.785,0,0,0,1.54-.862,1.657,1.657,0,0,0,.243-.878,1.633,1.633,0,0,0-.243-.873,1.8,1.8,0,0,0-.651-.628,1.765,1.765,0,0,0-.89-.233,1.789,1.789,0,0,0-.9.233" transform="translate(-1003.704 -542.613)" fill="#fff"/><path d="M1185.874,596.031a2.138,2.138,0,0,1-2.715,0,1.811,1.811,0,0,1-.493-1.349v-2.591h.5v2.591a1.33,1.33,0,0,0,.362.993,1.344,1.344,0,0,0,2.33-.993v-2.591h.5v2.591a1.814,1.814,0,0,1-.491,1.349" transform="translate(-1084.111 -542.75)" fill="#fff"/><path d="M1259.208,592.576v3.917h-.5v-3.917h-1.43v-.485h3.373v.485Z" transform="translate(-1152.501 -542.75)" fill="#fff"/><path d="M1332.272,596.493v-1.937h-2.652v1.937h-.5v-4.4h.5v1.989h2.652v-1.989h.5v4.4Z" transform="translate(-1218.357 -542.75)" fill="#fff"/><path d="M12.789,379.589a2.407,2.407,0,0,1-2.212,1.323c-1.041,0-1.828-.475-2.222-2.243L7.9,376.609c-.394-1.758-.7-2.94-2.334-2.94H3.6v4.758c0,1.505.273,1.717,1.677,1.778v.414c-.637-.04-1.677-.061-2.627-.061-1.071,0-2.071.02-2.647.061v-.414c1.4-.061,1.677-.273,1.677-1.778V368.163c0-1.505-.273-1.717-1.677-1.778v-.414c.576.04,1.616.061,2.526.061,1.3,0,2.627-.04,3.122-.04,3.334,0,4.991,1.576,4.991,3.6,0,1.434-.9,3.5-4.021,3.98l.253.04a2.993,2.993,0,0,1,2.9,2.728l.515,2.111c.253,1.2.485,1.7,1.061,1.7.505,0,.748-.3,1.131-.788ZM3.6,368.163v5.091H4.99c2.93,0,3.576-1.536,3.576-3.435,0-2.172-.929-3.435-3.435-3.435-1.263,0-1.535.354-1.535,1.778" transform="translate(0 -335.473)" fill="#fff"/><path d="M202.31,369.952c0,4.627-2.728,7.738-6.577,7.738-3.93,0-6.556-2.758-6.556-7.5,0-4.627,2.728-7.738,6.577-7.738,3.93,0,6.556,2.758,6.556,7.5m-11.072.162c0,4.4,2.031,7.2,4.576,7.2,2.687,0,4.425-3,4.425-7.284,0-4.4-2.02-7.2-4.566-7.2-2.7,0-4.435,3-4.435,7.284" transform="translate(-173.412 -332.251)" fill="#fff"/><path d="M410.593,363.952a1.346,1.346,0,0,0,.707.293c.263,0,.374-.313.455-.909h.475c-.061.727-.1,1.616-.1,4.223h-.475c-.152-1.97-1.1-3.98-3.394-3.98a2.362,2.362,0,0,0-2.526,2.4c0,1.879,1.616,2.627,3.475,3.788,2.152,1.344,3.728,2.435,3.728,4.657,0,2.626-1.99,3.93-4.395,3.93a4.811,4.811,0,0,1-2.829-.768,1.41,1.41,0,0,0-.707-.293c-.263,0-.374.313-.455.909h-.475c.061-.849.081-2.041.081-4.96h.475c.172,2.505,1.121,4.7,3.768,4.7a2.552,2.552,0,0,0,2.687-2.758c0-1.677-1.3-2.627-3.223-3.778-1.97-1.182-3.687-2.3-3.687-4.637,0-2.445,1.849-3.586,3.889-3.586a3.9,3.9,0,0,1,2.526.768" transform="translate(-370.404 -332.919)" fill="#fff"/><path d="M570.991,380.62c-1.4-.061-3.354-.061-4.738-.061-1.243,0-3.97,0-6,.061v-.414c1.4-.061,1.677-.273,1.677-1.778V368.164c0-1.505-.273-1.717-1.677-1.778v-.414c2.031.061,4.758.061,6,.061,1.263,0,3.041,0,4.324-.061-.1.97-.142,1.97-.142,2.445a11.118,11.118,0,0,0,.061,1.283h-.475c-.273-2.445-.586-3.253-2.778-3.253h-1.717c-1.4,0-1.677.212-1.677,1.717v4.879h1.374c1.8,0,1.758-1.737,1.919-2.727h.475c-.061.879-.071,1.475-.071,1.95,0,.384.01.687.01.99,0,.677.02,1.364.121,2.94H567.2c-.162-1.323-.182-2.738-1.98-2.738h-1.374v4.97c0,1.505.273,1.717,1.677,1.717h1.515c2.586,0,3.1-.929,3.394-3.667h.475c-.04.374-.061.919-.061,1.5,0,.515.04,1.6.141,2.647" transform="translate(-513.564 -335.474)" fill="#fff"/><path d="M844.668,372.881c3.273.434,4.223,2.051,4.223,3.728,0,2.354-1.869,4.011-4.97,4.011-.616,0-1.859-.061-3.556-.061-.97,0-1.99.02-2.566.061v-.414c1.4-.061,1.677-.273,1.677-1.778V368.163c0-1.505-.273-1.717-1.677-1.778v-.414c.576.04,1.616.061,2.526.061,1.3,0,2.626-.04,3.122-.04,2.9,0,4.364,1.344,4.364,3.253,0,1.465-.828,2.889-3.142,3.6Zm-3.273-4.718v4.677h1.394c2.435,0,3.041-1.576,3.041-3.374,0-2.031-.828-3.081-2.9-3.081-1.263,0-1.536.354-1.536,1.778m5.425,8.354c0-2.1-1.061-3.324-3.687-3.324h-1.737v5.233c0,1.445.273,1.717,1.556,1.717,2.708,0,3.869-1.3,3.869-3.627" transform="translate(-767.982 -335.473)" fill="#fff"/><path d="M1028.449,380.62c-1.4-.061-3.354-.061-4.738-.061-1.243,0-3.97,0-6,.061v-.414c1.4-.061,1.677-.273,1.677-1.778V368.164c0-1.505-.273-1.717-1.677-1.778v-.414c2.031.061,4.758.061,6,.061,1.263,0,3.041,0,4.323-.061-.1.97-.141,1.97-.141,2.445a11.1,11.1,0,0,0,.061,1.283h-.475c-.273-2.445-.586-3.253-2.778-3.253h-1.717c-1.4,0-1.677.212-1.677,1.717v4.879h1.374c1.8,0,1.758-1.737,1.919-2.727h.475c-.061.879-.071,1.475-.071,1.95,0,.384.01.687.01.99,0,.677.02,1.364.121,2.94h-.475c-.161-1.323-.182-2.738-1.98-2.738h-1.374v4.97c0,1.505.272,1.717,1.677,1.717h1.515c2.586,0,3.1-.929,3.394-3.667h.475c-.04.374-.061.919-.061,1.5,0,.515.04,1.6.141,2.647" transform="translate(-932.901 -335.474)" fill="#fff"/><path d="M1206.906,377.772c.414,1.051,1,1.3,1.434,1.323v.414c-.566-.04-1.434-.061-2.223-.061-1.071,0-2.061.02-2.647.061V379.1c1-.04,1.465-.192,1.465-.768a2.843,2.843,0,0,0-.242-.97l-1.273-3.394h-4.991l-.849,2.192a4.885,4.885,0,0,0-.414,1.7c0,.9.616,1.212,1.8,1.243v.414c-.788-.04-1.656-.061-2.384-.061a15.224,15.224,0,0,0-1.546.061V379.1c.536-.121,1.152-.556,1.627-1.8l4.869-12.537h.334Zm-5.95-10.4-2.374,6.172h4.688Z" transform="translate(-1095.45 -334.363)" fill="#fff"/><path d="M1393.758,366.385c-1.4.061-1.667.475-1.667,1.99V374.6a8.647,8.647,0,0,1-.849,4.384,4.3,4.3,0,0,1-3.788,1.929,4.927,4.927,0,0,1-3.475-1.121c-1.222-1.142-1.535-2.313-1.535-5.132v-6.5c0-1.505-.263-1.717-1.677-1.778v-.414c.586.04,1.576.061,2.647.061.96,0,1.99-.02,2.637-.061v.414c-1.414.061-1.677.273-1.677,1.778v6.849c0,2.839.323,5.172,3.263,5.172,3.122,0,3.97-2.273,3.97-5.354v-6.455c0-1.515-.475-1.929-1.879-1.99v-.414c.495.04,1.4.061,2.111.061s1.465-.02,1.92-.061Z" transform="translate(-1265.702 -335.473)" fill="#fff"/><path d="M1598.4,368.618c0,.667.02,1.263.061,1.7h-.475c-.293-2.879-.6-3.869-3.182-3.869h-1.122v11.769c0,1.677.354,1.93,2.091,1.99v.414c-.727-.04-1.919-.061-3.041-.061-1.242,0-2.4.02-3.061.061v-.414c1.738-.061,2.091-.313,2.091-1.99V366.446h-1.122c-2.586,0-2.9.99-3.182,3.869h-.475c.04-.434.06-1.03.06-1.7,0-.515-.04-1.6-.151-2.647,1.717.061,4.142.061,5.839.061s4.091,0,5.809-.061c-.1,1.051-.141,2.132-.141,2.647" transform="translate(-1454.657 -335.473)" fill="#fff"/><path d="M1785.539,365.972v.414c-.536.121-1.031.616-1.657,1.839l-3.243,6.435v3.768c0,1.505.263,1.717,1.677,1.778v.414c-.647-.04-1.677-.061-2.627-.061-1.081,0-2.071.02-2.657.061v-.414c1.414-.061,1.677-.273,1.677-1.778v-3.122l-4.193-7.738c-.566-1.02-.909-1.162-1.2-1.162v-.434c.535.04,1.111.061,1.818.061.909,0,2.011,0,2.9-.061v.434c-.788,0-1.455.182-1.455.8a1.592,1.592,0,0,0,.212.717l3.445,6.6,2.637-5.253a4.387,4.387,0,0,0,.566-1.778c0-.818-.677-1.071-1.828-1.1v-.414c.788.04,1.656.061,2.384.061a15.2,15.2,0,0,0,1.546-.061" transform="translate(-1625.539 -335.474)" fill="#fff"/><path d="M228.179,24.154a61.543,61.543,0,0,1-6.452-1.773c-1.058-.353-2.107-.736-3.152-1.133s-2.085-.811-3.163-1.163a6.985,6.985,0,0,0-3.427-.424,5.785,5.785,0,0,0-2.959,1.812,16.9,16.9,0,0,0-1.122,1.288l-.518.672c-.164.218-.332.432-.509.637a5.257,5.257,0,0,1-1.18,1.051,1.964,1.964,0,0,1-1.388.327,2.6,2.6,0,0,1-1.294-.722,7.732,7.732,0,0,1-1.038-1.233c-.632-.895-1.173-1.871-1.73-2.842a17.314,17.314,0,0,0-1.879-2.843,2.693,2.693,0,0,0-1.538-.969,1.61,1.61,0,0,0-.949.185,2.745,2.745,0,0,0-.625.473.35.35,0,0,0-.059.046q-3.3,3.4-8.919,3.1-5.372-.3-8.155-5.766a.5.5,0,0,0-.468-.271,1.388,1.388,0,0,0-.875.382,1.019,1.019,0,0,0-.456.7q0,.222.271.32,1.281.394,1.281,2.563a8.282,8.282,0,0,1-1.281,4.386,4.268,4.268,0,0,1-3.376,2.414Q169.7,25.6,169.7,21.39a15.778,15.778,0,0,1,.936-4.7q12.245-9.821,13.847-14.6A3.689,3.689,0,0,0,184.7.96a.86.86,0,0,0-.986-.96,6.532,6.532,0,0,0-2.439.714q-3.08,1.453-7.047,6.351a37.236,37.236,0,0,0-6.17,10.81,38.23,38.23,0,0,1-7.936,5.483,15.709,15.709,0,0,1-6.81,2.07,4.465,4.465,0,0,1-1.085-.123,1.017,1.017,0,0,1-.937-1.059,6.018,6.018,0,0,1,1.561-3.178A7.038,7.038,0,0,1,154.908,19a1.907,1.907,0,0,0,.792-.727q.322-.5.223-.752a1.118,1.118,0,0,0-.641-.554.848.848,0,0,0-.69-.062,3.5,3.5,0,0,1-1.651.32,6.116,6.116,0,0,1-2.242-.394q-1.085-.444-1.035-1.035a1.566,1.566,0,0,0,.665-1.355.9.9,0,0,0-1.01-.813,1.1,1.1,0,0,0-.665.2.8.8,0,0,0-.345.641,2.079,2.079,0,0,0,.1.493,1.235,1.235,0,0,1,.074.468,6.5,6.5,0,0,1-2,2.439c-.015.014-.023.027-.036.04a29.724,29.724,0,0,1-5.838,4.313,23.062,23.062,0,0,1-6.842,2.554,16.084,16.084,0,0,1-3.625.3,10.054,10.054,0,0,1-1.787-.22,5.181,5.181,0,0,1-1.514-.565,7.266,7.266,0,0,0,1.527-.772,2.53,2.53,0,0,0,.73-.734,1.134,1.134,0,0,0,.174-.582.909.909,0,0,0-.245-.609,1.5,1.5,0,0,0-1.041-.43,2.3,2.3,0,0,0-1.037.195,2.68,2.68,0,0,0-.85.6,2.384,2.384,0,0,0-.568.892,1.386,1.386,0,0,0,.13,1.13,1.876,1.876,0,0,0,.118.17c-.345.115-.693.222-1.046.318a34.19,34.19,0,0,1-3.609.74,73.8,73.8,0,0,1-7.366.692c-4.934.241-9.883.184-14.823.011l-.005.121c4.941.229,9.892.343,14.841.158,2.474-.1,4.948-.27,7.408-.6a34.583,34.583,0,0,0,3.669-.676c.437-.11.871-.238,1.3-.378a3.08,3.08,0,0,0,.26.191,5.537,5.537,0,0,0,1.82.7,10.608,10.608,0,0,0,1.89.223,16.63,16.63,0,0,0,3.75-.329,23.581,23.581,0,0,0,6.985-2.649,30.258,30.258,0,0,0,5.968-4.47l0,0a20.613,20.613,0,0,0,1.9-1.971,2.517,2.517,0,0,0,1.355.936,6.957,6.957,0,0,0,2.612.493,8.876,8.876,0,0,0,.936-.049q-4.435,4.065-4.435,6.455,0,1.6,2.144,1.823a12.27,12.27,0,0,0,1.355.074q6.379,0,15.086-7.25c-.05.152-.107.3-.155.457a5.741,5.741,0,0,0,.887,4.972,3.985,3.985,0,0,0,2.883,1.748q.369.024.714.025a5.756,5.756,0,0,0,5.2-3.129,10.767,10.767,0,0,0,1.429-5.051q2.414,3.252,7.737,3.474a11.8,11.8,0,0,0,9.018-3.3c.006-.006.008-.011.014-.017a1.551,1.551,0,0,1,1.257-.552,2.235,2.235,0,0,1,1.212.835,18.514,18.514,0,0,1,1.773,2.779c.547.975,1.08,1.968,1.731,2.91a8.318,8.318,0,0,0,1.122,1.33,3.192,3.192,0,0,0,1.6.875,2.572,2.572,0,0,0,1.808-.408,5.846,5.846,0,0,0,1.321-1.17c.189-.219.366-.445.539-.675l.5-.663a16.291,16.291,0,0,1,1.068-1.255,5.243,5.243,0,0,1,2.649-1.684,6.5,6.5,0,0,1,3.168.374c1.055.332,2.1.738,3.152,1.12s2.112.76,3.181,1.1a61.943,61.943,0,0,0,6.513,1.711,81.454,81.454,0,0,0,13.352,1.522l.006-.121a87.355,87.355,0,0,1-13.284-1.747M176.053,6.012a16.959,16.959,0,0,1,5.913-5.2,4.117,4.117,0,0,1,1.577-.468.61.61,0,0,1,.69.69q0,2.313-5.741,8.044a88.615,88.615,0,0,1-7.589,6.814,34.789,34.789,0,0,1,5.15-9.88M126.1,23.019a1.78,1.78,0,0,1,.432-.649,2.209,2.209,0,0,1,.659-.461,1.832,1.832,0,0,1,.768-.157.946.946,0,0,1,.644.227c.13.131.135.3.013.52a2.017,2.017,0,0,1-.562.578,7.168,7.168,0,0,1-1.583.819c-.033.013-.067.023-.1.035a.874.874,0,0,1-.271-.911" transform="translate(-90.689)" fill="#fff"/></g></g></g></svg>