<svg xmlns="http://www.w3.org/2000/svg" viewBox="0 0 27.69 8.72"><defs><style>.cls-1{fill:#fff;}.cls-2{fill:#143cff;}</style></defs><g id="Layer_2" data-name="Layer 2"><g id="Layer_1-2" data-name="Layer 1"><path class="cls-1" d="M4,7.89H4a1.89,1.89,0,0,1-1.81.83C.89,8.72,0,8.06,0,6.84s1.1-1.79,2.47-2c1-.15,1.49-.23,1.49-.7s-.35-.73-1-.73-1.14.28-1.19.86H.29c.05-1.08.85-2,2.65-2s2.59.82,2.59,2.26V7.66c0,.47.07.75.21.85v.07H4.17A1.86,1.86,0,0,1,4,7.89ZM4,6.4V5.48a4.5,4.5,0,0,1-1.14.36C2,6,1.58,6.22,1.58,6.8s.39.78,1,.78A1.28,1.28,0,0,0,4,6.4Z"/><path class="cls-1" d="M6.08,2.42h.86V.5H8.53V2.42H9.59V3.5H8.53V6.76a.54.54,0,0,0,.61.62l.48,0v1.2s-.37,0-1,0S6.94,8.28,6.94,7.11V3.5H6.08Z"/><path class="cls-1" d="M10,2.42h.85V.5h1.59V2.42h1.06V3.5H12.39V6.76a.55.55,0,0,0,.62.62l.48,0v1.2s-.38,0-1,0c-.8,0-1.67-.31-1.67-1.48V3.5H10Z"/><path class="cls-1" d="M14.29,0h1.63V1.46H14.29Zm0,2.42h1.63V8.58H14.29Z"/><path class="cls-1" d="M17,0h1.63V8.58H17Z"/><path class="cls-1" d="M23.4,7.89h0a1.87,1.87,0,0,1-1.81.83c-1.26,0-2.14-.66-2.14-1.88s1.1-1.79,2.47-2c1-.15,1.48-.23,1.48-.7s-.34-.73-1-.73-1.14.28-1.19.86H19.7c.05-1.08.85-2,2.65-2s2.59.82,2.59,2.26V7.66c0,.47.08.75.22.85v.07H23.59A1.54,1.54,0,0,1,23.4,7.89Zm0-1.49V5.48a4.63,4.63,0,0,1-1.14.36C21.42,6,21,6.22,21,6.8s.38.78,1,.78A1.29,1.29,0,0,0,23.41,6.4Z"/><path class="cls-2" d="M25.94,6.84h1.75V8.58H25.94Z"/></g></g></svg>